{
.appVersion = "1346";
DisplayStrings = (
"",
"HOV/space n´eépk¨ä%#\012/twoinferior/threeinferior/ring ¸/alef-hb/qamatsqatan-hb/alefqamats-hb/dagesh-hb/he-hb/hedagesh-hb/tbar/descender-cy.case/Pe-cy/Pedescender-cy",
"AÁ/Abreve ÂÄÀ/Amacron/Aogonek ÅÃÆ/AEacute BC/Cacute/Ccaron"
);
classes = (
{
code = "zero one two three four five six seven eight nine parenleft parenright";
name = standard;
},
{
code = "zerosuperior onesuperior twosuperior threesuperior foursuperior fivesuperior sixsuperior sevensuperior eightsuperior ninesuperior parenleftsuperior parenrightsuperior";
name = sups;
},
{
code = "zeroinferior oneinferior twoinferior threeinferior fourinferior fiveinferior sixinferior seveninferior eightinferior nineinferior parenleftinferior parenrightinferior";
name = subs;
},
{
code = "zero.numerator one.numerator two.numerator three.numerator four.numerator five.numerator six.numerator seven.numerator eight.numerator nine.numerator parenleft.numerator parenright.numerator";
name = numerator;
},
{
code = "zero.denominator one.denominator two.denominator three.denominator four.denominator five.denominator six.denominator seven.denominator eight.denominator nine.denominator parenleft.denominator parenright.denominator";
name = denominator;
},
{
code = "zero.otlf one.otlf two.otlf three.otlf four.otlf five.otlf six.otlf seven.otlf eight.otlf nine.otlf parenleft.otlf parenright.otlf";
name = tnum1;
},
{
code = "alef-hb bet-hb gimel-hb dalet-hb he-hb vav-hb zayin-hb het-hb tet-hb yod-hb finalkaf-hb kaf-hb lamed-hb finalmem-hb mem-hb finalnun-hb nun-hb samekh-hb ayin-hb finalpe-hb pe-hb finaltsadi-hb tsadi-hb qof-hb resh-hb shin-hb tav-hb ";
name = HebrewLetters;
}
);
copyright = "Copyright 2015 The Rubik Project Authors (https://github.com/googlefonts/rubik)";
customParameters = (
{
name = license;
value = "This Font Software is licensed under the SIL Open Font License, Version 1.1. This license is available with a FAQ at: http://scripts.sil.org/OFL";
},
{

glyphs = (
{
color = 1;
glyphname = A;
layers = (
{
anchors = (
{
name = bottom;
position = "{378, 0}";
},
{
name = ogonek;
position = "{679, 10}";
},
{
name = top;
position = "{378, 700}";
}
);
layerId = "EC64484B-0978-4CB1-9EE9-C40A2D8C4059";
paths = (
{
closed = 1;
nodes = (
"742 180 LINE",
"720 225 LINE",
"697 270 LINE",
"675 315 LINE",
"652 360 LINE",
"630 405 LINE",
"607 450 LINE",
"630 495 LINE",
"607 540 LINE",
"585 585 LINE",
"562 630 LINE",
"540 675 LINE",
"517 720 LINE",
"247 720 LINE",
"225 675 LINE",
"202 630 LINE",
"180 585 LINE",
"157 540 LINE",
"135 495 LINE",
"112 450 LINE",
"90 405 LINE",
"112 360 LINE",
"90 315 LINE",
"67 270 LINE",
"45 225 LINE",
"22 180 LINE",
"0 135 LINE",
"22 90 LINE",
"0 45 LINE",
"22 0 LINE",
"247 0 LINE",
"270 45 LINE",
"292 90 LINE",
"472 90 LINE",
"495 45 LINE",
"517 0 LINE",
"742 0 LINE",
"765 45 LINE",
"742 90 LINE",
"720 135 LINE"
);
},
{
closed = 1;
nodes = (
"540 45 LINE",
"517 90 LINE",
"495 135 LINE",
"270 135 LINE",
"247 90 LINE",
"225 45 LINE",
"45 45 LINE",
"67 90 LINE",
"45 135 LINE",
"67 180 LINE",
"90 225 LINE",
"112 270 LINE",
"135 315 LINE",
"157 360 LINE",
"135 405 LINE",
"157 450 LINE",
"180 495 LINE",
"202 540 LINE",
"225 585 LINE",
"247 630 LINE",
"270 675 LINE",
"495 675 LINE",
"517 630 LINE",
"540 585 LINE",
"562 540 LINE",
"585 495 LINE",
"562 450 LINE",
"585 405 LINE",
"607 360 LINE",
"630 315 LINE",
"652 270 LINE",
"675 225 LINE",
"697 180 LINE",
"675 135 LINE",
"697 90 LINE",
"720 45 LINE"
);
},
{
closed = 1;
nodes = (
"405 495 LINE",
"360 495 LINE",
"337 450 LINE",
"315 405 LINE",
"337 360 LINE",
"315 315 LINE",
"337 270 LINE",
"427 270 LINE",
"450 315 LINE",
"427 360 LINE",
"405 405 LINE",
"427 450 LINE"
);
},
{
closed = 1;
nodes = (
"405 315 LINE",
"360 315 LINE",
"382 360 LINE"
);
}
);
width = 755;
}
);
leftKerningGroup = A;
rightKerningGroup = A;
unicode = 0041;
userData = {
com.typemytype.robofont.guides = (
{
angle = 0;
isGlobal = 0;
magnetic = 5;
x = 0;
y = 680;
},
{
angle = 90;
isGlobal = 0;
magnetic = 5;
x = 35;
y = 0;
},
{
angle = 90;
isGlobal = 0;
magnetic = 5;
x = 637;
y = 0;
},
{
angle = 90;
isGlobal = 0;
magnetic = 5;
x = 336;
y = 0;
}
);
};
},
{
color = 1;
glyphname = Aogonek;
layers = (
{
hints = (
{
horizontal = 1;
place = "{-2147483648, 0}";
type = Tag;
name = hr01;
}
);
layerId = "EC64484B-0978-4CB1-9EE9-C40A2D8C4059";
paths = (
{
closed = 1;
nodes = (
"585 -180 LINE",
"562 -135 LINE",
"540 -90 LINE",
"562 -45 LINE",
"540 0 LINE",
"517 45 LINE",
"495 90 LINE",
"472 135 LINE",
"247 135 LINE",
"225 90 LINE",
"247 45 LINE",
"22 45 LINE",
"45 90 LINE",
"67 135 LINE",
"90 180 LINE",
"112 225 LINE",
"90 270 LINE",
"112 315 LINE",
"135 360 LINE",
"157 405 LINE",
"180 450 LINE",
"202 495 LINE",
"180 540 LINE",
"202 585 LINE",
"225 630 LINE",
"247 675 LINE",
"517 675 LINE",
"540 630 LINE",
"517 585 LINE",
"540 540 LINE",
"562 495 LINE",
"585 450 LINE",
"607 405 LINE",
"630 360 LINE",
"652 315 LINE",
"630 270 LINE",
"652 225 LINE",
"675 180 LINE",
"697 135 LINE",
"720 90 LINE",
"742 45 LINE",
"765 90 LINE",
"742 135 LINE",
"720 180 LINE",
"697 225 LINE",
"675 270 LINE",
"697 315 LINE",
"675 360 LINE",
"652 405 LINE",
"630 450 LINE",
"607 495 LINE",
"585 540 LINE",
"562 585 LINE",
"585 630 LINE",
"562 675 LINE",
"540 720 LINE",
"225 720 LINE",
"202 675 LINE",
"180 630 LINE",
"157 585 LINE",
"135 540 LINE",
"157 495 LINE",
"135 450 LINE",
"112 405 LINE",
"90 360 LINE",
"67 315 LINE",
"45 270 LINE",
"67 225 LINE",
"45 180 LINE",
"22 135 LINE",
"0 90 LINE",
"-23 45 LINE",
"0 0 LINE",
"270 0 LINE",
"292 45 LINE",
"270 90 LINE",
"450 90 LINE",
"472 45 LINE",
"495 0 LINE",
"517 -45 LINE",
"495 -90 LINE",
"517 -135 LINE",
"540 -180 LINE",
"562 -225 LINE",
"742 -225 LINE",
"765 -180 LINE",
"742 -135 LINE",
"720 -180 LINE"
);
},
{
closed = 1;
nodes = (
"337 405 LINE",
"315 360 LINE",
"292 315 LINE",
"315 270 LINE",
"405 270 LINE",
"427 315 LINE",
"450 360 LINE",
"427 405 LINE",
"405 450 LINE",
"360 450 LINE"
);
},
{
closed = 1;
nodes = (
"360 360 LINE",
"382 405 LINE",
"405 360 LINE",
"382 315 LINE",
"337 315 LINE"
);
},
{
closed = 1;
nodes = (
"675 -90 LINE",
"697 -135 LINE",
"787 -135 LINE",
"765 -90 LINE",
"720 -90 LINE",
"697 -45 LINE",
"720 0 LINE",
"742 45 LINE",
"697 45 LINE",
"675 0 LINE",
"652 -45 LINE"
);
}
);
width = 755;
}
);
leftKerningGroup = A;
rightKerningGroup = A;
unicode = 0104;
},
{
color = 1;
glyphname = AE;
layers = (
{
anchors = (
{
name = bottom;
position = "{503, 0}";
},
{
name = top;
position = "{503, 700}";
}
);
layerId = "EC64484B-0978-4CB1-9EE9-C40A2D8C4059";
paths = (
{
closed = 1;
nodes = (
"949 495 LINE",
"971 540 LINE",
"994 585 LINE",
"971 630 LINE",
"994 675 LINE",
"971 720 LINE",
"251 720 LINE",
"229 675 LINE",
"206 630 LINE",
"184 585 LINE",
"161 540 LINE",
"139 495 LINE",
"116 450 LINE",
"94 405 LINE",
"116 360 LINE",
"94 315 LINE",
"71 270 LINE",
"49 225 LINE",
"26 180 LINE",
"4 135 LINE",
"26 90 LINE",
"4 45 LINE",
"26 0 LINE",
"251 0 LINE",
"274 45 LINE",
"296 90 LINE",
"386 90 LINE",
"409 45 LINE",
"431 0 LINE",
"566 0 LINE",
"589 45 LINE",
"454 45 LINE",
"431 90 LINE",
"409 135 LINE",
"274 135 LINE",
"251 90 LINE",
"229 45 LINE",
"49 45 LINE",
"71 90 LINE",
"49 135 LINE",
"71 180 LINE",
"94 225 LINE",
"116 270 LINE",
"139 315 LINE",
"161 360 LINE",
"139 405 LINE",
"161 450 LINE",
"184 495 LINE",
"206 540 LINE",
"229 585 LINE",
"251 630 LINE",
"274 675 LINE",
"949 675 LINE",
"926 630 LINE",
"949 585 LINE",
"926 540 LINE",
"656 540 LINE",
"634 495 LINE",
"656 450 LINE",
"679 405 LINE",
"904 405 LINE",
"926 360 LINE",
"904 315 LINE",
"926 270 LINE",
"656 270 LINE",
"634 225 LINE",
"656 180 LINE",
"926 180 LINE",
"949 135 LINE",
"926 90 LINE",
"949 45 LINE",
"589 45 LINE",
"611 0 LINE",
"971 0 LINE",
"994 45 LINE",
"971 90 LINE",
"994 135 LINE",
"971 180 LINE",
"949 225 LINE",
"971 270 LINE",
"949 315 LINE",
"971 360 LINE",
"949 405 LINE",
"926 450 LINE",
"701 450 LINE",
"679 495 LINE"
);
},
{
closed = 1;
nodes = (
"364 495 LINE",
"341 450 LINE",
"319 405 LINE",
"341 360 LINE",
"319 315 LINE",
"341 270 LINE",
"431 270 LINE",
"454 315 LINE",
"431 360 LINE",
"454 405 LINE",
"431 450 LINE",
"454 495 LINE",
"431 540 LINE",
"386 540 LINE"
);
},
{
closed = 1;
nodes = (
"409 315 LINE",
"364 315 LINE",
"386 360 LINE",
"364 405 LINE",
"386 450 LINE",
"409 405 LINE",
"386 360 LINE"
);
}
);
width = 1005;
}
);
leftKerningGroup = AE;
rightKerningGroup = E;
unicode = 00C6;
userData = {
com.typemytype.robofont.guides = (
{
angle = 0;
isGlobal = 0;
magnetic = 5;
x = 0;
y = 505;
},
{
angle = 90;
isGlobal = 0;
magnetic = 5;
x = 431;
y = 0;
}
);
};
},
{
color = 1;
glyphname = B;
layers = (
{
hints = (
{
horizontal = 1;
place = "{-2147483648, 0}";
type = Tag;
name = hr00;
}
);
layerId = "EC64484B-0978-4CB1-9EE9-C40A2D8C4059";
paths = (
{
closed = 1;
nodes = (
"662 360 LINE",
"685 405 LINE",
"707 450 LINE",
"730 495 LINE",
"707 540 LINE",
"685 585 LINE",
"662 630 LINE",
"640 675 LINE",
"595 675 LINE",
"572 720 LINE",
"77 720 LINE",
"55 675 LINE",
"32 630 LINE",
"55 585 LINE",
"32 540 LINE",
"55 495 LINE",
"32 450 LINE",
"55 405 LINE",
"32 360 LINE",
"55 315 LINE",
"32 270 LINE",
"55 225 LINE",
"32 180 LINE",
"55 135 LINE",
"32 90 LINE",
"55 45 LINE",
"77 0 LINE",
"617 0 LINE",
"640 45 LINE",
"685 45 LINE",
"707 90 LINE",
"730 135 LINE",
"707 180 LINE",
"730 225 LINE",
"707 270 LINE",
"685 315 LINE"
);
},
{
closed = 1;
nodes = (
"662 90 LINE",
"617 90 LINE",
"595 45 LINE",
"100 45 LINE",
"77 90 LINE",
"100 135 LINE",
"77 180 LINE",
"100 225 LINE",
"77 270 LINE",
"100 315 LINE",
"77 360 LINE",
"100 405 LINE",
"77 450 LINE",
"100 495 LINE",
"77 540 LINE",
"100 585 LINE",
"77 630 LINE",
"100 675 LINE",
"550 675 LINE",
"572 630 LINE",
"617 630 LINE",
"640 585 LINE",
"662 540 LINE",
"685 495 LINE",
"662 450 LINE",
"640 405 LINE",
"617 360 LINE",
"640 315 LINE",
"662 270 LINE",
"685 225 LINE",
"662 180 LINE",
"685 135 LINE"
);
},
{
closed = 1;
nodes = (
"302 540 LINE",
"280 495 LINE",
"302 450 LINE",
"325 405 LINE",
"415 405 LINE",
"437 450 LINE",
"460 495 LINE",
"437 540 LINE"
);
},
{
closed = 1;
nodes = (
"325 495 LINE",
"415 495 LINE",
"392 450 LINE",
"347 450 LINE"
);
},
{
closed = 1;
nodes = (
"325 315 LINE",
"302 270 LINE",
"280 225 LINE",
"302 180 LINE",
"325 135 LINE",
"415 135 LINE",
"437 180 LINE",
"460 225 LINE",
"437 270 LINE",
"415 315 LINE"
);
},
{
closed = 1;
nodes = (
"325 225 LINE",
"347 270 LINE",
"392 270 LINE",
"415 225 LINE",
"392 180 LINE",
"347 180 LINE"
);
}
);
width = 734;
}
);
leftKerningGroup = I;
unicode = 0042;
userData = {
com.typemytype.robofont.guides = (
{
angle = 0;
isGlobal = 0;
magnetic = 5;
x = 0;
y = 271;
},
{
angle = 0;
isGlobal = 0;
magnetic = 5;
x = 0;
y = 437;
},
{
angle = 0;
isGlobal = 0;
magnetic = 5;
x = 0;
y = 521;
},
{
angle = 0;
isGlobal = 0;
magnetic = 5;
x = 0;
y = 198;
},
{
angle = 0;
isGlobal = 0;
magnetic = 5;
x = 0;
y = 9;
},
{
angle = 90;
isGlobal = 0;
magnetic = 5;
x = 355;
y = 0;
},
{
angle = 90;
isGlobal = 0;
magnetic = 5;
x = 583;
y = 0;
},
{
angle = 90;
isGlobal = 0;
magnetic = 5;
x = 94;
y = 0;
}
);
};
},
{
color = 1;
glyphname = C;
layers = (
{
anchors = (
{
name = bottom;
position = "{367, 0}";
},
{
name = top;
position = "{367, 700}";
}
);
layerId = "EC64484B-0978-4CB1-9EE9-C40A2D8C4059";
paths = (
{
closed = 1;
nodes = (
"170 630 LINE",
"192 675 LINE",
"102 675 LINE",
"80 630 LINE",
"57 585 LINE",
"35 540 LINE",
"57 495 LINE",
"80 540 LINE",
"102 585 LINE",
"125 630 LINE"
);
},
{
closed = 1;
nodes = (
"665 630 LINE",
"642 675 LINE",
"552 675 LINE",
"575 630 LINE",
"620 630 LINE",
"642 585 LINE",
"665 540 LINE",
"687 495 LINE",
"732 495 LINE",
"710 540 LINE",
"687 585 LINE"
);
},
{
closed = 1;
nodes = (
"440 270 LINE",
"417 225 LINE",
"327 225 LINE",
"305 270 LINE",
"327 315 LINE",
"305 360 LINE",
"327 405 LINE",
"305 450 LINE",
"327 495 LINE",
"417 495 LINE",
"440 450 LINE",
"462 405 LINE",
"687 405 LINE",
"710 450 LINE",
"687 495 LINE",
"665 450 LINE",
"485 450 LINE",
"462 495 LINE",
"440 540 LINE",
"305 540 LINE",
"282 495 LINE",
"260 450 LINE",
"282 405 LINE",
"260 360 LINE",
"282 315 LINE",
"260 270 LINE",
"282 225 LINE",
"305 180 LINE",
"440 180 LINE",
"462 225 LINE",
"732 225 LINE",
"710 270 LINE"
);
},
{
closed = 1;
nodes = (
"575 90 LINE",
"552 45 LINE",
"462 45 LINE",
"440 0 LINE",
"305 0 LINE",
"282 45 LINE",
"192 45 LINE",
"170 90 LINE",
"125 90 LINE",
"102 135 LINE",
"80 180 LINE",
"57 225 LINE",
"80 270 LINE",
"57 315 LINE",
"80 360 LINE",
"57 405 LINE",
"80 450 LINE",
"57 495 LINE",
"35 450 LINE",
"12 405 LINE",
"35 360 LINE",
"12 315 LINE",
"35 270 LINE",
"12 225 LINE",
"35 180 LINE",
"57 135 LINE",
"80 90 LINE",
"102 45 LINE",
"147 45 LINE",
"170 0 LINE",
"260 0 LINE",
"282 -45 LINE",
"462 -45 LINE",
"485 0 LINE",
"575 0 LINE",
"597 45 LINE",
"642 45 LINE",
"665 90 LINE",
"687 135 LINE",
"710 180 LINE",
"687 225 LINE",
"665 180 LINE",
"642 135 LINE",
"620 90 LINE"
);
}
);
width = 733;
}
);
leftKerningGroup = O;
rightKerningGroup = C;
unicode = 0043;
userData = {
com.typemytype.robofont.guides = (
{
angle = 0;
isGlobal = 0;
magnetic = 5;
x = 0;
y = 434;
},
{
angle = 0;
isGlobal = 0;
magnetic = 5;
x = 0;
y = 266;
},
{
angle = 0;
isGlobal = 0;
magnetic = 5;
x = 0;
y = 710;
},
{
angle = 0;
isGlobal = 0;
magnetic = 5;
x = 0;
y = "-10";
},
{
angle = 90;
isGlobal = 0;
magnetic = 5;
x = 599;
y = 0;
},
{
angle = 90;
isGlobal = 0;
magnetic = 5;
x = 209;
y = 0;
},
{
angle = 90;
isGlobal = 0;
magnetic = 5;
x = 149;
y = 0;
},
{
angle = 90;
isGlobal = 0;
magnetic = 5;
x = 332;
y = 0;
}
);
};
},
{
color = 1;
glyphname = Ccedilla;
layers = (
{
hints = (
{
horizontal = 1;
place = "{-2147483648, 0}";
type = Tag;
name = hr00;
}
);
layerId = "EC64484B-0978-4CB1-9EE9-C40A2D8C4059";
paths = (
{
closed = 1;
nodes = (
"575 90 LINE",
"552 45 LINE",
"462 45 LINE",
"440 0 LINE",
"395 0 LINE",
"372 -45 LINE",
"395 -90 LINE",
"440 -90 LINE",
"462 -135 LINE",
"440 -180 LINE",
"395 -180 LINE",
"417 -135 LINE",
"395 -90 LINE",
"305 -90 LINE",
"327 -45 LINE",
"305 0 LINE",
"282 45 LINE",
"192 45 LINE",
"170 90 LINE",
"125 90 LINE",
"102 135 LINE",
"80 180 LINE",
"57 225 LINE",
"80 270 LINE",
"57 315 LINE",
"80 360 LINE",
"57 405 LINE",
"80 450 LINE",
"57 495 LINE",
"80 540 LINE",
"102 585 LINE",
"125 630 LINE",
"170 630 LINE",
"192 675 LINE",
"552 675 LINE",
"575 630 LINE",
"620 630 LINE",
"642 585 LINE",
"665 540 LINE",
"687 495 LINE",
"732 495 LINE",
"710 540 LINE",
"687 585 LINE",
"665 630 LINE",
"642 675 LINE",
"597 675 LINE",
"575 720 LINE",
"170 720 LINE",
"147 675 LINE",
"102 675 LINE",
"80 630 LINE",
"57 585 LINE",
"35 540 LINE",
"12 495 LINE",
"35 450 LINE",
"12 405 LINE",
"35 360 LINE",
"12 315 LINE",
"35 270 LINE",
"12 225 LINE",
"35 180 LINE",
"57 135 LINE",
"80 90 LINE",
"102 45 LINE",
"147 45 LINE",
"170 0 LINE",
"260 0 LINE",
"282 -45 LINE",
"260 -90 LINE",
"282 -135 LINE",
"260 -180 LINE",
"282 -225 LINE",
"462 -225 LINE",
"485 -180 LINE",
"507 -135 LINE",
"485 -90 LINE",
"462 -45 LINE",
"485 0 LINE",
"575 0 LINE",
"597 45 LINE",
"642 45 LINE",
"665 90 LINE",
"687 135 LINE",
"710 180 LINE",
"687 225 LINE",
"665 180 LINE",
"642 135 LINE",
"620 90 LINE"
);
},
{
closed = 1;
nodes = (
"440 270 LINE",
"417 225 LINE",
"327 225 LINE",
"305 270 LINE",
"327 315 LINE",
"305 360 LINE",
"327 405 LINE",
"305 450 LINE",
"327 495 LINE",
"417 495 LINE",
"440 450 LINE",
"462 405 LINE",
"687 405 LINE",
"710 450 LINE",
"687 495 LINE",
"665 450 LINE",
"485 450 LINE",
"462 495 LINE",
"440 540 LINE",
"305 540 LINE",
"282 495 LINE",
"260 450 LINE",
"282 405 LINE",
"260 360 LINE",
"282 315 LINE",
"260 270 LINE",
"282 225 LINE",
"305 180 LINE",
"440 180 LINE",
"462 225 LINE",
"732 225 LINE",
"710 270 LINE"
);
}
);
width = 733;
}
);
leftKerningGroup = O;
rightKerningGroup = C;
unicode = 00C7;
userData = {
com.typemytype.robofont.guides = (
{
angle = 0;
isGlobal = 0;
magnetic = 5;
x = 0;
y = "-174";
},
{
angle = 0;
isGlobal = 0;
magnetic = 5;
x = 0;
y = "-220";
},
{
angle = 0;
isGlobal = 0;
magnetic = 5;
x = 0;
y = "-96";
},
{
angle = 0;
isGlobal = 0;
magnetic = 5;
x = 0;
y = "-50";
},
{
angle = 0;
isGlobal = 0;
magnetic = 5;
x = 0;
y = "-135";
},
{
angle = 90;
isGlobal = 0;
magnetic = 5;
x = 331;
y = 0;
},
{
angle = 90;
isGlobal = 0;
magnetic = 5;
x = 342;
y = 0;
}
);
};
},
{
color = 1;
glyphname = D;
layers = (
{
hints = (
{
horizontal = 1;
place = "{-2147483648, 0}";
type = Tag;
name = hr00;
}
);
layerId = "EC64484B-0978-4CB1-9EE9-C40A2D8C4059";
paths = (
{
closed = 1;
nodes = (
"505 675 LINE",
"527 630 LINE",
"572 630 LINE",
"595 585 LINE",
"640 585 LINE",
"662 540 LINE",
"685 495 LINE",
"730 495 LINE",
"707 540 LINE",
"685 585 LINE",
"662 630 LINE",
"617 630 LINE",
"595 675 LINE",
"550 675 LINE",
"527 720 LINE",
"77 720 LINE",
"55 675 LINE",
"32 630 LINE",
"77 630 LINE",
"100 675 LINE"
);
},
{
closed = 1;
nodes = (
"662 450 LINE",
"685 405 LINE",
"662 360 LINE",
"685 315 LINE",
"662 270 LINE",
"685 225 LINE",
"662 180 LINE",
"640 135 LINE",
"617 90 LINE",
"572 90 LINE",
"550 45 LINE",
"100 45 LINE",
"77 90 LINE",
"100 135 LINE",
"77 180 LINE",
"100 225 LINE",
"77 270 LINE",
"100 315 LINE",
"77 360 LINE",
"100 405 LINE",
"77 450 LINE",
"100 495 LINE",
"77 540 LINE",
"100 585 LINE",
"77 630 LINE",
"55 585 LINE",
"32 540 LINE",
"55 495 LINE",
"32 450 LINE",
"55 405 LINE",
"32 360 LINE",
"55 315 LINE",
"32 270 LINE",
"55 225 LINE",
"32 180 LINE",
"55 135 LINE",
"32 90 LINE",
"55 45 LINE",
"77 0 LINE",
"572 0 LINE",
"595 45 LINE",
"640 45 LINE",
"662 90 LINE",
"685 135 LINE",
"707 180 LINE",
"730 225 LINE",
"707 270 LINE",
"730 315 LINE",
"707 360 LINE",
"730 405 LINE",
"707 450 LINE",
"685 495 LINE"
);
},
{
closed = 1;
nodes = (
"437 180 LINE",
"460 225 LINE",
"482 270 LINE",
"460 315 LINE",
"482 360 LINE",
"460 405 LINE",
"482 450 LINE",
"460 495 LINE",
"415 495 LINE",
"392 540 LINE",
"302 540 LINE",
"280 495 LINE",
"302 450 LINE",
"280 405 LINE",
"302 360 LINE",
"280 315 LINE",
"302 270 LINE",
"280 225 LINE",
"302 180 LINE"
);
},
{
closed = 1;
nodes = (
"347 360 LINE",
"325 405 LINE",
"347 450 LINE",
"325 495 LINE",
"370 495 LINE",
"392 450 LINE",
"437 450 LINE",
"415 405 LINE",
"437 360 LINE",
"415 315 LINE",
"437 270 LINE",
"415 225 LINE",
"325 225 LINE",
"347 270 LINE",
"325 315 LINE"
);
}
);
width = 740;
}
);
leftKerningGroup = I;
rightKerningGroup = D;
unicode = 0044;
userData = {
com.typemytype.robofont.guides = (
{
angle = 0;
isGlobal = 0;
magnetic = 5;
x = 0;
y = 425;
},
{
angle = 0;
isGlobal = 0;
magnetic = 5;
x = 0;
y = 276;
},
{
angle = 0;
isGlobal = 0;
magnetic = 5;
x = 0;
y = 9;
},
{
angle = 90;
isGlobal = 0;
magnetic = 5;
x = 320;
y = 0;
},
{
angle = 90;
isGlobal = 0;
magnetic = 5;
x = 603;
y = 0;
},
{
angle = 90;
isGlobal = 0;
magnetic = 5;
x = 94;
y = 0;
}
);
};
},
{
color = 1;
glyphname = Eth;
layers = (
{
hints = (
{
horizontal = 1;
place = "{-2147483648, 0}";
type = Tag;
name = hr00;
}
);
layerId = "EC64484B-0978-4CB1-9EE9-C40A2D8C4059";
paths = (
{
closed = 1;
nodes = (
"81 540 LINE",
"104 585 LINE",
"81 630 LINE",
"104 675 LINE",
"509 675 LINE",
"531 630 LINE",
"554 675 LINE",
"531 720 LINE",
"81 720 LINE",
"59 675 LINE",
"36 630 LINE",
"59 585 LINE",
"36 540 LINE",
"59 495 LINE",
"36 450 LINE",
"14 405 LINE",
"36 360 LINE",
"59 405 LINE",
"81 450 LINE",
"104 495 LINE"
);
},
{
closed = 1;
nodes = (
"666 540 LINE",
"689 495 LINE",
"711 450 LINE",
"756 450 LINE",
"734 495 LINE",
"711 540 LINE",
"689 585 LINE",
"666 630 LINE",
"644 675 LINE",
"554 675 LINE",
"576 630 LINE",
"621 630 LINE",
"644 585 LINE"
);
},
{
closed = 1;
nodes = (
"441 540 LINE",
"351 540 LINE",
"329 495 LINE",
"306 450 LINE",
"329 405 LINE",
"374 405 LINE",
"396 360 LINE",
"374 315 LINE",
"329 315 LINE",
"306 270 LINE",
"329 225 LINE",
"351 180 LINE",
"441 180 LINE",
"464 225 LINE",
"486 270 LINE",
"509 315 LINE",
"486 360 LINE",
"509 405 LINE",
"486 450 LINE",
"464 495 LINE"
);
},
{
closed = 1;
nodes = (
"441 270 LINE",
"419 225 LINE",
"374 225 LINE",
"351 270 LINE",
"396 270 LINE",
"419 315 LINE",
"441 360 LINE",
"419 405 LINE",
"396 450 LINE",
"351 450 LINE",
"374 495 LINE",
"419 495 LINE",
"441 450 LINE",
"464 405 LINE",
"441 360 LINE",
"464 315 LINE"
);
},
{
closed = 1;
nodes = (
"689 405 LINE",
"711 360 LINE",
"756 360 LINE",
"734 405 LINE",
"711 450 LINE"
);
},
{
closed = 1;
nodes = (
"599 45 LINE",
"104 45 LINE",
"81 90 LINE",
"104 135 LINE",
"81 180 LINE",
"104 225 LINE",
"81 270 LINE",
"59 315 LINE",
"36 360 LINE",
"-9 360 LINE",
"14 315 LINE",
"36 270 LINE",
"59 225 LINE",
"36 180 LINE",
"59 135 LINE",
"36 90 LINE",
"59 45 LINE",
"81 0 LINE",
"621 0 LINE",
"644 45 LINE",
"666 90 LINE",
"711 90 LINE",
"734 135 LINE",
"711 180 LINE",
"689 135 LINE",
"644 135 LINE",
"621 90 LINE"
);
},
{
closed = 1;
nodes = (
"734 315 LINE",
"711 360 LINE",
"689 315 LINE",
"711 270 LINE",
"756 270 LINE"
);
},
{
closed = 1;
nodes = (
"734 225 LINE",
"711 270 LINE",
"689 225 LINE",
"711 180 LINE",
"756 180 LINE"
);
}
);
width = 766;
}
);
leftKerningGroup = I;
rightKerningGroup = D;
unicode = 00D0;
userData = {
com.typemytype.robofont.guides = (
{
angle = 0;
isGlobal = 0;
magnetic = 5;
x = 0;
y = 350;
}
);
};
},
{
color = 1;
glyphname = Dcroat;
layers = (
{
hints = (
{
horizontal = 1;
place = "{-2147483648, 0}";
type = Tag;
name = hr00;
}
);
layerId = "EC64484B-0978-4CB1-9EE9-C40A2D8C4059";
paths = (
{
closed = 1;
nodes = (
"104 225 LINE",
"81 270 LINE",
"59 315 LINE",
"36 360 LINE",
"59 405 LINE",
"81 450 LINE",
"104 495 LINE",
"81 540 LINE",
"104 585 LINE",
"81 630 LINE",
"104 675 LINE",
"509 675 LINE",
"531 630 LINE",
"621 630 LINE",
"644 585 LINE",
"666 540 LINE",
"689 495 LINE",
"711 450 LINE",
"756 450 LINE",
"734 495 LINE",
"711 540 LINE",
"689 585 LINE",
"666 630 LINE",
"644 675 LINE",
"554 675 LINE",
"531 720 LINE",
"81 720 LINE",
"59 675 LINE",
"36 630 LINE",
"59 585 LINE",
"36 540 LINE",
"59 495 LINE",
"36 450 LINE",
"14 405 LINE",
"-9 360 LINE",
"14 315 LINE",
"36 270 LINE",
"59 225 LINE",
"36 180 LINE",
"59 135 LINE",
"36 90 LINE",
"59 45 LINE",
"104 45 LINE",
"81 90 LINE",
"104 135 LINE",
"81 180 LINE"
);
},
{
closed = 1;
nodes = (
"441 540 LINE",
"351 540 LINE",
"329 495 LINE",
"306 450 LINE",
"329 405 LINE",
"374 405 LINE",
"396 360 LINE",
"374 315 LINE",
"329 315 LINE",
"306 270 LINE",
"329 225 LINE",
"351 180 LINE",
"441 180 LINE",
"464 225 LINE",
"486 270 LINE",
"509 315 LINE",
"486 360 LINE",
"509 405 LINE",
"486 450 LINE",
"464 495 LINE"
);
},
{
closed = 1;
nodes = (
"441 270 LINE",
"419 225 LINE",
"374 225 LINE",
"351 270 LINE",
"396 270 LINE",
"419 315 LINE",
"441 360 LINE",
"419 405 LINE",
"396 450 LINE",
"351 450 LINE",
"374 495 LINE",
"419 495 LINE",
"441 450 LINE",
"464 405 LINE",
"441 360 LINE",
"464 315 LINE"
);
},
{
closed = 1;
nodes = (
"689 405 LINE",
"711 360 LINE",
"756 360 LINE",
"734 405 LINE",
"711 450 LINE"
);
},
{
closed = 1;
nodes = (
"734 315 LINE",
"711 360 LINE",
"689 315 LINE",
"711 270 LINE",
"756 270 LINE"
);
},
{
closed = 1;
nodes = (
"644 135 LINE",
"621 90 LINE",
"576 90 LINE",
"554 45 LINE",
"104 45 LINE",
"126 0 LINE",
"576 0 LINE",
"599 45 LINE",
"644 45 LINE",
"666 90 LINE",
"711 90 LINE",
"734 135 LINE",
"711 180 LINE",
"734 225 LINE",
"711 270 LINE",
"689 225 LINE",
"666 180 LINE",
"689 135 LINE"
);
}
);
width = 764;
}
);
leftKerningGroup = I;
rightKerningGroup = D;
unicode = 0110;
userData = {
com.typemytype.robofont.guides = (
{
angle = 0;
isGlobal = 0;
magnetic = 5;
x = 0;
y = 352;
},
{
angle = 90;
isGlobal = 0;
magnetic = 5;
x = 340;
y = 0;
},
{
angle = 90;
isGlobal = 0;
magnetic = 5;
x = 105;
y = 0;
}
);
};
},
{
color = 1;
glyphname = E;
layers = (
{
anchors = (
{
name = bottom;
position = "{334, 0}";
},
{
name = ogonek;
position = "{600, 10}";
},
{
name = top;
position = "{334, 700}";
},
{
name = topleft;
position = "{20, 700}";
}
);
layerId = "EC64484B-0978-4CB1-9EE9-C40A2D8C4059";
paths = (
{
closed = 1;
nodes = (
"100 45 LINE",
"77 90 LINE",
"100 135 LINE",
"77 180 LINE",
"100 225 LINE",
"77 270 LINE",
"100 315 LINE",
"77 360 LINE",
"100 405 LINE",
"77 450 LINE",
"100 495 LINE",
"77 540 LINE",
"100 585 LINE",
"77 630 LINE",
"100 675 LINE",
"595 675 LINE",
"617 630 LINE",
"662 630 LINE",
"640 675 LINE",
"617 720 LINE",
"77 720 LINE",
"55 675 LINE",
"32 630 LINE",
"55 585 LINE",
"32 540 LINE",
"55 495 LINE",
"32 450 LINE",
"55 405 LINE",
"32 360 LINE",
"55 315 LINE",
"32 270 LINE",
"55 225 LINE",
"32 180 LINE",
"55 135 LINE",
"32 90 LINE",
"55 45 LINE",
"77 0 LINE",
"617 0 LINE",
"640 45 LINE",
"617 90 LINE",
"595 45 LINE"
);
},
{
closed = 1;
nodes = (
"595 585 LINE",
"617 540 LINE",
"662 540 LINE",
"640 585 LINE",
"617 630 LINE"
);
},
{
closed = 1;
nodes = (
"302 540 LINE",
"280 495 LINE",
"257 450 LINE",
"280 405 LINE",
"595 405 LINE",
"572 360 LINE",
"595 315 LINE",
"572 270 LINE",
"302 270 LINE",
"280 225 LINE",
"302 180 LINE",
"662 180 LINE",
"640 225 LINE",
"595 225 LINE",
"617 270 LINE",
"640 315 LINE",
"617 360 LINE",
"640 405 LINE",
"617 450 LINE",
"302 450 LINE",
"325 495 LINE",
"640 495 LINE",
"617 540 LINE"
);
},
{
closed = 1;
nodes = (
"640 135 LINE",
"617 180 LINE",
"595 135 LINE",
"617 90 LINE",
"662 90 LINE"
);
}
);
width = 667;
}
);
leftKerningGroup = I;
rightKerningGroup = E;
unicode = 0045;
userData = {
com.typemytype.robofont.guides = (
{
angle = 0;
isGlobal = 0;
magnetic = 5;
x = 0;
y = 334;
},
{
angle = 0;
isGlobal = 0;
magnetic = 5;
x = 0;
y = 9;
},
{
angle = 0;
isGlobal = 0;
magnetic = 5;
x = 0;
y = 376;
},
{
angle = 0;
isGlobal = 0;
magnetic = 5;
x = 0;
y = 691;
},
{
angle = 0;
isGlobal = 0;
magnetic = 5;
x = 0;
y = 649;
},
{
angle = 90;
isGlobal = 0;
magnetic = 5;
x = 664;
y = 0;
},
{
angle = 90;
isGlobal = 0;
magnetic = 5;
x = 94;
y = 0;
},
{
angle = 90;
isGlobal = 0;
magnetic = 5;
x = 511;
y = 0;
}
);
};
},
{
color = 1;
glyphname = Eogonek;
layers = (
{
hints = (
{
horizontal = 1;
place = "{-2147483648, 0}";
type = Tag;
name = hr01;
}
);
layerId = "EC64484B-0978-4CB1-9EE9-C40A2D8C4059";
paths = (
{
closed = 1;
nodes = (
"482 -135 LINE",
"437 -135 LINE",
"460 -90 LINE",
"437 -45 LINE",
"460 0 LINE",
"437 45 LINE",
"77 45 LINE",
"100 90 LINE",
"77 135 LINE",
"100 180 LINE",
"77 225 LINE",
"100 270 LINE",
"77 315 LINE",
"100 360 LINE",
"77 405 LINE",
"100 450 LINE",
"77 495 LINE",
"100 540 LINE",
"77 585 LINE",
"100 630 LINE",
"77 675 LINE",
"662 675 LINE",
"640 720 LINE",
"55 720 LINE",
"32 675 LINE",
"55 630 LINE",
"32 585 LINE",
"55 540 LINE",
"32 495 LINE",
"55 450 LINE",
"32 405 LINE",
"55 360 LINE",
"32 315 LINE",
"55 270 LINE",
"32 225 LINE",
"55 180 LINE",
"32 135 LINE",
"55 90 LINE",
"32 45 LINE",
"55 0 LINE",
"415 0 LINE",
"392 -45 LINE",
"415 -90 LINE",
"392 -135 LINE",
"415 -180 LINE",
"460 -180 LINE",
"482 -225 LINE",
"617 -225 LINE",
"640 -180 LINE",
"617 -135 LINE",
"595 -180 LINE",
"505 -180 LINE"
);
},
{
closed = 1;
nodes = (
"595 630 LINE",
"617 585 LINE",
"662 585 LINE",
"640 630 LINE",
"617 675 LINE"
);
},
{
closed = 1;
nodes = (
"280 540 LINE",
"257 495 LINE",
"280 450 LINE",
"302 405 LINE",
"572 405 LINE",
"595 360 LINE",
"572 315 LINE",
"550 270 LINE",
"280 270 LINE",
"257 225 LINE",
"280 180 LINE",
"595 180 LINE",
"617 135 LINE",
"662 135 LINE",
"640 180 LINE",
"617 225 LINE",
"572 225 LINE",
"595 270 LINE",
"617 315 LINE",
"640 360 LINE",
"617 405 LINE",
"595 450 LINE",
"325 450 LINE",
"302 495 LINE",
"617 495 LINE",
"640 540 LINE",
"617 585 LINE",
"595 540 LINE"
);
},
{
closed = 1;
nodes = (
"640 90 LINE",
"617 135 LINE",
"595 90 LINE",
"617 45 LINE",
"662 45 LINE"
);
},
{
closed = 1;
nodes = (
"550 -90 LINE",
"572 -135 LINE",
"662 -135 LINE",
"640 -90 LINE",
"595 -90 LINE",
"572 -45 LINE",
"595 0 LINE",
"640 0 LINE",
"617 45 LINE",
"572 45 LINE",
"550 0 LINE",
"527 -45 LINE"
);
}
);
width = 667;
}
);
leftKerningGroup = I;
rightKerningGroup = E;
unicode = 0118;
userData = {
com.typemytype.robofont.guides = (
{
angle = 90;
isGlobal = 0;
magnetic = 5;
x = 355;
y = 0;
}
);
};
},
{
color = 1;
glyphname = F;
layers = (
{
hints = (
{
horizontal = 1;
place = "{-2147483648, 0}";
type = Tag;
name = hr00;
}
);
layerId = "EC64484B-0978-4CB1-9EE9-C40A2D8C4059";
paths = (
{
closed = 1;
nodes = (
"77 720 LINE",
"55 675 LINE",
"32 630 LINE",
"55 585 LINE",
"32 540 LINE",
"55 495 LINE",
"32 450 LINE",
"55 405 LINE",
"32 360 LINE",
"55 315 LINE",
"32 270 LINE",
"55 225 LINE",
"100 225 LINE",
"77 270 LINE",
"100 315 LINE",
"77 360 LINE",
"100 405 LINE",
"77 450 LINE",
"100 495 LINE",
"77 540 LINE",
"100 585 LINE",
"77 630 LINE",
"100 675 LINE",
"595 675 LINE",
"572 630 LINE",
"595 585 LINE",
"572 540 LINE",
"550 495 LINE",
"280 495 LINE",
"257 450 LINE",
"280 405 LINE",
"550 405 LINE",
"572 360 LINE",
"550 315 LINE",
"572 270 LINE",
"550 225 LINE",
"280 225 LINE",
"257 180 LINE",
"280 135 LINE",
"257 90 LINE",
"280 45 LINE",
"100 45 LINE",
"77 90 LINE",
"100 135 LINE",
"77 180 LINE",
"55 135 LINE",
"32 90 LINE",
"55 45 LINE",
"77 0 LINE",
"302 0 LINE",
"325 45 LINE",
"302 90 LINE",
"325 135 LINE",
"302 180 LINE",
"572 180 LINE",
"595 225 LINE",
"617 270 LINE",
"595 315 LINE",
"617 360 LINE",
"595 405 LINE",
"572 450 LINE",
"595 495 LINE",
"617 540 LINE",
"640 585 LINE",
"617 630 LINE",
"640 675 LINE",
"617 720 LINE"
);
},
{
closed = 1;
nodes = (
"55 225 LINE",
"32 180 LINE",
"77 180 LINE"
);
}
);
width = 646;
}
);
leftKerningGroup = I;
unicode = 0046;
userData = {
com.typemytype.robofont.guides = (
{
angle = 0;
isGlobal = 0;
magnetic = 5;
x = 0;
y = 320;
},
{
angle = 0;
isGlobal = 0;
magnetic = 5;
x = 0;
y = 691;
},
{
angle = 0;
isGlobal = 0;
magnetic = 5;
x = 0;
y = 649;
},
{
angle = 0;
isGlobal = 0;
magnetic = 5;
x = 0;
y = 362;
},
{
angle = 0;
isGlobal = 0;
magnetic = 5;
x = 0;
y = 9;
},
{
angle = 90;
isGlobal = 0;
magnetic = 5;
x = 761;
y = 0;
},
{
angle = 90;
isGlobal = 0;
magnetic = 5;
x = 94;
y = 0;
},
{
angle = 90;
isGlobal = 0;
magnetic = 5;
x = 487;
y = 0;
},
{
angle = 90;
isGlobal = 0;
magnetic = 5;
x = 139;
y = 0;
}
);
};
},
{
color = 1;
glyphname = G;
layers = (
{
hints = (
{
horizontal = 1;
place = "{-2147483648, 0}";
type = Tag;
name = hr01;
}
);
layerId = "EC64484B-0978-4CB1-9EE9-C40A2D8C4059";
paths = (
{
closed = 1;
nodes = (
"620 90 LINE",
"597 45 LINE",
"462 45 LINE",
"440 0 LINE",
"305 0 LINE",
"282 45 LINE",
"192 45 LINE",
"170 90 LINE",
"125 90 LINE",
"102 135 LINE",
"80 180 LINE",
"57 225 LINE",
"80 270 LINE",
"57 315 LINE",
"80 360 LINE",
"57 405 LINE",
"80 450 LINE",
"57 495 LINE",
"80 540 LINE",
"102 585 LINE",
"125 630 LINE",
"170 630 LINE",
"192 675 LINE",
"102 675 LINE",
"80 630 LINE",
"57 585 LINE",
"35 540 LINE",
"12 495 LINE",
"35 450 LINE",
"12 405 LINE",
"35 360 LINE",
"12 315 LINE",
"35 270 LINE",
"12 225 LINE",
"35 180 LINE",
"57 135 LINE",
"80 90 LINE",
"102 45 LINE",
"147 45 LINE",
"170 0 LINE",
"260 0 LINE",
"282 -45 LINE",
"462 -45 LINE",
"485 0 LINE",
"620 0 LINE",
"642 45 LINE",
"665 90 LINE",
"687 135 LINE",
"710 180 LINE",
"732 225 LINE",
"687 225 LINE",
"665 180 LINE",
"642 135 LINE"
);
},
{
closed = 1;
nodes = (
"710 450 LINE",
"732 495 LINE",
"710 540 LINE",
"687 585 LINE",
"665 630 LINE",
"642 675 LINE",
"552 675 LINE",
"575 630 LINE",
"620 630 LINE",
"642 585 LINE",
"665 540 LINE",
"687 495 LINE",
"462 495 LINE",
"440 540 LINE",
"305 540 LINE",
"282 495 LINE",
"260 450 LINE",
"282 405 LINE",
"260 360 LINE",
"282 315 LINE",
"260 270 LINE",
"282 225 LINE",
"305 180 LINE",
"440 180 LINE",
"462 225 LINE",
"440 270 LINE",
"395 270 LINE",
"417 315 LINE",
"395 360 LINE",
"417 405 LINE",
"687 405 LINE",
"710 360 LINE",
"687 315 LINE",
"710 270 LINE",
"732 225 LINE",
"755 270 LINE",
"732 315 LINE",
"755 360 LINE",
"732 405 LINE"
);
},
{
closed = 1;
nodes = (
"350 360 LINE",
"372 315 LINE",
"350 270 LINE",
"372 225 LINE",
"327 225 LINE",
"305 270 LINE",
"327 315 LINE",
"305 360 LINE",
"327 405 LINE",
"305 450 LINE",
"327 495 LINE",
"417 495 LINE",
"440 450 LINE",
"395 450 LINE",
"372 405 LINE"
);
}
);
width = 753;
}
);
leftKerningGroup = O;
rightKerningGroup = G;
unicode = 0047;
userData = {
com.typemytype.robofont.guides = (
{
angle = 0;
isGlobal = 0;
magnetic = 5;
x = 0;
y = "-10";
},
{
angle = 0;
isGlobal = 0;
magnetic = 5;
x = 0;
y = 260;
},
{
angle = 0;
isGlobal = 0;
magnetic = 5;
x = 0;
y = 440;
},
{
angle = 90;
isGlobal = 0;
magnetic = 5;
x = 334;
y = 0;
},
{
angle = 90;
isGlobal = 0;
magnetic = 5;
x = 133;
y = 0;
},
{
angle = 90;
isGlobal = 0;
magnetic = 5;
x = 604;
y = 0;
},
{
angle = 90;
isGlobal = 0;
magnetic = 5;
x = 67;
y = 0;
}
);
};
},
{
color = 1;
glyphname = H;
layers = (
{
layerId = "EC64484B-0978-4CB1-9EE9-C40A2D8C4059";
paths = (
{
closed = 1;
nodes = (
"505 45 LINE",
"482 90 LINE",
"505 135 LINE",
"482 180 LINE",
"505 225 LINE",
"482 270 LINE",
"302 270 LINE",
"280 225 LINE",
"302 180 LINE",
"280 135 LINE",
"302 90 LINE",
"280 45 LINE",
"100 45 LINE",
"77 90 LINE",
"100 135 LINE",
"77 180 LINE",
"100 225 LINE",
"77 270 LINE",
"100 315 LINE",
"77 360 LINE",
"100 405 LINE",
"77 450 LINE",
"100 495 LINE",
"77 540 LINE",
"100 585 LINE",
"77 630 LINE",
"100 675 LINE",
"280 675 LINE",
"302 630 LINE",
"347 630 LINE",
"325 675 LINE",
"302 720 LINE",
"77 720 LINE",
"55 675 LINE",
"32 630 LINE",
"55 585 LINE",
"32 540 LINE",
"55 495 LINE",
"32 450 LINE",
"55 405 LINE",
"32 360 LINE",
"55 315 LINE",
"32 270 LINE",
"55 225 LINE",
"32 180 LINE",
"55 135 LINE",
"32 90 LINE",
"55 45 LINE",
"77 0 LINE",
"302 0 LINE",
"325 45 LINE",
"347 90 LINE",
"325 135 LINE",
"347 180 LINE",
"325 225 LINE",
"460 225 LINE",
"437 180 LINE",
"460 135 LINE",
"437 90 LINE",
"460 45 LINE",
"482 0 LINE",
"707 0 LINE",
"730 45 LINE",
"707 90 LINE",
"685 45 LINE"
);
},
{
closed = 1;
nodes = (
"302 450 LINE",
"482 450 LINE",
"505 495 LINE",
"482 540 LINE",
"505 585 LINE",
"482 630 LINE",
"505 675 LINE",
"685 675 LINE",
"707 630 LINE",
"752 630 LINE",
"730 675 LINE",
"707 720 LINE",
"482 720 LINE",
"460 675 LINE",
"437 630 LINE",
"460 585 LINE",
"437 540 LINE",
"460 495 LINE",
"325 495 LINE",
"347 540 LINE",
"325 585 LINE",
"302 630 LINE",
"280 585 LINE",
"302 540 LINE",
"280 495 LINE"
);
},
{
closed = 1;
nodes = (
"685 585 LINE",
"707 540 LINE",
"752 540 LINE",
"730 585 LINE",
"707 630 LINE"
);
},
{
closed = 1;
nodes = (
"730 495 LINE",
"707 540 LINE",
"685 495 LINE",
"707 450 LINE",
"752 450 LINE"
);
},
{
closed = 1;
nodes = (
"730 405 LINE",
"707 450 LINE",
"685 405 LINE",
"707 360 LINE",
"752 360 LINE"
);
},
{
closed = 1;
nodes = (
"707 360 LINE",
"685 315 LINE",
"707 270 LINE",
"730 315 LINE"
);
},
{
closed = 1;
nodes = (
"730 225 LINE",
"707 270 LINE",
"685 225 LINE",
"707 180 LINE",
"752 180 LINE"
);
},
{
closed = 1;
nodes = (
"730 135 LINE",
"707 180 LINE",
"685 135 LINE",
"707 90 LINE",
"752 90 LINE"
);
}
);
width = 772;
}
);
leftKerningGroup = I;
rightKerningGroup = I;
unicode = 0048;
userData = {
com.typemytype.robofont.guides = (
{
angle = 0;
isGlobal = 0;
magnetic = 5;
x = 0;
y = 350;
},
{
angle = 0;
isGlobal = 0;
magnetic = 5;
x = 0;
y = 9;
},
{
angle = 0;
isGlobal = 0;
magnetic = 5;
x = 0;
y = 691;
},
{
angle = 90;
isGlobal = 0;
magnetic = 5;
x = 94;
y = 0;
},
{
angle = 90;
isGlobal = 0;
magnetic = 5;
x = 139;
y = 0;
},
{
angle = 90;
isGlobal = 0;
magnetic = 5;
x = 543;
y = 0;
},
{
angle = 90;
isGlobal = 0;
magnetic = 5;
x = 588;
y = 0;
}
);
};
},
{
color = 1;
glyphname = Hbar;
layers = (
{
components = (
{
name = H;
}
);
hints = (
{
horizontal = 1;
place = "{-2147483648, 0}";
type = Tag;
name = hr00;
}
);
layerId = "EC64484B-0978-4CB1-9EE9-C40A2D8C4059";
paths = (
{
closed = 1;
nodes = (
"99 540 LINE",
"77 585 LINE",
"99 630 LINE",
"729 630 LINE",
"707 675 LINE",
"77 675 LINE",
"54 630 LINE",
"32 585 LINE",
"54 540 LINE",
"77 495 LINE",
"707 495 LINE",
"729 540 LINE"
);
},
{
closed = 1;
nodes = (
"729 540 LINE",
"752 585 LINE",
"729 630 LINE",
"707 585 LINE"
);
}
);
width = 772;
}
);
leftKerningGroup = I;
rightKerningGroup = I;
unicode = 0126;
},
{
color = 1;
glyphname = I;
layers = (
{
anchors = (
{
name = bottom;
position = "{184, 0}";
},
{
name = ogonek;
position = "{331, 10}";
},
{
name = top;
position = "{184, 700}";
},
{
name = topleft;
position = "{20, 700}";
}
);
layerId = "EC64484B-0978-4CB1-9EE9-C40A2D8C4059";
paths = (
{
closed = 1;
nodes = (
"280 675 LINE",
"302 630 LINE",
"347 630 LINE",
"325 675 LINE",
"302 720 LINE",
"122 720 LINE",
"100 675 LINE"
);
},
{
closed = 1;
nodes = (
"100 45 LINE",
"77 90 LINE",
"100 135 LINE",
"77 180 LINE",
"100 225 LINE",
"77 270 LINE",
"100 315 LINE",
"77 360 LINE",
"100 405 LINE",
"77 450 LINE",
"100 495 LINE",
"77 540 LINE",
"100 585 LINE",
"77 630 LINE",
"100 675 LINE",
"55 675 LINE",
"32 630 LINE",
"55 585 LINE",
"32 540 LINE",
"55 495 LINE",
"32 450 LINE",
"55 405 LINE",
"32 360 LINE",
"55 315 LINE",
"32 270 LINE",
"55 225 LINE",
"32 180 LINE",
"55 135 LINE",
"32 90 LINE",
"55 45 LINE",
"77 0 LINE",
"302 0 LINE",
"325 45 LINE",
"302 90 LINE",
"280 45 LINE"
);
},
{
closed = 1;
nodes = (
"280 585 LINE",
"302 540 LINE",
"347 540 LINE",
"325 585 LINE",
"302 630 LINE"
);
},
{
closed = 1;
nodes = (
"325 495 LINE",
"302 540 LINE",
"280 495 LINE",
"302 450 LINE",
"347 450 LINE"
);
},
{
closed = 1;
nodes = (
"325 405 LINE",
"302 450 LINE",
"280 405 LINE",
"302 360 LINE",
"347 360 LINE"
);
},
{
closed = 1;
nodes = (
"325 315 LINE",
"302 360 LINE",
"280 315 LINE",
"302 270 LINE",
"347 270 LINE"
);
},
{
closed = 1;
nodes = (
"325 225 LINE",
"302 270 LINE",
"280 225 LINE",
"302 180 LINE",
"347 180 LINE"
);
},
{
closed = 1;
nodes = (
"325 135 LINE",
"302 180 LINE",
"280 135 LINE",
"302 90 LINE",
"347 90 LINE"
);
}
);
width = 368;
}
);
leftKerningGroup = I;
rightKerningGroup = I;
unicode = 0049;
userData = {
com.typemytype.robofont.guides = (
{
angle = 90;
isGlobal = 0;
magnetic = 5;
x = 85;
y = 0;
},
{
angle = 90;
isGlobal = 0;
magnetic = 5;
x = 148;
y = 0;
}
);
};
},
{
color = 1;
glyphname = IJ;
layers = (
{
hints = (
{
horizontal = 1;
place = "{-2147483648, 0}";
type = Tag;
name = hr01;
}
);
layerId = "EC64484B-0978-4CB1-9EE9-C40A2D8C4059";
paths = (
{
closed = 1;
nodes = (
"77 45 LINE",
"100 90 LINE",
"77 135 LINE",
"100 180 LINE",
"77 225 LINE",
"100 270 LINE",
"77 315 LINE",
"100 360 LINE",
"77 405 LINE",
"100 450 LINE",
"77 495 LINE",
"100 540 LINE",
"77 585 LINE",
"100 630 LINE",
"77 675 LINE",
"32 675 LINE",
"55 630 LINE",
"32 585 LINE",
"55 540 LINE",
"32 495 LINE",
"55 450 LINE",
"32 405 LINE",
"55 360 LINE",
"32 315 LINE",
"55 270 LINE",
"32 225 LINE",
"55 180 LINE",
"32 135 LINE",
"55 90 LINE",
"32 45 LINE",
"55 0 LINE",
"235 0 LINE",
"257 45 LINE"
);
},
{
closed = 1;
nodes = (
"302 585 LINE",
"280 540 LINE",
"302 495 LINE",
"280 450 LINE",
"302 405 LINE",
"280 360 LINE",
"302 315 LINE",
"280 270 LINE",
"302 225 LINE",
"280 180 LINE",
"302 135 LINE",
"280 90 LINE",
"302 45 LINE",
"257 45 LINE",
"280 0 LINE",
"325 0 LINE",
"347 45 LINE",
"325 90 LINE",
"347 135 LINE",
"325 180 LINE",
"347 225 LINE",
"325 270 LINE",
"347 315 LINE",
"325 360 LINE",
"347 405 LINE",
"325 450 LINE",
"347 495 LINE",
"325 540 LINE",
"347 585 LINE",
"325 630 LINE",
"347 675 LINE",
"302 675 LINE",
"280 630 LINE"
);
},
{
closed = 1;
nodes = (
"662 45 LINE",
"572 45 LINE",
"550 0 LINE",
"415 0 LINE",
"437 45 LINE",
"415 90 LINE",
"437 135 LINE",
"415 180 LINE",
"460 180 LINE",
"482 225 LINE",
"505 270 LINE",
"527 315 LINE",
"505 360 LINE",
"527 405 LINE",
"505 450 LINE",
"527 495 LINE",
"505 540 LINE",
"527 585 LINE",
"505 630 LINE",
"527 675 LINE",
"482 675 LINE",
"460 630 LINE",
"482 585 LINE",
"460 540 LINE",
"482 495 LINE",
"460 450 LINE",
"482 405 LINE",
"460 360 LINE",
"482 315 LINE",
"460 270 LINE",
"437 225 LINE",
"392 225 LINE",
"370 180 LINE",
"392 135 LINE",
"370 90 LINE",
"392 45 LINE",
"370 0 LINE",
"392 -45 LINE",
"572 -45 LINE",
"595 0 LINE",
"685 0 LINE",
"707 45 LINE",
"730 90 LINE",
"752 135 LINE",
"775 180 LINE",
"752 225 LINE",
"730 180 LINE",
"707 135 LINE",
"685 90 LINE"
);
},
{
closed = 1;
nodes = (
"730 630 LINE",
"752 585 LINE",
"797 585 LINE",
"775 630 LINE",
"752 675 LINE"
);
},
{
closed = 1;
nodes = (
"730 540 LINE",
"752 495 LINE",
"797 495 LINE",
"775 540 LINE",
"752 585 LINE"
);
},
{
closed = 1;
nodes = (
"775 450 LINE",
"752 495 LINE",
"730 450 LINE",
"752 405 LINE",
"797 405 LINE"
);
},
{
closed = 1;
nodes = (
"775 360 LINE",
"752 405 LINE",
"730 360 LINE",
"752 315 LINE",
"797 315 LINE"
);
},
{
closed = 1;
nodes = (
"775 270 LINE",
"752 315 LINE",
"730 270 LINE",
"752 225 LINE",
"797 225 LINE"
);
}
);
width = 807;
}
);
leftKerningGroup = I;
unicode = 0132;
userData = {
com.typemytype.robofont.guides = (
{
angle = 90;
isGlobal = 0;
magnetic = 5;
x = 642;
y = 0;
}
);
};
},
{
color = 1;
glyphname = Iogonek;
layers = (
{
hints = (
{
horizontal = 1;
place = "{-2147483648, 0}";
type = Tag;
name = hr01;
}
);
layerId = "EC64484B-0978-4CB1-9EE9-C40A2D8C4059";
paths = (
{
closed = 1;
nodes = (
"167 -135 LINE",
"122 -135 LINE",
"145 -90 LINE",
"122 -45 LINE",
"145 0 LINE",
"122 45 LINE",
"77 45 LINE",
"100 90 LINE",
"77 135 LINE",
"100 180 LINE",
"77 225 LINE",
"100 270 LINE",
"77 315 LINE",
"100 360 LINE",
"77 405 LINE",
"100 450 LINE",
"77 495 LINE",
"100 540 LINE",
"77 585 LINE",
"100 630 LINE",
"77 675 LINE",
"347 675 LINE",
"325 720 LINE",
"55 720 LINE",
"32 675 LINE",
"55 630 LINE",
"32 585 LINE",
"55 540 LINE",
"32 495 LINE",
"55 450 LINE",
"32 405 LINE",
"55 360 LINE",
"32 315 LINE",
"55 270 LINE",
"32 225 LINE",
"55 180 LINE",
"32 135 LINE",
"55 90 LINE",
"32 45 LINE",
"55 0 LINE",
"100 0 LINE",
"77 -45 LINE",
"100 -90 LINE",
"77 -135 LINE",
"100 -180 LINE",
"145 -180 LINE",
"167 -225 LINE",
"302 -225 LINE",
"325 -180 LINE",
"302 -135 LINE",
"280 -180 LINE",
"190 -180 LINE"
);
},
{
closed = 1;
nodes = (
"280 630 LINE",
"302 585 LINE",
"347 585 LINE",
"325 630 LINE",
"302 675 LINE"
);
},
{
closed = 1;
nodes = (
"325 540 LINE",
"302 585 LINE",
"280 540 LINE",
"302 495 LINE",
"347 495 LINE"
);
},
{
closed = 1;
nodes = (
"325 450 LINE",
"302 495 LINE",
"280 450 LINE",
"302 405 LINE",
"347 405 LINE"
);
},
{
closed = 1;
nodes = (
"325 360 LINE",
"302 405 LINE",
"280 360 LINE",
"302 315 LINE",
"347 315 LINE"
);
},
{
closed = 1;
nodes = (
"280 270 LINE",
"325 270 LINE",
"302 315 LINE"
);
},
{
closed = 1;
nodes = (
"302 225 LINE",
"347 225 LINE",
"325 270 LINE"
);
},
{
closed = 1;
nodes = (
"325 180 LINE",
"302 225 LINE",
"280 180 LINE",
"302 135 LINE",
"347 135 LINE"
);
},
{
closed = 1;
nodes = (
"325 90 LINE",
"302 135 LINE",
"280 90 LINE",
"302 45 LINE",
"347 45 LINE"
);
},
{
closed = 1;
nodes = (
"235 -90 LINE",
"257 -135 LINE",
"347 -135 LINE",
"325 -90 LINE",
"280 -90 LINE",
"257 -45 LINE",
"280 0 LINE",
"325 0 LINE",
"302 45 LINE",
"257 45 LINE",
"235 0 LINE",
"212 -45 LINE"
);
}
);
width = 368;
}
);
leftKerningGroup = I;
rightKerningGroup = I;
unicode = 012E;
userData = {
com.typemytype.robofont.guides = (
{
angle = 90;
isGlobal = 0;
magnetic = 5;
x = 110;
y = 0;
}
);
};
},
{
color = 1;
glyphname = J;
layers = (
{
hints = (
{
horizontal = 1;
place = "{-2147483648, 0}";
type = Tag;
name = hr00;
}
);
layerId = "EC64484B-0978-4CB1-9EE9-C40A2D8C4059";
paths = (
{
closed = 1;
nodes = (
"415 0 LINE",
"235 0 LINE",
"212 45 LINE",
"122 45 LINE",
"100 90 LINE",
"77 135 LINE",
"55 180 LINE",
"32 225 LINE",
"257 225 LINE",
"280 180 LINE",
"370 180 LINE",
"392 225 LINE",
"415 270 LINE",
"437 315 LINE",
"415 360 LINE",
"437 405 LINE",
"415 450 LINE",
"437 495 LINE",
"415 540 LINE",
"100 540 LINE",
"77 585 LINE",
"100 630 LINE",
"77 675 LINE",
"32 675 LINE",
"55 630 LINE",
"32 585 LINE",
"55 540 LINE",
"77 495 LINE",
"392 495 LINE",
"370 450 LINE",
"392 405 LINE",
"370 360 LINE",
"392 315 LINE",
"370 270 LINE",
"347 225 LINE",
"302 225 LINE",
"280 270 LINE",
"10 270 LINE",
"-13 225 LINE",
"10 180 LINE",
"32 135 LINE",
"55 90 LINE",
"77 45 LINE",
"100 0 LINE",
"190 0 LINE",
"212 -45 LINE",
"437 -45 LINE",
"460 0 LINE",
"550 0 LINE",
"572 45 LINE",
"437 45 LINE"
);
},
{
closed = 1;
nodes = (
"662 675 LINE",
"617 675 LINE",
"640 630 LINE",
"617 585 LINE",
"640 540 LINE",
"617 495 LINE",
"640 450 LINE",
"617 405 LINE",
"640 360 LINE",
"617 315 LINE",
"640 270 LINE",
"617 225 LINE",
"640 180 LINE",
"617 135 LINE",
"595 90 LINE",
"550 90 LINE",
"572 45 LINE",
"617 45 LINE",
"640 90 LINE",
"662 135 LINE",
"685 180 LINE",
"662 225 LINE",
"685 270 LINE",
"662 315 LINE",
"685 360 LINE",
"662 405 LINE",
"685 450 LINE",
"662 495 LINE",
"685 540 LINE",
"662 585 LINE",
"685 630 LINE"
);
}
);
width = 702;
}
);
leftKerningGroup = J;
rightKerningGroup = U;
unicode = 004A;
userData = {
com.typemytype.robofont.guides = (
{
angle = 0;
isGlobal = 0;
magnetic = 5;
x = 0;
y = "-10";
},
{
angle = 0;
isGlobal = 0;
magnetic = 5;
x = 0;
y = 133;
},
{
angle = 0;
isGlobal = 0;
magnetic = 5;
x = 0;
y = 677;
},
{
angle = 90;
isGlobal = 0;
magnetic = 5;
x = 303;
y = 0;
},
{
angle = 90;
isGlobal = 0;
magnetic = 5;
x = 60;
y = 0;
},
{
angle = 90;
isGlobal = 0;
magnetic = 5;
x = 91;
y = 0;
}
);
};
},
{
color = 1;
glyphname = K;
layers = (
{
layerId = "EC64484B-0978-4CB1-9EE9-C40A2D8C4059";
paths = (
{
closed = 1;
nodes = (
"640 225 LINE",
"617 270 LINE",
"572 270 LINE",
"550 315 LINE",
"527 360 LINE",
"550 405 LINE",
"572 450 LINE",
"595 495 LINE",
"640 495 LINE",
"662 540 LINE",
"685 585 LINE",
"707 630 LINE",
"730 675 LINE",
"707 720 LINE",
"392 720 LINE",
"370 675 LINE",
"347 630 LINE",
"325 585 LINE",
"302 630 LINE",
"325 675 LINE",
"302 720 LINE",
"77 720 LINE",
"55 675 LINE",
"32 630 LINE",
"55 585 LINE",
"32 540 LINE",
"55 495 LINE",
"32 450 LINE",
"55 405 LINE",
"32 360 LINE",
"55 315 LINE",
"32 270 LINE",
"55 225 LINE",
"32 180 LINE",
"55 135 LINE",
"32 90 LINE",
"55 45 LINE",
"77 0 LINE",
"302 0 LINE",
"325 45 LINE",
"302 90 LINE",
"325 135 LINE",
"347 90 LINE",
"370 45 LINE",
"392 0 LINE",
"707 0 LINE",
"730 45 LINE",
"707 90 LINE",
"685 135 LINE",
"662 180 LINE"
);
},
{
closed = 1;
nodes = (
"415 45 LINE",
"392 90 LINE",
"370 135 LINE",
"347 180 LINE",
"325 225 LINE",
"280 225 LINE",
"257 180 LINE",
"280 135 LINE",
"257 90 LINE",
"280 45 LINE",
"100 45 LINE",
"77 90 LINE",
"100 135 LINE",
"77 180 LINE",
"100 225 LINE",
"77 270 LINE",
"100 315 LINE",
"77 360 LINE",
"100 405 LINE",
"77 450 LINE",
"100 495 LINE",
"77 540 LINE",
"100 585 LINE",
"77 630 LINE",
"100 675 LINE",
"280 675 LINE",
"257 630 LINE",
"280 585 LINE",
"257 540 LINE",
"280 495 LINE",
"325 495 LINE",
"347 540 LINE",
"370 585 LINE",
"392 630 LINE",
"415 675 LINE",
"685 675 LINE",
"662 630 LINE",
"640 585 LINE",
"617 540 LINE",
"572 540 LINE",
"550 495 LINE",
"527 450 LINE",
"505 405 LINE",
"482 360 LINE",
"505 315 LINE",
"527 270 LINE",
"550 225 LINE",
"595 225 LINE",
"617 180 LINE",
"640 135 LINE",
"662 90 LINE",
"685 45 LINE"
);
}
);
width = 715;
}
);
leftKerningGroup = I;
rightKerningGroup = K;
unicode = 004B;
userData = {
com.typemytype.robofont.guides = (
{
angle = 0;
isGlobal = 0;
magnetic = 5;
x = 0;
y = 365;
},
{
angle = 90;
isGlobal = 0;
magnetic = 5;
x = 547;
y = 0;
},
{
angle = 90;
isGlobal = 0;
magnetic = 5;
x = 94;
y = 0;
},
{
angle = 90;
isGlobal = 0;
magnetic = 5;
x = 139;
y = 0;
}
);
};
},
{
color = 1;
glyphname = L;
layers = (
{
anchors = (
{
name = bottom;
position = "{313, 0}";
},
{
name = center;
position = "{313, 350}";
},
{
name = top;
position = "{173, 700}";
},
{
name = topright;
position = "{606, 700}";
}
);
layerId = "EC64484B-0978-4CB1-9EE9-C40A2D8C4059";
paths = (
{
closed = 1;
nodes = (
"100 45 LINE",
"77 90 LINE",
"100 135 LINE",
"77 180 LINE",
"100 225 LINE",
"77 270 LINE",
"100 315 LINE",
"77 360 LINE",
"100 405 LINE",
"77 450 LINE",
"100 495 LINE",
"77 540 LINE",
"100 585 LINE",
"77 630 LINE",
"100 675 LINE",
"280 675 LINE",
"302 630 LINE",
"280 585 LINE",
"325 585 LINE",
"347 630 LINE",
"325 675 LINE",
"302 720 LINE",
"77 720 LINE",
"55 675 LINE",
"32 630 LINE",
"55 585 LINE",
"32 540 LINE",
"55 495 LINE",
"32 450 LINE",
"55 405 LINE",
"32 360 LINE",
"55 315 LINE",
"32 270 LINE",
"55 225 LINE",
"32 180 LINE",
"55 135 LINE",
"32 90 LINE",
"55 45 LINE",
"77 0 LINE",
"572 0 LINE",
"595 45 LINE"
);
},
{
closed = 1;
nodes = (
"595 225 LINE",
"325 225 LINE",
"347 270 LINE",
"325 315 LINE",
"347 360 LINE",
"325 405 LINE",
"347 450 LINE",
"325 495 LINE",
"347 540 LINE",
"325 585 LINE",
"302 540 LINE",
"280 495 LINE",
"302 450 LINE",
"280 405 LINE",
"302 360 LINE",
"280 315 LINE",
"302 270 LINE",
"280 225 LINE",
"302 180 LINE",
"572 180 LINE",
"595 135 LINE",
"572 90 LINE",
"595 45 LINE",
"640 45 LINE",
"617 90 LINE",
"640 135 LINE",
"617 180 LINE"
);
}
);
width = 626;
}
);
leftKerningGroup = I;
rightKerningGroup = L;
unicode = 004C;
},
{
color = 1;
glyphname = Lslash;
layers = (
{
hints = (
{
horizontal = 1;
place = "{-2147483648, 0}";
type = Tag;
name = hr00;
}
);
layerId = "EC64484B-0978-4CB1-9EE9-C40A2D8C4059";
paths = (
{
closed = 1;
nodes = (
"103 45 LINE",
"80 90 LINE",
"103 135 LINE",
"80 180 LINE",
"58 225 LINE",
"35 270 LINE",
"58 315 LINE",
"35 360 LINE",
"80 360 LINE",
"103 405 LINE",
"80 450 LINE",
"103 495 LINE",
"80 540 LINE",
"103 585 LINE",
"80 630 LINE",
"103 675 LINE",
"283 675 LINE",
"305 630 LINE",
"283 585 LINE",
"305 540 LINE",
"283 495 LINE",
"305 450 LINE",
"350 450 LINE",
"373 495 LINE",
"463 495 LINE",
"485 450 LINE",
"463 405 LINE",
"418 405 LINE",
"395 360 LINE",
"305 360 LINE",
"283 315 LINE",
"305 270 LINE",
"283 225 LINE",
"305 180 LINE",
"665 180 LINE",
"643 225 LINE",
"328 225 LINE",
"350 270 LINE",
"328 315 LINE",
"418 315 LINE",
"440 360 LINE",
"485 360 LINE",
"508 405 LINE",
"530 450 LINE",
"508 495 LINE",
"485 540 LINE",
"350 540 LINE",
"328 585 LINE",
"350 630 LINE",
"328 675 LINE",
"305 720 LINE",
"80 720 LINE",
"58 675 LINE",
"35 630 LINE",
"58 585 LINE",
"35 540 LINE",
"58 495 LINE",
"35 450 LINE",
"58 405 LINE",
"13 405 LINE",
"-10 360 LINE",
"13 315 LINE",
"-10 270 LINE",
"13 225 LINE",
"35 180 LINE",
"58 135 LINE",
"35 90 LINE",
"58 45 LINE",
"80 0 LINE",
"620 0 LINE",
"643 45 LINE",
"620 90 LINE",
"598 45 LINE"
);
},
{
closed = 1;
nodes = (
"598 135 LINE",
"620 90 LINE",
"665 90 LINE",
"643 135 LINE",
"620 180 LINE"
);
}
);
width = 634;
}
);
leftKerningGroup = I;
rightKerningGroup = L;
unicode = 0141;
userData = {
com.typemytype.robofont.guides = (
{
angle = 0;
isGlobal = 0;
magnetic = 5;
x = 0;
y = 215;
},
{
angle = 0;
isGlobal = 0;
magnetic = 5;
x = 0;
y = 548;
},
{
angle = 0;
isGlobal = 0;
magnetic = 5;
x = 0;
y = 438;
},
{
angle = 0;
isGlobal = 0;
magnetic = 5;
x = 0;
y = 267;
},
{
angle = 0;
isGlobal = 0;
magnetic = 5;
x = 0;
y = 353;
},
{
angle = 90;
isGlobal = 0;
magnetic = 5;
x = 129;
y = 0;
},
{
angle = 90;
isGlobal = 0;
magnetic = 5;
x = 325;
y = 0;
},
{
angle = 90;
isGlobal = 0;
magnetic = 5;
x = "-5";
y = 0;
}
);
};
},
{
color = 1;
glyphname = M;
layers = (
{
hints = (
{
horizontal = 1;
place = "{-2147483648, 0}";
type = Tag;
name = hr00;
}
);
layerId = "EC64484B-0978-4CB1-9EE9-C40A2D8C4059";
paths = (
{
closed = 1;
nodes = (
"55 675 LINE",
"100 675 LINE",
"122 720 LINE",
"77 720 LINE"
);
},
{
closed = 1;
nodes = (
"280 675 LINE",
"302 630 LINE",
"325 585 LINE",
"347 540 LINE",
"370 495 LINE",
"392 450 LINE",
"415 405 LINE",
"460 405 LINE",
"482 450 LINE",
"505 495 LINE",
"527 540 LINE",
"550 585 LINE",
"572 630 LINE",
"595 675 LINE",
"775 675 LINE",
"797 630 LINE",
"842 630 LINE",
"820 675 LINE",
"797 720 LINE",
"572 720 LINE",
"550 675 LINE",
"527 630 LINE",
"505 585 LINE",
"482 540 LINE",
"460 495 LINE",
"437 450 LINE",
"415 495 LINE",
"392 540 LINE",
"370 585 LINE",
"347 630 LINE",
"325 675 LINE",
"302 720 LINE",
"122 720 LINE",
"145 675 LINE"
);
},
{
closed = 1;
nodes = (
"595 45 LINE",
"572 90 LINE",
"595 135 LINE",
"572 180 LINE",
"595 225 LINE",
"572 270 LINE",
"527 270 LINE",
"505 225 LINE",
"482 180 LINE",
"392 180 LINE",
"370 225 LINE",
"347 270 LINE",
"325 315 LINE",
"280 315 LINE",
"257 270 LINE",
"280 225 LINE",
"257 180 LINE",
"280 135 LINE",
"257 90 LINE",
"280 45 LINE",
"100 45 LINE",
"77 90 LINE",
"100 135 LINE",
"77 180 LINE",
"100 225 LINE",
"77 270 LINE",
"100 315 LINE",
"77 360 LINE",
"100 405 LINE",
"77 450 LINE",
"100 495 LINE",
"77 540 LINE",
"100 585 LINE",
"77 630 LINE",
"55 675 LINE",
"32 630 LINE",
"55 585 LINE",
"32 540 LINE",
"55 495 LINE",
"32 450 LINE",
"55 405 LINE",
"32 360 LINE",
"55 315 LINE",
"32 270 LINE",
"55 225 LINE",
"32 180 LINE",
"55 135 LINE",
"32 90 LINE",
"55 45 LINE",
"77 0 LINE",
"302 0 LINE",
"325 45 LINE",
"302 90 LINE",
"325 135 LINE",
"302 180 LINE",
"325 225 LINE",
"347 180 LINE",
"370 135 LINE",
"505 135 LINE",
"527 180 LINE",
"550 135 LINE",
"527 90 LINE",
"550 45 LINE",
"572 0 LINE",
"797 0 LINE",
"820 45 LINE",
"797 90 LINE",
"775 45 LINE"
);
},
{
closed = 1;
nodes = (
"775 585 LINE",
"797 540 LINE",
"842 540 LINE",
"820 585 LINE",
"797 630 LINE"
);
},
{
closed = 1;
nodes = (
"820 495 LINE",
"797 540 LINE",
"775 495 LINE",
"797 450 LINE",
"842 450 LINE"
);
},
{
closed = 1;
nodes = (
"820 405 LINE",
"797 450 LINE",
"775 405 LINE",
"797 360 LINE",
"842 360 LINE"
);
},
{
closed = 1;
nodes = (
"820 315 LINE",
"797 360 LINE",
"775 315 LINE",
"797 270 LINE",
"842 270 LINE"
);
},
{
closed = 1;
nodes = (
"820 225 LINE",
"797 270 LINE",
"775 225 LINE",
"797 180 LINE",
"842 180 LINE"
);
},
{
closed = 1;
nodes = (
"820 135 LINE",
"797 180 LINE",
"775 135 LINE",
"797 90 LINE",
"842 90 LINE"
);
}
);
width = 856;
}
);
leftKerningGroup = I;
rightKerningGroup = I;
unicode = 004D;
userData = {
com.typemytype.robofont.guides = (
{
angle = 0;
isGlobal = 0;
magnetic = 5;
x = 0;
y = 168;
},
{
angle = 0;
isGlobal = 0;
magnetic = 5;
x = 0;
y = 9;
},
{
angle = 0;
isGlobal = 0;
magnetic = 5;
x = 0;
y = 691;
},
{
angle = 90;
isGlobal = 0;
magnetic = 5;
x = 126;
y = 0;
},
{
angle = 90;
isGlobal = 0;
magnetic = 5;
x = 636;
y = 0;
}
);
};
},
{
color = 1;
glyphname = N;
layers = (
{
anchors = (
{
name = bottom;
position = "{370, 0}";
},
{
name = top;
position = "{370, 700}";
}
);
layerId = "EC64484B-0978-4CB1-9EE9-C40A2D8C4059";
paths = (
{
closed = 1;
nodes = (
"280 675 LINE",
"302 630 LINE",
"325 585 LINE",
"347 540 LINE",
"370 495 LINE",
"392 450 LINE",
"415 405 LINE",
"460 405 LINE",
"482 450 LINE",
"460 495 LINE",
"482 540 LINE",
"460 585 LINE",
"482 630 LINE",
"460 675 LINE",
"595 675 LINE",
"572 720 LINE",
"437 720 LINE",
"415 675 LINE",
"437 630 LINE",
"415 585 LINE",
"437 540 LINE",
"415 495 LINE",
"392 540 LINE",
"370 585 LINE",
"347 630 LINE",
"325 675 LINE",
"302 720 LINE",
"77 720 LINE",
"55 675 LINE",
"32 630 LINE",
"55 585 LINE",
"77 630 LINE",
"100 675 LINE"
);
},
{
closed = 1;
nodes = (
"685 675 LINE",
"662 720 LINE",
"617 720 LINE",
"595 675 LINE",
"640 675 LINE",
"662 630 LINE",
"707 630 LINE"
);
},
{
closed = 1;
nodes = (
"460 45 LINE",
"437 90 LINE",
"415 135 LINE",
"392 180 LINE",
"370 225 LINE",
"347 270 LINE",
"302 270 LINE",
"280 225 LINE",
"257 180 LINE",
"280 135 LINE",
"257 90 LINE",
"280 45 LINE",
"100 45 LINE",
"77 90 LINE",
"100 135 LINE",
"77 180 LINE",
"100 225 LINE",
"77 270 LINE",
"100 315 LINE",
"77 360 LINE",
"100 405 LINE",
"77 450 LINE",
"100 495 LINE",
"77 540 LINE",
"100 585 LINE",
"55 585 LINE",
"32 540 LINE",
"55 495 LINE",
"32 450 LINE",
"55 405 LINE",
"32 360 LINE",
"55 315 LINE",
"32 270 LINE",
"55 225 LINE",
"32 180 LINE",
"55 135 LINE",
"32 90 LINE",
"55 45 LINE",
"77 0 LINE",
"302 0 LINE",
"325 45 LINE",
"302 90 LINE",
"325 135 LINE",
"302 180 LINE",
"325 225 LINE",
"347 180 LINE",
"370 135 LINE",
"392 90 LINE",
"415 45 LINE",
"437 0 LINE",
"707 0 LINE",
"685 45 LINE"
);
},
{
closed = 1;
nodes = (
"685 585 LINE",
"662 540 LINE",
"707 540 LINE"
);
},
{
closed = 1;
nodes = (
"685 495 LINE",
"662 450 LINE",
"707 450 LINE"
);
},
{
closed = 1;
nodes = (
"685 405 LINE",
"662 360 LINE",
"707 360 LINE"
);
},
{
closed = 1;
nodes = (
"685 315 LINE",
"662 270 LINE",
"707 270 LINE"
);
},
{
closed = 1;
nodes = (
"685 225 LINE",
"662 180 LINE",
"707 180 LINE"
);
},
{
closed = 1;
nodes = (
"685 135 LINE",
"662 90 LINE",
"707 90 LINE"
);
}
);
width = 740;
}
);
leftKerningGroup = I;
rightKerningGroup = I;
unicode = 004E;
userData = {
com.typemytype.robofont.guides = (
{
angle = 0;
isGlobal = 0;
magnetic = 5;
x = 0;
y = 9;
},
{
angle = 0;
isGlobal = 0;
magnetic = 5;
x = 0;
y = 691;
},
{
angle = 90;
isGlobal = 0;
magnetic = 5;
x = 540;
y = 0;
},
{
angle = 90;
isGlobal = 0;
magnetic = 5;
x = 125;
y = 0;
}
);
};
},
{
color = 1;
glyphname = Eng;
layers = (
{
hints = (
{
horizontal = 1;
place = "{-2147483648, 0}";
type = Tag;
name = hr00;
}
);
layerId = "EC64484B-0978-4CB1-9EE9-C40A2D8C4059";
paths = (
{
closed = 1;
nodes = (
"550 -180 LINE",
"325 -180 LINE",
"347 -135 LINE",
"325 -90 LINE",
"347 -45 LINE",
"437 -45 LINE",
"460 0 LINE",
"482 45 LINE",
"460 90 LINE",
"437 135 LINE",
"392 135 LINE",
"370 180 LINE",
"347 225 LINE",
"325 270 LINE",
"280 270 LINE",
"257 225 LINE",
"280 180 LINE",
"257 135 LINE",
"280 90 LINE",
"257 45 LINE",
"77 45 LINE",
"100 90 LINE",
"77 135 LINE",
"100 180 LINE",
"77 225 LINE",
"100 270 LINE",
"77 315 LINE",
"100 360 LINE",
"77 405 LINE",
"100 450 LINE",
"77 495 LINE",
"100 540 LINE",
"77 585 LINE",
"100 630 LINE",
"77 675 LINE",
"257 675 LINE",
"280 630 LINE",
"302 585 LINE",
"325 540 LINE",
"347 495 LINE",
"392 495 LINE",
"415 450 LINE",
"460 450 LINE",
"482 495 LINE",
"460 540 LINE",
"482 585 LINE",
"460 630 LINE",
"482 675 LINE",
"707 675 LINE",
"685 720 LINE",
"460 720 LINE",
"437 675 LINE",
"415 630 LINE",
"437 585 LINE",
"415 540 LINE",
"370 540 LINE",
"347 585 LINE",
"325 630 LINE",
"302 675 LINE",
"280 720 LINE",
"55 720 LINE",
"32 675 LINE",
"55 630 LINE",
"32 585 LINE",
"55 540 LINE",
"32 495 LINE",
"55 450 LINE",
"32 405 LINE",
"55 360 LINE",
"32 315 LINE",
"55 270 LINE",
"32 225 LINE",
"55 180 LINE",
"32 135 LINE",
"55 90 LINE",
"32 45 LINE",
"55 0 LINE",
"280 0 LINE",
"302 45 LINE",
"325 90 LINE",
"302 135 LINE",
"325 180 LINE",
"347 135 LINE",
"370 90 LINE",
"415 90 LINE",
"437 45 LINE",
"415 0 LINE",
"325 0 LINE",
"302 -45 LINE",
"280 -90 LINE",
"302 -135 LINE",
"280 -180 LINE",
"302 -225 LINE",
"572 -225 LINE",
"595 -180 LINE",
"640 -180 LINE",
"662 -135 LINE",
"685 -90 LINE",
"662 -45 LINE",
"640 -90 LINE",
"617 -135 LINE",
"572 -135 LINE"
);
},
{
closed = 1;
nodes = (
"685 630 LINE",
"662 585 LINE",
"707 585 LINE"
);
},
{
closed = 1;
nodes = (
"685 540 LINE",
"662 495 LINE",
"707 495 LINE"
);
},
{
closed = 1;
nodes = (
"685 450 LINE",
"662 405 LINE",
"707 405 LINE"
);
},
{
closed = 1;
nodes = (
"685 360 LINE",
"662 315 LINE",
"707 315 LINE"
);
},
{
closed = 1;
nodes = (
"685 270 LINE",
"662 225 LINE",
"707 225 LINE"
);
},
{
closed = 1;
nodes = (
"685 180 LINE",
"662 135 LINE",
"707 135 LINE"
);
},
{
closed = 1;
nodes = (
"707 45 LINE",
"685 90 LINE",
"662 45 LINE"
);
},
{
closed = 1;
nodes = (
"685 0 LINE",
"662 45 LINE",
"640 0 LINE",
"662 -45 LINE",
"707 -45 LINE"
);
}
);
width = 740;
}
);
leftKerningGroup = I;
rightKerningGroup = I;
unicode = 014A;
},
{
color = 1;
glyphname = O;
layers = (
{
anchors = (
{
name = bottom;
position = "{371, 0}";
},
{
name = center;
position = "{371, 350}";
},
{
name = ogonek;
position = "{668, 10}";
},
{
name = top;
position = "{371, 700}";
},
{
name = topleft;
position = "{20, 700}";
},
{
name = topright;
position = "{722, 700}";
}
);
layerId = "EC64484B-0978-4CB1-9EE9-C40A2D8C4059";
paths = (
{
closed = 1;
nodes = (
"80 180 LINE",
"57 225 LINE",
"80 270 LINE",
"57 315 LINE",
"80 360 LINE",
"57 405 LINE",
"80 450 LINE",
"57 495 LINE",
"80 540 LINE",
"102 585 LINE",
"125 630 LINE",
"215 630 LINE",
"237 675 LINE",
"102 675 LINE",
"80 630 LINE",
"57 585 LINE",
"35 540 LINE",
"12 495 LINE",
"35 450 LINE",
"12 405 LINE",
"35 360 LINE",
"12 315 LINE",
"35 270 LINE",
"12 225 LINE",
"35 180 LINE",
"57 135 LINE",
"80 90 LINE",
"102 45 LINE",
"147 45 LINE",
"170 90 LINE",
"125 90 LINE",
"102 135 LINE"
);
},
{
closed = 1;
nodes = (
"665 630 LINE",
"620 630 LINE",
"597 675 LINE",
"507 675 LINE",
"530 630 LINE",
"575 630 LINE",
"597 585 LINE",
"642 585 LINE",
"665 540 LINE",
"687 495 LINE",
"732 495 LINE",
"710 540 LINE",
"687 585 LINE"
);
},
{
closed = 1;
nodes = (
"440 180 LINE",
"462 225 LINE",
"485 270 LINE",
"462 315 LINE",
"485 360 LINE",
"462 405 LINE",
"485 450 LINE",
"462 495 LINE",
"440 540 LINE",
"305 540 LINE",
"282 495 LINE",
"260 450 LINE",
"282 405 LINE",
"260 360 LINE",
"282 315 LINE",
"260 270 LINE",
"282 225 LINE",
"305 180 LINE"
);
},
{
closed = 1;
nodes = (
"327 405 LINE",
"305 450 LINE",
"327 495 LINE",
"417 495 LINE",
"440 450 LINE",
"417 405 LINE",
"440 360 LINE",
"417 315 LINE",
"440 270 LINE",
"417 225 LINE",
"327 225 LINE",
"305 270 LINE",
"327 315 LINE",
"305 360 LINE"
);
},
{
closed = 1;
nodes = (
"665 450 LINE",
"687 405 LINE",
"732 405 LINE",
"710 450 LINE",
"687 495 LINE"
);
},
{
closed = 1;
nodes = (
"710 360 LINE",
"687 405 LINE",
"665 360 LINE",
"687 315 LINE",
"732 315 LINE"
);
},
{
closed = 1;
nodes = (
"710 270 LINE",
"687 315 LINE",
"665 270 LINE",
"687 225 LINE",
"732 225 LINE"
);
},
{
closed = 1;
nodes = (
"575 90 LINE",
"552 45 LINE",
"462 45 LINE",
"440 0 LINE",
"305 0 LINE",
"282 45 LINE",
"147 45 LINE",
"170 0 LINE",
"260 0 LINE",
"282 -45 LINE",
"462 -45 LINE",
"485 0 LINE",
"575 0 LINE",
"597 45 LINE",
"642 45 LINE",
"665 90 LINE",
"687 135 LINE",
"710 180 LINE",
"687 225 LINE",
"665 180 LINE",
"642 135 LINE",
"620 90 LINE"
);
}
);
width = 742;
}
);
leftKerningGroup = O;
rightKerningGroup = O;
unicode = 004F;
userData = {
com.typemytype.robofont.guides = (
{
angle = 0;
isGlobal = 0;
magnetic = 5;
x = 0;
y = "-10";
},
{
angle = 0;
isGlobal = 0;
magnetic = 5;
x = 0;
y = 710;
},
{
angle = 0;
isGlobal = 0;
magnetic = 5;
x = 0;
y = 335;
},
{
angle = 0;
isGlobal = 0;
magnetic = 5;
x = 0;
y = 434;
},
{
angle = 0;
isGlobal = 0;
magnetic = 5;
x = 0;
y = 266;
},
{
angle = 90;
isGlobal = 0;
magnetic = 5;
x = 496;
y = 0;
}
);
};
},
{
color = 1;
glyphname = Oslash;
layers = (
{
anchors = (
{
name = bottom;
position = "{390, 0}";
},
{
name = top;
position = "{390, 700}";
}
);
layerId = "EC64484B-0978-4CB1-9EE9-C40A2D8C4059";
paths = (
{
closed = 1;
nodes = (
"687 360 LINE",
"709 315 LINE",
"687 270 LINE",
"709 225 LINE",
"687 180 LINE",
"664 135 LINE",
"642 90 LINE",
"597 90 LINE",
"574 45 LINE",
"484 45 LINE",
"462 0 LINE",
"327 0 LINE",
"304 45 LINE",
"214 45 LINE",
"192 90 LINE",
"147 90 LINE",
"124 135 LINE",
"102 180 LINE",
"57 180 LINE",
"34 225 LINE",
"57 270 LINE",
"79 315 LINE",
"102 360 LINE",
"79 405 LINE",
"102 450 LINE",
"79 495 LINE",
"102 540 LINE",
"124 585 LINE",
"147 630 LINE",
"237 630 LINE",
"259 675 LINE",
"124 675 LINE",
"102 630 LINE",
"79 585 LINE",
"57 540 LINE",
"34 495 LINE",
"57 450 LINE",
"34 405 LINE",
"57 360 LINE",
"34 315 LINE",
"12 270 LINE",
"-11 225 LINE",
"12 180 LINE",
"34 135 LINE",
"79 135 LINE",
"102 90 LINE",
"124 45 LINE",
"169 45 LINE",
"192 0 LINE",
"282 0 LINE",
"304 -45 LINE",
"484 -45 LINE",
"507 0 LINE",
"597 0 LINE",
"619 45 LINE",
"664 45 LINE",
"687 90 LINE",
"709 135 LINE",
"732 180 LINE",
"754 225 LINE",
"732 270 LINE",
"754 315 LINE",
"732 360 LINE",
"754 405 LINE",
"777 450 LINE",
"754 495 LINE",
"732 450 LINE",
"709 405 LINE"
);
},
{
closed = 1;
nodes = (
"709 585 LINE",
"687 630 LINE",
"642 630 LINE",
"619 675 LINE",
"529 675 LINE",
"552 630 LINE",
"597 630 LINE",
"619 585 LINE",
"664 585 LINE",
"687 540 LINE",
"732 540 LINE",
"754 495 LINE",
"799 495 LINE",
"777 540 LINE",
"754 585 LINE"
);
},
{
closed = 1;
nodes = (
"439 405 LINE",
"462 450 LINE",
"484 495 LINE",
"462 540 LINE",
"327 540 LINE",
"304 495 LINE",
"282 450 LINE",
"304 405 LINE"
);
},
{
closed = 1;
nodes = (
"439 495 LINE",
"417 450 LINE",
"327 450 LINE",
"349 495 LINE"
);
},
{
closed = 1;
nodes = (
"372 270 LINE",
"327 270 LINE",
"304 225 LINE",
"327 180 LINE",
"462 180 LINE",
"484 225 LINE",
"507 270 LINE",
"484 315 LINE",
"394 315 LINE"
);
},
{
closed = 1;
nodes = (
"417 270 LINE",
"462 270 LINE",
"439 225 LINE",
"394 225 LINE"
);
}
);
width = 780;
}
);
leftKerningGroup = O;
rightKerningGroup = O;
unicode = 00D8;
userData = {
com.typemytype.robofont.guides = (
{
angle = 0;
isGlobal = 0;
magnetic = 5;
x = 0;
y = 145;
},
{
angle = 90;
isGlobal = 0;
magnetic = 5;
x = 351;
y = 0;
},
{
angle = 90;
isGlobal = 0;
magnetic = 5;
x = 679;
y = 0;
},
{
angle = 90;
isGlobal = 0;
magnetic = 5;
x = 85;
y = 0;
},
{
angle = 90;
isGlobal = 0;
magnetic = 5;
x = 20;
y = 0;
}
);
};
},
{
color = 1;
glyphname = OE;
layers = (
{
hints = (
{
horizontal = 1;
place = "{-2147483648, 0}";
type = Tag;
name = hr00;
}
);
layerId = "EC64484B-0978-4CB1-9EE9-C40A2D8C4059";
paths = (
{
closed = 1;
nodes = (
"933 675 LINE",
"955 630 LINE",
"1000 630 LINE",
"978 675 LINE",
"955 720 LINE",
"235 720 LINE",
"258 675 LINE"
);
},
{
closed = 1;
nodes = (
"100 540 LINE",
"123 585 LINE",
"145 630 LINE",
"235 630 LINE",
"258 675 LINE",
"123 675 LINE",
"100 630 LINE",
"78 585 LINE",
"55 540 LINE",
"33 495 LINE",
"10 450 LINE",
"33 405 LINE",
"10 360 LINE",
"55 360 LINE",
"78 405 LINE",
"55 450 LINE",
"78 495 LINE"
);
},
{
closed = 1;
nodes = (
"933 585 LINE",
"955 540 LINE",
"1000 540 LINE",
"978 585 LINE",
"955 630 LINE"
);
},
{
closed = 1;
nodes = (
"325 540 LINE",
"303 495 LINE",
"280 450 LINE",
"258 405 LINE",
"280 360 LINE",
"258 315 LINE",
"280 270 LINE",
"303 225 LINE",
"325 180 LINE",
"415 180 LINE",
"438 225 LINE",
"415 270 LINE",
"438 315 LINE",
"415 360 LINE",
"438 405 LINE",
"415 450 LINE",
"438 495 LINE",
"415 540 LINE"
);
},
{
closed = 1;
nodes = (
"640 540 LINE",
"618 495 LINE",
"640 450 LINE",
"663 405 LINE",
"933 405 LINE",
"910 360 LINE",
"933 315 LINE",
"910 270 LINE",
"640 270 LINE",
"618 225 LINE",
"640 180 LINE",
"1000 180 LINE",
"978 225 LINE",
"933 225 LINE",
"955 270 LINE",
"978 315 LINE",
"955 360 LINE",
"978 405 LINE",
"955 450 LINE",
"685 450 LINE",
"663 495 LINE",
"978 495 LINE",
"955 540 LINE"
);
},
{
closed = 1;
nodes = (
"370 360 LINE",
"393 315 LINE",
"370 270 LINE",
"393 225 LINE",
"348 225 LINE",
"325 270 LINE",
"303 315 LINE",
"325 360 LINE",
"303 405 LINE",
"325 450 LINE",
"348 495 LINE",
"393 495 LINE",
"370 450 LINE",
"393 405 LINE"
);
},
{
closed = 1;
nodes = (
"168 45 LINE",
"145 90 LINE",
"123 135 LINE",
"78 135 LINE",
"55 180 LINE",
"78 225 LINE",
"55 270 LINE",
"78 315 LINE",
"55 360 LINE",
"33 315 LINE",
"10 270 LINE",
"33 225 LINE",
"10 180 LINE",
"33 135 LINE",
"55 90 LINE",
"100 90 LINE",
"123 45 LINE",
"145 0 LINE",
"955 0 LINE",
"978 45 LINE",
"955 90 LINE",
"933 45 LINE"
);
},
{
closed = 1;
nodes = (
"978 135 LINE",
"955 180 LINE",
"933 135 LINE",
"955 90 LINE",
"1000 90 LINE"
);
}
);
width = 1002;
}
);
leftKerningGroup = O;
rightKerningGroup = E;
unicode = 0152;
userData = {
com.typemytype.robofont.guides = (
{
angle = 90;
isGlobal = 0;
magnetic = 5;
x = 842;
y = 0;
},
{
angle = 90;
isGlobal = 0;
magnetic = 5;
x = 66;
y = 0;
},
{
angle = 90;
isGlobal = 0;
magnetic = 5;
x = 439;
y = 0;
},
{
angle = 90;
isGlobal = 0;
magnetic = 5;
x = 502;
y = 0;
}
);
};
},
{
color = 1;
glyphname = P;
layers = (
{
hints = (
{
horizontal = 1;
place = "{-2147483648, 0}";
type = Tag;
name = hr00;
}
);
layerId = "EC64484B-0978-4CB1-9EE9-C40A2D8C4059";
paths = (
{
closed = 1;
nodes = (
"302 180 LINE",
"280 135 LINE",
"302 90 LINE",
"280 45 LINE",
"100 45 LINE",
"77 90 LINE",
"100 135 LINE",
"77 180 LINE",
"100 225 LINE",
"77 270 LINE",
"100 315 LINE",
"77 360 LINE",
"100 405 LINE",
"77 450 LINE",
"100 495 LINE",
"77 540 LINE",
"100 585 LINE",
"77 630 LINE",
"100 675 LINE",
"505 675 LINE",
"527 630 LINE",
"572 630 LINE",
"550 675 LINE",
"527 720 LINE",
"77 720 LINE",
"55 675 LINE",
"32 630 LINE",
"55 585 LINE",
"32 540 LINE",
"55 495 LINE",
"32 450 LINE",
"55 405 LINE",
"32 360 LINE",
"55 315 LINE",
"32 270 LINE",
"55 225 LINE",
"32 180 LINE",
"55 135 LINE",
"32 90 LINE",
"55 45 LINE",
"77 0 LINE",
"302 0 LINE",
"325 45 LINE",
"347 90 LINE",
"325 135 LINE",
"347 180 LINE",
"437 180 LINE",
"415 225 LINE",
"325 225 LINE"
);
},
{
closed = 1;
nodes = (
"685 585 LINE",
"662 630 LINE",
"572 630 LINE",
"595 585 LINE",
"640 585 LINE",
"662 540 LINE",
"640 495 LINE",
"662 450 LINE",
"640 405 LINE",
"662 360 LINE",
"640 315 LINE",
"595 315 LINE",
"572 270 LINE",
"482 270 LINE",
"460 225 LINE",
"437 180 LINE",
"482 180 LINE",
"505 225 LINE",
"595 225 LINE",
"617 270 LINE",
"662 270 LINE",
"685 315 LINE",
"707 360 LINE",
"685 405 LINE",
"707 450 LINE",
"685 495 LINE",
"707 540 LINE"
);
},
{
closed = 1;
nodes = (
"302 540 LINE",
"280 495 LINE",
"302 450 LINE",
"280 405 LINE",
"302 360 LINE",
"392 360 LINE",
"415 405 LINE",
"437 450 LINE",
"460 495 LINE",
"437 540 LINE"
);
},
{
closed = 1;
nodes = (
"325 405 LINE",
"347 450 LINE",
"325 495 LINE",
"415 495 LINE",
"392 450 LINE",
"370 405 LINE"
);
}
);
width = 705;
}
);
leftKerningGroup = I;
unicode = 0050;
userData = {
com.typemytype.robofont.guides = (
{
angle = 0;
isGlobal = 0;
magnetic = 5;
x = 0;
y = 493;
},
{
angle = 0;
isGlobal = 0;
magnetic = 5;
x = 0;
y = 403;
},
{
angle = 0;
isGlobal = 0;
magnetic = 5;
x = 0;
y = 218;
},
{
angle = 0;
isGlobal = 0;
magnetic = 5;
x = 0;
y = 310;
},
{
angle = 0;
isGlobal = 0;
magnetic = 5;
x = 0;
y = 9;
},
{
angle = 0;
isGlobal = 0;
magnetic = 5;
x = 0;
y = 691;
},
{
angle = 90;
isGlobal = 0;
magnetic = 5;
x = 345;
y = 0;
},
{
angle = 90;
isGlobal = 0;
magnetic = 5;
x = 94;
y = 0;
},
{
angle = 90;
isGlobal = 0;
magnetic = 5;
x = 139;
y = 0;
}
);
};
},
{
color = 1;
glyphname = Thorn;
layers = (
{
hints = (
{
horizontal = 1;
place = "{-2147483648, 0}";
type = Tag;
name = hr00;
}
);
layerId = "EC64484B-0978-4CB1-9EE9-C40A2D8C4059";
paths = (
{
closed = 1;
nodes = (
"685 495 LINE",
"662 540 LINE",
"617 540 LINE",
"595 585 LINE",
"550 585 LINE",
"527 630 LINE",
"347 630 LINE",
"325 675 LINE",
"302 720 LINE",
"77 720 LINE",
"55 675 LINE",
"32 630 LINE",
"55 585 LINE",
"32 540 LINE",
"55 495 LINE",
"32 450 LINE",
"55 405 LINE",
"32 360 LINE",
"55 315 LINE",
"77 270 LINE",
"100 315 LINE",
"77 360 LINE",
"100 405 LINE",
"77 450 LINE",
"100 495 LINE",
"77 540 LINE",
"100 585 LINE",
"77 630 LINE",
"100 675 LINE",
"280 675 LINE",
"302 630 LINE",
"325 585 LINE",
"505 585 LINE",
"527 540 LINE",
"572 540 LINE",
"595 495 LINE",
"640 495 LINE",
"662 450 LINE",
"640 405 LINE",
"662 360 LINE",
"640 315 LINE",
"662 270 LINE",
"640 225 LINE",
"595 225 LINE",
"572 180 LINE",
"527 180 LINE",
"505 135 LINE",
"325 135 LINE",
"302 90 LINE",
"280 45 LINE",
"100 45 LINE",
"77 90 LINE",
"100 135 LINE",
"77 180 LINE",
"100 225 LINE",
"77 270 LINE",
"55 225 LINE",
"32 180 LINE",
"55 135 LINE",
"32 90 LINE",
"55 45 LINE",
"77 0 LINE",
"302 0 LINE",
"325 45 LINE",
"347 90 LINE",
"527 90 LINE",
"550 135 LINE",
"595 135 LINE",
"617 180 LINE",
"662 180 LINE",
"685 225 LINE",
"707 270 LINE",
"685 315 LINE",
"707 360 LINE",
"685 405 LINE",
"707 450 LINE"
);
},
{
closed = 1;
nodes = (
"392 270 LINE",
"415 315 LINE",
"437 360 LINE",
"415 405 LINE",
"392 450 LINE",
"302 450 LINE",
"280 405 LINE",
"302 360 LINE",
"280 315 LINE",
"302 270 LINE"
);
},
{
closed = 1;
nodes = (
"370 405 LINE",
"392 360 LINE",
"370 315 LINE",
"325 315 LINE",
"347 360 LINE",
"325 405 LINE"
);
}
);
width = 705;
}
);
leftKerningGroup = I;
unicode = 00DE;
userData = {
com.typemytype.robofont.guides = (
{
angle = 0;
isGlobal = 0;
magnetic = 5;
x = 0;
y = 119;
},
{
angle = 0;
isGlobal = 0;
magnetic = 5;
x = 0;
y = 601;
},
{
angle = 0;
isGlobal = 0;
magnetic = 5;
x = 0;
y = 570;
},
{
angle = 0;
isGlobal = 0;
magnetic = 5;
x = 0;
y = 350;
}
);
};
},
{
color = 1;
glyphname = Q;
layers = (
{
hints = (
{
horizontal = 1;
place = "{-2147483648, 0}";
type = Tag;
name = hr01;
}
);
layerId = "EC64484B-0978-4CB1-9EE9-C40A2D8C4059";
paths = (
{
closed = 1;
nodes = (
"484 -45 LINE",
"461 0 LINE",
"281 0 LINE",
"259 45 LINE",
"169 45 LINE",
"146 90 LINE",
"101 90 LINE",
"79 135 LINE",
"56 180 LINE",
"79 225 LINE",
"56 270 LINE",
"79 315 LINE",
"56 360 LINE",
"79 405 LINE",
"56 450 LINE",
"79 495 LINE",
"101 540 LINE",
"124 585 LINE",
"146 630 LINE",
"191 630 LINE",
"214 675 LINE",
"529 675 LINE",
"551 630 LINE",
"596 630 LINE",
"619 585 LINE",
"641 540 LINE",
"664 495 LINE",
"686 450 LINE",
"664 405 LINE",
"686 360 LINE",
"664 315 LINE",
"686 270 LINE",
"664 225 LINE",
"686 180 LINE",
"664 135 LINE",
"641 90 LINE",
"619 45 LINE",
"664 45 LINE",
"686 90 LINE",
"709 135 LINE",
"731 180 LINE",
"709 225 LINE",
"731 270 LINE",
"709 315 LINE",
"731 360 LINE",
"709 405 LINE",
"731 450 LINE",
"709 495 LINE",
"686 540 LINE",
"664 585 LINE",
"641 630 LINE",
"619 675 LINE",
"574 675 LINE",
"551 720 LINE",
"191 720 LINE",
"169 675 LINE",
"124 675 LINE",
"101 630 LINE",
"79 585 LINE",
"56 540 LINE",
"34 495 LINE",
"11 450 LINE",
"34 405 LINE",
"11 360 LINE",
"34 315 LINE",
"11 270 LINE",
"34 225 LINE",
"11 180 LINE",
"34 135 LINE",
"56 90 LINE",
"79 45 LINE",
"124 45 LINE",
"146 0 LINE",
"236 0 LINE",
"259 -45 LINE",
"439 -45 LINE",
"461 -90 LINE",
"686 -90 LINE",
"664 -45 LINE"
);
},
{
closed = 1;
nodes = (
"416 540 LINE",
"326 540 LINE",
"304 495 LINE",
"281 450 LINE",
"259 405 LINE",
"281 360 LINE",
"259 315 LINE",
"281 270 LINE",
"304 225 LINE",
"326 180 LINE",
"416 180 LINE",
"439 225 LINE",
"461 270 LINE",
"484 315 LINE",
"461 360 LINE",
"484 405 LINE",
"461 450 LINE",
"439 495 LINE"
);
},
{
closed = 1;
nodes = (
"416 270 LINE",
"394 225 LINE",
"349 225 LINE",
"326 270 LINE",
"304 315 LINE",
"326 360 LINE",
"304 405 LINE",
"326 450 LINE",
"349 495 LINE",
"394 495 LINE",
"416 450 LINE",
"439 405 LINE",
"416 360 LINE",
"439 315 LINE"
);
},
{
closed = 1;
nodes = (
"664 45 LINE",
"641 0 LINE",
"686 0 LINE",
"709 -45 LINE",
"686 -90 LINE",
"731 -90 LINE",
"754 -45 LINE",
"731 0 LINE",
"709 45 LINE"
);
}
);
width = 742;
}
);
leftKerningGroup = O;
rightKerningGroup = O;
unicode = 0051;
userData = {
com.typemytype.robofont.guides = (
{
angle = 0;
isGlobal = 0;
magnetic = 5;
x = 0;
y = 710;
},
{
angle = 0;
isGlobal = 0;
magnetic = 5;
x = 0;
y = "-10";
},
{
angle = 0;
isGlobal = 0;
magnetic = 5;
x = 0;
y = "-56";
},
{
angle = 90;
isGlobal = 0;
magnetic = 5;
x = 82;
y = 0;
},
{
angle = 90;
isGlobal = 0;
magnetic = 5;
x = 750;
y = 0;
},
{
angle = 90;
isGlobal = 0;
magnetic = 5;
x = 580;
y = 0;
}
);
};
},
{
color = 1;
glyphname = R;
layers = (
{
anchors = (
{
name = bottom;
position = "{361, 0}";
},
{
name = top;
position = "{341, 700}";
}
);
layerId = "EC64484B-0978-4CB1-9EE9-C40A2D8C4059";
paths = (
{
closed = 1;
nodes = (
"662 180 LINE",
"640 225 LINE",
"617 270 LINE",
"640 315 LINE",
"685 315 LINE",
"707 360 LINE",
"685 405 LINE",
"707 450 LINE",
"685 495 LINE",
"707 540 LINE",
"685 585 LINE",
"662 630 LINE",
"617 630 LINE",
"595 675 LINE",
"550 675 LINE",
"527 720 LINE",
"77 720 LINE",
"55 675 LINE",
"32 630 LINE",
"55 585 LINE",
"32 540 LINE",
"55 495 LINE",
"32 450 LINE",
"55 405 LINE",
"32 360 LINE",
"55 315 LINE",
"32 270 LINE",
"77 270 LINE",
"100 315 LINE",
"77 360 LINE",
"100 405 LINE",
"77 450 LINE",
"100 495 LINE",
"77 540 LINE",
"100 585 LINE",
"77 630 LINE",
"100 675 LINE",
"505 675 LINE",
"527 630 LINE",
"572 630 LINE",
"595 585 LINE",
"640 585 LINE",
"662 540 LINE",
"640 495 LINE",
"662 450 LINE",
"640 405 LINE",
"662 360 LINE",
"617 360 LINE",
"595 315 LINE",
"572 270 LINE",
"595 225 LINE",
"617 180 LINE",
"640 135 LINE",
"662 90 LINE",
"685 45 LINE",
"460 45 LINE",
"437 90 LINE",
"415 135 LINE",
"392 180 LINE",
"370 225 LINE",
"325 225 LINE",
"302 180 LINE",
"280 135 LINE",
"302 90 LINE",
"280 45 LINE",
"100 45 LINE",
"77 90 LINE",
"100 135 LINE",
"77 180 LINE",
"32 180 LINE",
"55 135 LINE",
"32 90 LINE",
"55 45 LINE",
"77 0 LINE",
"302 0 LINE",
"325 45 LINE",
"347 90 LINE",
"325 135 LINE",
"347 180 LINE",
"370 135 LINE",
"392 90 LINE",
"415 45 LINE",
"437 0 LINE",
"707 0 LINE",
"730 45 LINE",
"707 90 LINE",
"685 135 LINE"
);
},
{
closed = 1;
nodes = (
"415 405 LINE",
"437 450 LINE",
"415 495 LINE",
"392 540 LINE",
"302 540 LINE",
"280 495 LINE",
"302 450 LINE",
"325 405 LINE"
);
},
{
closed = 1;
nodes = (
"347 450 LINE",
"325 495 LINE",
"370 495 LINE",
"392 450 LINE"
);
},
{
closed = 1;
nodes = (
"77 180 LINE",
"100 225 LINE",
"77 270 LINE",
"55 225 LINE"
);
}
);
width = 722;
}
);
leftKerningGroup = I;
rightKerningGroup = R;
unicode = 0052;
userData = {
com.typemytype.robofont.guides = (
{
angle = 0;
isGlobal = 0;
magnetic = 5;
x = 0;
y = 691;
},
{
angle = 0;
isGlobal = 0;
magnetic = 5;
x = 0;
y = 9;
},
{
angle = 90;
isGlobal = 0;
magnetic = 5;
x = 616;
y = 0;
},
{
angle = 90;
isGlobal = 0;
magnetic = 5;
x = 574;
y = 0;
},
{
angle = 90;
isGlobal = 0;
magnetic = 5;
x = 94;
y = 0;
},
{
angle = 90;
isGlobal = 0;
magnetic = 5;
x = 139;
y = 0;
}
);
};
},
{
color = 1;
glyphname = S;
layers = (
{
anchors = (
{
name = bottom;
position = "{349, 0}";
},
{
name = top;
position = "{349, 700}";
}
);
layerId = "EC64484B-0978-4CB1-9EE9-C40A2D8C4059";
paths = (
{
closed = 1;
nodes = (
"85 225 LINE",
"220 225 LINE",
"243 180 LINE",
"423 180 LINE",
"445 225 LINE",
"423 270 LINE",
"243 270 LINE",
"220 315 LINE",
"130 315 LINE",
"108 360 LINE",
"85 405 LINE",
"63 450 LINE",
"40 495 LINE",
"63 540 LINE",
"85 585 LINE",
"108 630 LINE",
"153 630 LINE",
"175 675 LINE",
"85 675 LINE",
"63 630 LINE",
"40 585 LINE",
"18 540 LINE",
"-5 495 LINE",
"18 450 LINE",
"40 405 LINE",
"63 360 LINE",
"85 315 LINE",
"108 270 LINE",
"63 270 LINE",
"40 225 LINE",
"18 180 LINE",
"-5 135 LINE",
"18 90 LINE",
"40 45 LINE",
"85 45 LINE",
"63 90 LINE",
"40 135 LINE",
"63 180 LINE"
);
},
{
closed = 1;
nodes = (
"648 360 LINE",
"625 405 LINE",
"580 405 LINE",
"558 450 LINE",
"648 450 LINE",
"670 495 LINE",
"648 540 LINE",
"625 585 LINE",
"603 630 LINE",
"580 675 LINE",
"490 675 LINE",
"513 630 LINE",
"558 630 LINE",
"580 585 LINE",
"603 540 LINE",
"625 495 LINE",
"400 495 LINE",
"378 540 LINE",
"288 540 LINE",
"265 495 LINE",
"288 450 LINE",
"333 450 LINE",
"355 405 LINE",
"535 405 LINE",
"558 360 LINE",
"603 360 LINE",
"625 315 LINE",
"648 270 LINE",
"670 225 LINE",
"715 225 LINE",
"693 270 LINE",
"670 315 LINE"
);
},
{
closed = 1;
nodes = (
"603 90 LINE",
"558 90 LINE",
"535 45 LINE",
"445 45 LINE",
"423 0 LINE",
"243 0 LINE",
"220 45 LINE",
"85 45 LINE",
"108 0 LINE",
"198 0 LINE",
"220 -45 LINE",
"445 -45 LINE",
"468 0 LINE",
"558 0 LINE",
"580 45 LINE",
"625 45 LINE",
"648 90 LINE",
"670 135 LINE",
"693 180 LINE",
"670 225 LINE",
"648 180 LINE",
"625 135 LINE"
);
}
);
width = 697;
}
);
leftKerningGroup = S;
rightKerningGroup = S;
unicode = 0053;
userData = {
com.typemytype.robofont.guides = (
{
angle = 0;
isGlobal = 0;
magnetic = 5;
x = 0;
y = 355;
},
{
angle = 90;
isGlobal = 0;
magnetic = 5;
x = 306;
y = 0;
}
);
};
},
{
color = 1;
glyphname = Scedilla;
layers = (
{
hints = (
{
horizontal = 1;
place = "{-2147483648, 0}";
type = Tag;
name = hr01;
}
);
layerId = "EC64484B-0978-4CB1-9EE9-C40A2D8C4059";
paths = (
{
closed = 1;
nodes = (
"220 225 LINE",
"243 180 LINE",
"423 180 LINE",
"445 225 LINE",
"423 270 LINE",
"243 270 LINE",
"220 315 LINE",
"130 315 LINE",
"108 360 LINE",
"85 405 LINE",
"63 450 LINE",
"40 495 LINE",
"63 540 LINE",
"85 585 LINE",
"108 630 LINE",
"153 630 LINE",
"175 675 LINE",
"490 675 LINE",
"513 630 LINE",
"558 630 LINE",
"580 585 LINE",
"603 540 LINE",
"625 495 LINE",
"400 495 LINE",
"378 540 LINE",
"288 540 LINE",
"265 495 LINE",
"288 450 LINE",
"333 450 LINE",
"355 405 LINE",
"535 405 LINE",
"558 360 LINE",
"603 360 LINE",
"625 315 LINE",
"648 270 LINE",
"670 225 LINE",
"715 225 LINE",
"693 270 LINE",
"670 315 LINE",
"648 360 LINE",
"625 405 LINE",
"580 405 LINE",
"558 450 LINE",
"648 450 LINE",
"670 495 LINE",
"648 540 LINE",
"625 585 LINE",
"603 630 LINE",
"580 675 LINE",
"535 675 LINE",
"513 720 LINE",
"153 720 LINE",
"130 675 LINE",
"85 675 LINE",
"63 630 LINE",
"40 585 LINE",
"18 540 LINE",
"-5 495 LINE",
"18 450 LINE",
"40 405 LINE",
"63 360 LINE",
"85 315 LINE",
"108 270 LINE",
"63 270 LINE",
"40 225 LINE",
"18 180 LINE",
"-5 135 LINE",
"40 135 LINE",
"63 180 LINE",
"85 225 LINE"
);
},
{
closed = 1;
nodes = (
"603 90 LINE",
"558 90 LINE",
"535 45 LINE",
"445 45 LINE",
"423 0 LINE",
"378 0 LINE",
"355 -45 LINE",
"378 -90 LINE",
"423 -90 LINE",
"400 -135 LINE",
"423 -180 LINE",
"378 -180 LINE",
"400 -135 LINE",
"378 -90 LINE",
"288 -90 LINE",
"310 -45 LINE",
"288 0 LINE",
"243 0 LINE",
"220 45 LINE",
"130 45 LINE",
"108 90 LINE",
"63 90 LINE",
"40 135 LINE",
"18 90 LINE",
"40 45 LINE",
"85 45 LINE",
"108 0 LINE",
"198 0 LINE",
"220 -45 LINE",
"265 -45 LINE",
"243 -90 LINE",
"265 -135 LINE",
"243 -180 LINE",
"265 -225 LINE",
"445 -225 LINE",
"468 -180 LINE",
"445 -135 LINE",
"468 -90 LINE",
"445 -45 LINE",
"468 0 LINE",
"558 0 LINE",
"580 45 LINE",
"625 45 LINE",
"648 90 LINE",
"670 135 LINE",
"693 180 LINE",
"670 225 LINE",
"648 180 LINE",
"625 135 LINE"
);
}
);
width = 697;
}
);
leftKerningGroup = S;
rightKerningGroup = S;
unicode = 015E;
userData = {
com.typemytype.robofont.guides = (
{
angle = 90;
isGlobal = 0;
magnetic = 5;
x = 306;
y = 0;
}
);
};
},
{
color = 1;
glyphname = T;
layers = (
{
hints = (
{
horizontal = 1;
place = "{-2147483648, 0}";
type = Tag;
name = hr00;
}
);
layerId = "EC64484B-0978-4CB1-9EE9-C40A2D8C4059";
paths = (
{
closed = 1;
nodes = (
"669 720 LINE",
"39 720 LINE",
"17 675 LINE",
"-6 630 LINE",
"17 585 LINE",
"-6 540 LINE",
"17 495 LINE",
"39 450 LINE",
"174 450 LINE",
"197 405 LINE",
"174 360 LINE",
"197 315 LINE",
"174 270 LINE",
"197 225 LINE",
"174 180 LINE",
"197 135 LINE",
"174 90 LINE",
"197 45 LINE",
"219 0 LINE",
"444 0 LINE",
"467 45 LINE",
"489 90 LINE",
"467 135 LINE",
"489 180 LINE",
"467 225 LINE",
"489 270 LINE",
"467 315 LINE",
"489 360 LINE",
"467 405 LINE",
"489 450 LINE",
"669 450 LINE",
"692 495 LINE",
"669 540 LINE",
"692 585 LINE",
"669 630 LINE",
"692 675 LINE"
);
},
{
closed = 1;
nodes = (
"467 495 LINE",
"444 450 LINE",
"422 405 LINE",
"444 360 LINE",
"422 315 LINE",
"444 270 LINE",
"422 225 LINE",
"444 180 LINE",
"422 135 LINE",
"444 90 LINE",
"422 45 LINE",
"242 45 LINE",
"219 90 LINE",
"242 135 LINE",
"219 180 LINE",
"242 225 LINE",
"219 270 LINE",
"242 315 LINE",
"219 360 LINE",
"242 405 LINE",
"219 450 LINE",
"197 495 LINE",
"62 495 LINE",
"39 540 LINE",
"62 585 LINE",
"39 630 LINE",
"62 675 LINE",
"647 675 LINE",
"624 630 LINE",
"647 585 LINE",
"624 540 LINE",
"647 495 LINE"
);
}
);
width = 674;
}
);
leftKerningGroup = T;
rightKerningGroup = T;
unicode = 0054;
userData = {
com.typemytype.robofont.guides = (
{
angle = 0;
isGlobal = 0;
magnetic = 5;
x = 0;
y = 495;
},
{
angle = 0;
isGlobal = 0;
magnetic = 5;
x = 0;
y = 9;
},
{
angle = 0;
isGlobal = 0;
magnetic = 5;
x = 0;
y = 691;
},
{
angle = 0;
isGlobal = 0;
magnetic = 5;
x = 0;
y = 649;
},
{
angle = 90;
isGlobal = 0;
magnetic = 5;
x = 279;
y = 0;
},
{
angle = 90;
isGlobal = 0;
magnetic = 5;
x = 324;
y = 0;
},
{
angle = 90;
isGlobal = 0;
magnetic = 5;
x = 59;
y = 0;
},
{
angle = 90;
isGlobal = 0;
magnetic = 5;
x = 544;
y = 0;
}
);
};
},
{
color = 1;
glyphname = Tbar;
layers = (
{
hints = (
{
horizontal = 1;
place = "{-2147483648, 0}";
type = Tag;
name = hr00;
}
);
layerId = "EC64484B-0978-4CB1-9EE9-C40A2D8C4059";
paths = (
{
closed = 1;
nodes = (
"673 720 LINE",
"43 720 LINE",
"21 675 LINE",
"-2 630 LINE",
"21 585 LINE",
"-2 540 LINE",
"21 495 LINE",
"43 450 LINE",
"178 450 LINE",
"201 405 LINE",
"111 405 LINE",
"88 360 LINE",
"66 315 LINE",
"88 270 LINE",
"111 225 LINE",
"201 225 LINE",
"178 180 LINE",
"201 135 LINE",
"178 90 LINE",
"201 45 LINE",
"223 0 LINE",
"448 0 LINE",
"471 45 LINE",
"493 90 LINE",
"471 135 LINE",
"493 180 LINE",
"471 225 LINE",
"561 225 LINE",
"583 270 LINE",
"606 315 LINE",
"628 360 LINE",
"606 405 LINE",
"471 405 LINE",
"493 450 LINE",
"673 450 LINE",
"696 495 LINE",
"673 540 LINE",
"696 585 LINE",
"673 630 LINE",
"696 675 LINE"
);
},
{
closed = 1;
nodes = (
"471 495 LINE",
"448 450 LINE",
"426 405 LINE",
"448 360 LINE",
"583 360 LINE",
"561 315 LINE",
"538 270 LINE",
"448 270 LINE",
"426 225 LINE",
"448 180 LINE",
"426 135 LINE",
"448 90 LINE",
"426 45 LINE",
"246 45 LINE",
"223 90 LINE",
"246 135 LINE",
"223 180 LINE",
"246 225 LINE",
"223 270 LINE",
"133 270 LINE",
"111 315 LINE",
"133 360 LINE",
"223 360 LINE",
"246 405 LINE",
"223 450 LINE",
"201 495 LINE",
"66 495 LINE",
"43 540 LINE",
"66 585 LINE",
"43 630 LINE",
"66 675 LINE",
"651 675 LINE",
"628 630 LINE",
"651 585 LINE",
"628 540 LINE",
"651 495 LINE"
);
}
);
width = 682;
}
);
leftKerningGroup = T;
rightKerningGroup = T;
unicode = 0166;
userData = {
com.typemytype.robofont.guides = (
{
angle = 0;
isGlobal = 0;
magnetic = 5;
x = 0;
y = 380;
},
{
angle = 90;
isGlobal = 0;
magnetic = 5;
x = 301;
y = 0;
},
{
angle = 90;
isGlobal = 0;
magnetic = 5;
x = 50;
y = 0;
}
);
};
},
{
color = 1;
glyphname = U;
layers = (
{
anchors = (
{
name = bottom;
position = "{373, 0}";
},
{
name = ogonek;
position = "{671, 10}";
},
{
name = top;
position = "{373, 700}";
},
{
name = topright;
position = "{726, 700}";
}
);
layerId = "EC64484B-0978-4CB1-9EE9-C40A2D8C4059";
paths = (
{
closed = 1;
nodes = (
"701 675 LINE",
"656 675 LINE",
"679 630 LINE",
"656 585 LINE",
"679 540 LINE",
"656 495 LINE",
"679 450 LINE",
"656 405 LINE",
"679 360 LINE",
"656 315 LINE",
"679 270 LINE",
"656 225 LINE",
"679 180 LINE",
"656 135 LINE",
"634 90 LINE",
"589 90 LINE",
"566 45 LINE",
"476 45 LINE",
"454 0 LINE",
"274 0 LINE",
"251 45 LINE",
"161 45 LINE",
"139 90 LINE",
"116 135 LINE",
"94 180 LINE",
"71 225 LINE",
"94 270 LINE",
"71 315 LINE",
"94 360 LINE",
"71 405 LINE",
"94 450 LINE",
"71 495 LINE",
"94 540 LINE",
"71 585 LINE",
"94 630 LINE",
"71 675 LINE",
"26 675 LINE",
"49 630 LINE",
"26 585 LINE",
"49 540 LINE",
"26 495 LINE",
"49 450 LINE",
"26 405 LINE",
"49 360 LINE",
"26 315 LINE",
"49 270 LINE",
"26 225 LINE",
"49 180 LINE",
"71 135 LINE",
"94 90 LINE",
"116 45 LINE",
"139 0 LINE",
"229 0 LINE",
"251 -45 LINE",
"476 -45 LINE",
"499 0 LINE",
"589 0 LINE",
"611 45 LINE",
"656 45 LINE",
"679 90 LINE",
"701 135 LINE",
"724 180 LINE",
"701 225 LINE",
"724 270 LINE",
"701 315 LINE",
"724 360 LINE",
"701 405 LINE",
"724 450 LINE",
"701 495 LINE",
"724 540 LINE",
"701 585 LINE",
"724 630 LINE"
);
},
{
closed = 1;
nodes = (
"454 180 LINE",
"476 225 LINE",
"454 270 LINE",
"476 315 LINE",
"454 360 LINE",
"476 405 LINE",
"454 450 LINE",
"476 495 LINE",
"454 540 LINE",
"476 585 LINE",
"454 630 LINE",
"476 675 LINE",
"431 675 LINE",
"409 630 LINE",
"431 585 LINE",
"409 540 LINE",
"431 495 LINE",
"409 450 LINE",
"431 405 LINE",
"409 360 LINE",
"431 315 LINE",
"409 270 LINE",
"431 225 LINE",
"341 225 LINE",
"319 270 LINE",
"341 315 LINE",
"319 360 LINE",
"341 405 LINE",
"319 450 LINE",
"341 495 LINE",
"319 540 LINE",
"341 585 LINE",
"319 630 LINE",
"341 675 LINE",
"296 675 LINE",
"274 630 LINE",
"296 585 LINE",
"274 540 LINE",
"296 495 LINE",
"274 450 LINE",
"296 405 LINE",
"274 360 LINE",
"296 315 LINE",
"274 270 LINE",
"296 225 LINE",
"319 180 LINE"
);
}
);
width = 746;
}
);
leftKerningGroup = U;
rightKerningGroup = U;
unicode = 0055;
userData = {
com.typemytype.robofont.guides = (
{
angle = 0;
isGlobal = 0;
magnetic = 5;
x = 0;
y = 267;
},
{
angle = 90;
isGlobal = 0;
magnetic = 5;
x = 333;
y = 0;
},
{
angle = 90;
isGlobal = 0;
magnetic = 5;
x = 535;
y = 0;
},
{
angle = 90;
isGlobal = 0;
magnetic = 5;
x = 580;
y = 0;
},
{
angle = 90;
isGlobal = 0;
magnetic = 5;
x = 84;
y = 0;
},
{
angle = 90;
isGlobal = 0;
magnetic = 5;
x = 129;
y = 0;
}
);
};
},
{
color = 1;
glyphname = Uogonek;
layers = (
{
hints = (
{
horizontal = 1;
place = "{-2147483648, 0}";
type = Tag;
name = hr01;
},
{
horizontal = 1;
place = "{-2147483648, 0}";
type = Tag;
name = hr02;
}
);
layerId = "EC64484B-0978-4CB1-9EE9-C40A2D8C4059";
paths = (
{
closed = 1;
nodes = (
"701 675 LINE",
"679 720 LINE",
"454 720 LINE",
"431 675 LINE",
"409 630 LINE",
"431 585 LINE",
"409 540 LINE",
"431 495 LINE",
"409 450 LINE",
"431 405 LINE",
"409 360 LINE",
"431 315 LINE",
"409 270 LINE",
"431 225 LINE",
"454 180 LINE",
"476 225 LINE",
"454 270 LINE",
"476 315 LINE",
"454 360 LINE",
"476 405 LINE",
"454 450 LINE",
"476 495 LINE",
"454 540 LINE",
"476 585 LINE",
"454 630 LINE",
"476 675 LINE",
"656 675 LINE",
"679 630 LINE",
"656 585 LINE",
"679 540 LINE",
"656 495 LINE",
"679 450 LINE",
"656 405 LINE",
"679 360 LINE",
"656 315 LINE",
"679 270 LINE",
"656 225 LINE",
"679 180 LINE",
"656 135 LINE",
"634 90 LINE",
"589 90 LINE",
"566 45 LINE",
"476 45 LINE",
"454 0 LINE",
"409 0 LINE",
"386 -45 LINE",
"409 -90 LINE",
"431 -135 LINE",
"476 -135 LINE",
"454 -180 LINE",
"364 -180 LINE",
"341 -135 LINE",
"319 -90 LINE",
"296 -45 LINE",
"274 0 LINE",
"251 45 LINE",
"161 45 LINE",
"139 90 LINE",
"116 135 LINE",
"94 180 LINE",
"71 225 LINE",
"94 270 LINE",
"71 315 LINE",
"94 360 LINE",
"71 405 LINE",
"94 450 LINE",
"71 495 LINE",
"94 540 LINE",
"71 585 LINE",
"94 630 LINE",
"71 675 LINE",
"296 675 LINE",
"274 630 LINE",
"296 585 LINE",
"274 540 LINE",
"296 495 LINE",
"274 450 LINE",
"296 405 LINE",
"274 360 LINE",
"296 315 LINE",
"274 270 LINE",
"296 225 LINE",
"319 180 LINE",
"364 180 LINE",
"386 225 LINE",
"341 225 LINE",
"319 270 LINE",
"341 315 LINE",
"319 360 LINE",
"341 405 LINE",
"319 450 LINE",
"341 495 LINE",
"319 540 LINE",
"341 585 LINE",
"319 630 LINE",
"341 675 LINE",
"319 720 LINE",
"49 720 LINE",
"26 675 LINE",
"49 630 LINE",
"26 585 LINE",
"49 540 LINE",
"26 495 LINE",
"49 450 LINE",
"26 405 LINE",
"49 360 LINE",
"26 315 LINE",
"49 270 LINE",
"26 225 LINE",
"49 180 LINE",
"71 135 LINE",
"94 90 LINE",
"116 45 LINE",
"139 0 LINE",
"229 0 LINE",
"251 -45 LINE",
"274 -90 LINE",
"296 -135 LINE",
"319 -180 LINE",
"341 -225 LINE",
"476 -225 LINE",
"499 -180 LINE",
"521 -135 LINE",
"499 -90 LINE",
"454 -90 LINE",
"431 -45 LINE",
"476 -45 LINE",
"499 0 LINE",
"589 0 LINE",
"611 45 LINE",
"656 45 LINE",
"679 90 LINE",
"701 135 LINE",
"724 180 LINE",
"701 225 LINE",
"724 270 LINE",
"701 315 LINE",
"724 360 LINE",
"701 405 LINE",
"724 450 LINE",
"701 495 LINE",
"724 540 LINE",
"701 585 LINE",
"724 630 LINE"
);
},
{
closed = 1;
nodes = (
"409 180 LINE",
"431 225 LINE",
"386 225 LINE"
);
}
);
width = 746;
}
);
leftKerningGroup = U;
rightKerningGroup = U;
unicode = 0172;
userData = {
com.typemytype.robofont.guides = (
{
angle = 0;
isGlobal = 0;
magnetic = 5;
x = 0;
y = "-187";
},
{
angle = 90;
isGlobal = 0;
magnetic = 5;
x = 332;
y = 0;
}
);
};
},
{
color = 1;
glyphname = V;
layers = (
{
hints = (
{
horizontal = 1;
place = "{-2147483648, 0}";
type = Tag;
name = hr00;
}
);
layerId = "EC64484B-0978-4CB1-9EE9-C40A2D8C4059";
paths = (
{
closed = 1;
nodes = (
"442 720 LINE",
"420 675 LINE",
"442 630 LINE",
"420 585 LINE",
"397 540 LINE",
"375 495 LINE",
"397 450 LINE",
"375 405 LINE",
"352 450 LINE",
"330 495 LINE",
"307 540 LINE",
"330 585 LINE",
"307 630 LINE",
"285 675 LINE",
"262 720 LINE",
"37 720 LINE",
"15 675 LINE",
"-8 630 LINE",
"15 585 LINE",
"37 540 LINE",
"60 495 LINE",
"37 450 LINE",
"60 405 LINE",
"82 360 LINE",
"105 315 LINE",
"127 270 LINE",
"105 225 LINE",
"127 180 LINE",
"150 135 LINE",
"172 90 LINE",
"195 45 LINE",
"217 0 LINE",
"532 0 LINE",
"555 45 LINE",
"577 90 LINE",
"555 135 LINE",
"577 180 LINE",
"600 225 LINE",
"622 270 LINE",
"645 315 LINE",
"622 360 LINE",
"645 405 LINE",
"667 450 LINE",
"690 495 LINE",
"712 540 LINE",
"690 585 LINE",
"712 630 LINE",
"735 675 LINE",
"712 720 LINE"
);
},
{
closed = 1;
nodes = (
"667 540 LINE",
"645 495 LINE",
"622 450 LINE",
"600 405 LINE",
"577 360 LINE",
"600 315 LINE",
"577 270 LINE",
"555 225 LINE",
"532 180 LINE",
"510 135 LINE",
"532 90 LINE",
"510 45 LINE",
"240 45 LINE",
"217 90 LINE",
"195 135 LINE",
"172 180 LINE",
"150 225 LINE",
"172 270 LINE",
"150 315 LINE",
"127 360 LINE",
"105 405 LINE",
"82 450 LINE",
"105 495 LINE",
"82 540 LINE",
"60 585 LINE",
"37 630 LINE",
"60 675 LINE",
"240 675 LINE",
"262 630 LINE",
"285 585 LINE",
"262 540 LINE",
"285 495 LINE",
"307 450 LINE",
"330 405 LINE",
"307 360 LINE",
"330 315 LINE",
"375 315 LINE",
"397 360 LINE",
"420 405 LINE",
"442 450 LINE",
"420 495 LINE",
"442 540 LINE",
"465 585 LINE",
"487 630 LINE",
"465 675 LINE",
"690 675 LINE",
"667 630 LINE",
"645 585 LINE"
);
}
);
width = 726;
}
);
unicode = 0056;
userData = {
com.typemytype.robofont.guides = (
{
angle = 0;
isGlobal = 0;
magnetic = 5;
x = 0;
y = 24;
}
);
};
},
{
color = 1;
glyphname = W;
layers = (
{
anchors = (
{
name = bottom;
position = "{428, 0}";
},
{
name = top;
position = "{428, 700}";
}
);
layerId = "EC64484B-0978-4CB1-9EE9-C40A2D8C4059";
paths = (
{
closed = 1;
nodes = (
"69 585 LINE",
"46 630 LINE",
"69 675 LINE",
"249 675 LINE",
"271 630 LINE",
"249 585 LINE",
"271 540 LINE",
"249 495 LINE",
"271 450 LINE",
"294 405 LINE",
"339 405 LINE",
"361 450 LINE",
"339 495 LINE",
"384 495 LINE",
"406 540 LINE",
"451 540 LINE",
"474 495 LINE",
"519 495 LINE",
"496 450 LINE",
"519 405 LINE",
"564 405 LINE",
"586 450 LINE",
"609 495 LINE",
"586 540 LINE",
"609 585 LINE",
"586 630 LINE",
"609 675 LINE",
"789 675 LINE",
"811 630 LINE",
"856 630 LINE",
"834 675 LINE",
"811 720 LINE",
"586 720 LINE",
"564 675 LINE",
"541 630 LINE",
"564 585 LINE",
"541 540 LINE",
"496 540 LINE",
"474 585 LINE",
"384 585 LINE",
"361 540 LINE",
"316 540 LINE",
"294 585 LINE",
"316 630 LINE",
"294 675 LINE",
"271 720 LINE",
"46 720 LINE",
"24 675 LINE",
"1 630 LINE",
"24 585 LINE",
"1 540 LINE",
"24 495 LINE",
"46 450 LINE",
"69 405 LINE",
"91 450 LINE",
"69 495 LINE",
"46 540 LINE"
);
},
{
closed = 1;
nodes = (
"789 585 LINE",
"811 540 LINE",
"856 540 LINE",
"834 585 LINE",
"811 630 LINE"
);
},
{
closed = 1;
nodes = (
"766 360 LINE",
"744 315 LINE",
"766 270 LINE",
"744 225 LINE",
"721 180 LINE",
"744 135 LINE",
"721 90 LINE",
"699 45 LINE",
"519 45 LINE",
"541 0 LINE",
"721 0 LINE",
"744 45 LINE",
"766 90 LINE",
"789 135 LINE",
"766 180 LINE",
"789 225 LINE",
"811 270 LINE",
"789 315 LINE",
"811 360 LINE",
"834 405 LINE",
"811 450 LINE",
"834 495 LINE",
"811 540 LINE",
"789 495 LINE",
"766 450 LINE",
"789 405 LINE"
);
},
{
closed = 1;
nodes = (
"46 360 LINE",
"69 315 LINE",
"91 360 LINE",
"69 405 LINE",
"24 405 LINE"
);
},
{
closed = 1;
nodes = (
"474 225 LINE",
"451 270 LINE",
"406 270 LINE",
"384 225 LINE",
"406 180 LINE",
"384 135 LINE",
"361 90 LINE",
"339 45 LINE",
"159 45 LINE",
"136 90 LINE",
"114 135 LINE",
"136 180 LINE",
"114 225 LINE",
"91 270 LINE",
"114 315 LINE",
"69 315 LINE",
"46 270 LINE",
"69 225 LINE",
"91 180 LINE",
"69 135 LINE",
"91 90 LINE",
"114 45 LINE",
"136 0 LINE",
"361 0 LINE",
"384 45 LINE",
"406 90 LINE",
"429 135 LINE",
"451 90 LINE",
"474 45 LINE",
"496 0 LINE",
"519 45 LINE",
"496 90 LINE",
"474 135 LINE",
"451 180 LINE"
);
}
);
width = 856;
}
);
leftKerningGroup = W;
rightKerningGroup = W;
unicode = 0057;
userData = {
com.typemytype.robofont.guides = (
{
angle = 0;
isGlobal = 0;
magnetic = 5;
x = 0;
y = 545;
},
{
angle = 0;
isGlobal = 0;
magnetic = 5;
x = 0;
y = 670;
},
{
angle = 0;
isGlobal = 0;
magnetic = 5;
x = 0;
y = 24;
}
);
};
},
{
color = 1;
glyphname = X;
layers = (
{
hints = (
{
horizontal = 1;
place = "{-2147483648, 0}";
type = Tag;
name = hr00;
}
);
layerId = "EC64484B-0978-4CB1-9EE9-C40A2D8C4059";
paths = (
{
closed = 1;
nodes = (
"382 180 LINE",
"337 180 LINE",
"315 135 LINE",
"292 90 LINE",
"270 45 LINE",
"45 45 LINE",
"67 90 LINE",
"90 135 LINE",
"112 180 LINE",
"135 225 LINE",
"157 270 LINE",
"202 270 LINE",
"225 315 LINE",
"247 360 LINE",
"225 405 LINE",
"202 450 LINE",
"157 450 LINE",
"135 495 LINE",
"112 540 LINE",
"90 585 LINE",
"67 630 LINE",
"45 675 LINE",
"270 675 LINE",
"292 630 LINE",
"315 585 LINE",
"337 540 LINE",
"382 540 LINE",
"405 585 LINE",
"382 630 LINE",
"360 585 LINE",
"337 630 LINE",
"315 675 LINE",
"292 720 LINE",
"22 720 LINE",
"0 675 LINE",
"22 630 LINE",
"45 585 LINE",
"67 540 LINE",
"90 495 LINE",
"112 450 LINE",
"135 405 LINE",
"180 405 LINE",
"202 360 LINE",
"180 315 LINE",
"135 315 LINE",
"112 270 LINE",
"90 225 LINE",
"67 180 LINE",
"45 135 LINE",
"22 90 LINE",
"0 45 LINE",
"22 0 LINE",
"292 0 LINE",
"315 45 LINE",
"337 90 LINE",
"360 135 LINE",
"382 90 LINE",
"405 45 LINE",
"427 0 LINE",
"472 0 LINE",
"450 45 LINE",
"427 90 LINE",
"405 135 LINE"
);
},
{
closed = 1;
nodes = (
"675 675 LINE",
"652 630 LINE",
"630 585 LINE",
"675 585 LINE",
"697 630 LINE",
"720 675 LINE",
"697 720 LINE",
"427 720 LINE",
"405 675 LINE",
"382 630 LINE",
"427 630 LINE",
"450 675 LINE"
);
},
{
closed = 1;
nodes = (
"675 135 LINE",
"652 180 LINE",
"630 225 LINE",
"607 270 LINE",
"585 315 LINE",
"562 360 LINE",
"585 405 LINE",
"607 450 LINE",
"630 495 LINE",
"652 540 LINE",
"630 585 LINE",
"607 540 LINE",
"585 495 LINE",
"562 450 LINE",
"540 405 LINE",
"517 360 LINE",
"540 315 LINE",
"562 270 LINE",
"585 225 LINE",
"607 180 LINE",
"630 135 LINE",
"652 90 LINE",
"697 90 LINE",
"720 45 LINE",
"495 45 LINE",
"472 0 LINE",
"742 0 LINE",
"765 45 LINE",
"742 90 LINE",
"720 135 LINE"
);
}
);
width = 739;
}
);
unicode = 0058;
userData = {
com.typemytype.robofont.guides = (
{
angle = 0;
isGlobal = 0;
magnetic = 5;
x = 0;
y = 350;
},
{
angle = 90;
isGlobal = 0;
magnetic = 5;
x = 28;
y = 0;
},
{
angle = 90;
isGlobal = 0;
magnetic = 5;
x = 580;
y = 0;
}
);
};
},
{
color = 1;
glyphname = Y;
layers = (
{
anchors = (
{
name = bottom;
position = "{355, 0}";
},
{
name = top;
position = "{355, 700}";
},
{
name = topleft;
position = "{20, 700}";
}
);
layerId = "EC64484B-0978-4CB1-9EE9-C40A2D8C4059";
paths = (
{
closed = 1;
nodes = (
"475 720 LINE",
"498 675 LINE",
"678 675 LINE",
"655 630 LINE",
"633 585 LINE",
"610 540 LINE",
"588 495 LINE",
"565 450 LINE",
"543 405 LINE",
"520 360 LINE",
"498 315 LINE",
"475 270 LINE",
"453 225 LINE",
"475 180 LINE",
"453 135 LINE",
"475 90 LINE",
"453 45 LINE",
"273 45 LINE",
"250 90 LINE",
"273 135 LINE",
"250 180 LINE",
"273 225 LINE",
"250 270 LINE",
"228 315 LINE",
"205 360 LINE",
"183 405 LINE",
"160 450 LINE",
"138 495 LINE",
"93 495 LINE",
"115 540 LINE",
"93 585 LINE",
"48 585 LINE",
"25 630 LINE",
"48 675 LINE",
"228 675 LINE",
"250 630 LINE",
"273 585 LINE",
"295 540 LINE",
"318 495 LINE",
"340 450 LINE",
"385 450 LINE",
"408 495 LINE",
"430 540 LINE",
"453 585 LINE",
"475 630 LINE",
"498 675 LINE",
"453 675 LINE",
"430 630 LINE",
"408 585 LINE",
"385 540 LINE",
"363 495 LINE",
"340 540 LINE",
"318 585 LINE",
"295 630 LINE",
"273 675 LINE",
"250 720 LINE",
"25 720 LINE",
"3 675 LINE",
"-20 630 LINE",
"3 585 LINE",
"25 540 LINE",
"70 540 LINE",
"48 495 LINE",
"70 450 LINE",
"115 450 LINE",
"138 405 LINE",
"160 360 LINE",
"183 315 LINE",
"205 270 LINE",
"228 225 LINE",
"205 180 LINE",
"228 135 LINE",
"205 90 LINE",
"228 45 LINE",
"250 0 LINE",
"475 0 LINE",
"498 45 LINE",
"520 90 LINE",
"498 135 LINE",
"520 180 LINE",
"498 225 LINE",
"520 270 LINE",
"543 315 LINE",
"565 360 LINE",
"588 405 LINE",
"610 450 LINE",
"633 495 LINE",
"655 540 LINE",
"678 585 LINE",
"700 630 LINE",
"723 675 LINE",
"700 720 LINE"
);
}
);
width = 710;
}
);
leftKerningGroup = Y;
rightKerningGroup = Y;
unicode = 0059;
userData = {
com.typemytype.robofont.guides = (
{
angle = 90;
isGlobal = 0;
magnetic = 5;
x = 310;
y = 0;
}
);
};
},
{
color = 1;
glyphname = Z;
layers = (
{
anchors = (
{
name = bottom;
position = "{347, 0}";
},
{
name = top;
position = "{337, 700}";
}
);
layerId = "EC64484B-0978-4CB1-9EE9-C40A2D8C4059";
paths = (
{
closed = 1;
nodes = (
"80 45 LINE",
"57 90 LINE",
"80 135 LINE",
"57 180 LINE",
"80 225 LINE",
"125 225 LINE",
"147 270 LINE",
"170 315 LINE",
"215 315 LINE",
"237 360 LINE",
"260 405 LINE",
"305 405 LINE",
"327 450 LINE",
"350 495 LINE",
"327 540 LINE",
"57 540 LINE",
"80 585 LINE",
"57 630 LINE",
"80 675 LINE",
"620 675 LINE",
"642 720 LINE",
"57 720 LINE",
"35 675 LINE",
"12 630 LINE",
"35 585 LINE",
"12 540 LINE",
"35 495 LINE",
"305 495 LINE",
"282 450 LINE",
"237 450 LINE",
"215 405 LINE",
"192 360 LINE",
"147 360 LINE",
"125 315 LINE",
"102 270 LINE",
"57 270 LINE",
"35 225 LINE",
"12 180 LINE",
"35 135 LINE",
"12 90 LINE",
"35 45 LINE",
"57 0 LINE",
"642 0 LINE",
"665 45 LINE",
"642 90 LINE",
"620 45 LINE"
);
},
{
closed = 1;
nodes = (
"620 675 LINE",
"642 630 LINE",
"687 630 LINE",
"665 675 LINE"
);
},
{
closed = 1;
nodes = (
"620 585 LINE",
"642 540 LINE",
"687 540 LINE",
"665 585 LINE",
"642 630 LINE"
);
},
{
closed = 1;
nodes = (
"530 405 LINE",
"507 360 LINE",
"462 360 LINE",
"440 315 LINE",
"417 270 LINE",
"372 270 LINE",
"350 225 LINE",
"372 180 LINE",
"687 180 LINE",
"665 225 LINE",
"440 225 LINE",
"462 270 LINE",
"485 315 LINE",
"530 315 LINE",
"552 360 LINE",
"575 405 LINE",
"597 450 LINE",
"642 450 LINE",
"665 495 LINE",
"642 540 LINE",
"620 495 LINE",
"575 495 LINE",
"552 450 LINE"
);
},
{
closed = 1;
nodes = (
"665 135 LINE",
"642 180 LINE",
"620 135 LINE",
"642 90 LINE",
"687 90 LINE"
);
}
);
width = 693;
}
);
leftKerningGroup = Z;
rightKerningGroup = Z;
unicode = 005A;
userData = {
com.typemytype.robofont.guides = (
{
angle = 0;
isGlobal = 0;
magnetic = 5;
x = 0;
y = 51;
},
{
angle = 0;
isGlobal = 0;
magnetic = 5;
x = 0;
y = 9;
},
{
angle = 0;
isGlobal = 0;
magnetic = 5;
x = 0;
y = 691;
},
{
angle = 0;
isGlobal = 0;
magnetic = 5;
x = 0;
y = 649;
},
{
angle = 90;
isGlobal = 0;
magnetic = 5;
x = 189;
y = 0;
},
{
angle = 90;
isGlobal = 0;
magnetic = 5;
x = 815;
y = 0;
},
{
angle = 90;
isGlobal = 0;
magnetic = 5;
x = 732;
y = 0;
},
{
angle = 90;
isGlobal = 0;
magnetic = 5;
x = "-431";
y = 0;
},
{
angle = 90;
isGlobal = 0;
magnetic = 5;
x = 74;
y = 0;
},
{
angle = 90;
isGlobal = 0;
magnetic = 5;
x = 541;
y = 0;
}
);
};
},
{
color = 1;
glyphname = a;
layers = (
{
hints = (
{
horizontal = 1;
place = "{-2147483648, 0}";
type = Tag;
name = hr01;
},
{
horizontal = 1;
place = "{-2147483648, 0}";
type = Tag;
name = hr02;
}
);
layerId = "EC64484B-0978-4CB1-9EE9-C40A2D8C4059";
paths = (
{
closed = 1;
nodes = (
"264 45 LINE",
"242 0 LINE",
"152 0 LINE",
"129 45 LINE",
"84 45 LINE",
"62 90 LINE",
"39 135 LINE",
"62 180 LINE",
"84 225 LINE",
"107 270 LINE",
"197 270 LINE",
"219 315 LINE",
"197 360 LINE",
"107 360 LINE",
"84 405 LINE",
"107 450 LINE",
"152 450 LINE",
"174 495 LINE",
"84 495 LINE",
"62 450 LINE",
"39 405 LINE",
"62 360 LINE",
"84 315 LINE",
"62 270 LINE",
"39 225 LINE",
"17 180 LINE",
"-6 135 LINE",
"17 90 LINE",
"39 45 LINE",
"62 0 LINE",
"107 0 LINE",
"129 -45 LINE",
"264 -45 LINE",
"287 0 LINE",
"602 0 LINE",
"579 45 LINE"
);
},
{
closed = 1;
nodes = (
"557 450 LINE",
"534 495 LINE",
"444 495 LINE",
"467 450 LINE",
"512 450 LINE",
"534 405 LINE",
"557 360 LINE",
"579 315 LINE",
"624 315 LINE",
"602 360 LINE",
"579 405 LINE"
);
},
{
closed = 1;
nodes = (
"377 360 LINE",
"354 405 LINE",
"264 405 LINE",
"242 360 LINE",
"264 315 LINE",
"354 315 LINE"
);
},
{
closed = 1;
nodes = (
"557 270 LINE",
"579 225 LINE",
"624 225 LINE",
"602 270 LINE",
"579 315 LINE"
);
},
{
closed = 1;
nodes = (
"377 180 LINE",
"354 225 LINE",
"264 225 LINE",
"242 180 LINE",
"264 135 LINE",
"354 135 LINE"
);
},
{
closed = 1;
nodes = (
"602 180 LINE",
"579 225 LINE",
"557 180 LINE",
"579 135 LINE",
"624 135 LINE"
);
},
{
closed = 1;
nodes = (
"602 90 LINE",
"579 135 LINE",
"557 90 LINE",
"579 45 LINE",
"624 45 LINE"
);
}
);
width = 622;
}
);
leftKerningGroup = a;
rightKerningGroup = a;
unicode = 0061;
},
{
color = 1;
glyphname = aogonek;
layers = (
{
hints = (
{
horizontal = 1;
place = "{-2147483648, 0}";
type = Tag;
name = hr01;
},
{
horizontal = 1;
place = "{-2147483648, 0}";
type = Tag;
name = hr02;
},
{
horizontal = 1;
place = "{-2147483648, 0}";
type = Tag;
name = hr03;
},
{
horizontal = 1;
place = "{-2147483648, 0}";
type = Tag;
name = hr04;
}
);
layerId = "EC64484B-0978-4CB1-9EE9-C40A2D8C4059";
paths = (
{
closed = 1;
nodes = (
"399 -135 LINE",
"377 -90 LINE",
"399 -45 LINE",
"377 0 LINE",
"354 45 LINE",
"264 45 LINE",
"242 0 LINE",
"152 0 LINE",
"129 45 LINE",
"84 45 LINE",
"62 90 LINE",
"39 135 LINE",
"62 180 LINE",
"84 225 LINE",
"107 270 LINE",
"197 270 LINE",
"219 315 LINE",
"197 360 LINE",
"107 360 LINE",
"84 405 LINE",
"107 450 LINE",
"152 450 LINE",
"174 495 LINE",
"444 495 LINE",
"467 450 LINE",
"512 450 LINE",
"534 405 LINE",
"557 360 LINE",
"579 315 LINE",
"624 315 LINE",
"602 360 LINE",
"579 405 LINE",
"557 450 LINE",
"534 495 LINE",
"489 495 LINE",
"467 540 LINE",
"152 540 LINE",
"129 495 LINE",
"84 495 LINE",
"62 450 LINE",
"39 405 LINE",
"62 360 LINE",
"84 315 LINE",
"62 270 LINE",
"39 225 LINE",
"17 180 LINE",
"-6 135 LINE",
"17 90 LINE",
"39 45 LINE",
"62 0 LINE",
"107 0 LINE",
"129 -45 LINE",
"264 -45 LINE",
"287 0 LINE",
"332 0 LINE",
"354 -45 LINE",
"332 -90 LINE",
"354 -135 LINE",
"377 -180 LINE",
"399 -225 LINE",
"534 -225 LINE",
"557 -180 LINE",
"422 -180 LINE"
);
},
{
closed = 1;
nodes = (
"242 360 LINE",
"264 315 LINE",
"354 315 LINE",
"377 360 LINE",
"354 405 LINE",
"264 405 LINE"
);
},
{
closed = 1;
nodes = (
"557 270 LINE",
"579 225 LINE",
"624 225 LINE",
"602 270 LINE",
"579 315 LINE"
);
},
{
closed = 1;
nodes = (
"242 180 LINE",
"264 135 LINE",
"354 135 LINE",
"377 180 LINE",
"354 225 LINE",
"264 225 LINE"
);
},
{
closed = 1;
nodes = (
"602 180 LINE",
"579 225 LINE",
"557 180 LINE",
"579 135 LINE",
"624 135 LINE"
);
},
{
closed = 1;
nodes = (
"602 90 LINE",
"579 135 LINE",
"557 90 LINE",
"579 45 LINE",
"624 45 LINE"
);
},
{
closed = 1;
nodes = (
"512 -90 LINE",
"534 -135 LINE",
"579 -135 LINE",
"602 -90 LINE",
"557 -90 LINE",
"534 -45 LINE",
"557 0 LINE",
"602 0 LINE",
"579 45 LINE",
"534 45 LINE",
"512 0 LINE",
"489 -45 LINE"
);
},
{
closed = 1;
nodes = (
"579 -135 LINE",
"557 -180 LINE",
"579 -225 LINE",
"602 -180 LINE"
);
}
);
width = 622;
}
);
leftKerningGroup = a;
rightKerningGroup = a;
unicode = 0105;
userData = {
com.typemytype.robofont.guides = (
{
angle = 0;
isGlobal = 0;
magnetic = 5;
x = 0;
y = 22;
},
{
angle = 0;
isGlobal = 0;
magnetic = 5;
x = 0;
y = "-220";
},
{
angle = 90;
isGlobal = 0;
magnetic = 5;
x = 472;
y = 0;
}
);
};
},
{
color = 1;
glyphname = ae;
layers = (
{
hints = (
{
horizontal = 1;
place = "{-2147483648, 0}";
type = Tag;
name = hr01;
},
{
horizontal = 1;
place = "{-2147483648, 0}";
type = Tag;
name = hr02;
},
{
horizontal = 1;
place = "{-2147483648, 0}";
type = Tag;
name = hr03;
}
);
layerId = "EC64484B-0978-4CB1-9EE9-C40A2D8C4059";
paths = (
{
closed = 1;
nodes = (
"557 0 LINE",
"534 45 LINE",
"309 45 LINE",
"287 0 LINE",
"152 0 LINE",
"129 45 LINE",
"84 45 LINE",
"62 90 LINE",
"39 135 LINE",
"62 180 LINE",
"84 225 LINE",
"107 270 LINE",
"197 270 LINE",
"219 315 LINE",
"197 360 LINE",
"107 360 LINE",
"84 405 LINE",
"107 450 LINE",
"152 450 LINE",
"174 495 LINE",
"84 495 LINE",
"62 450 LINE",
"39 405 LINE",
"62 360 LINE",
"84 315 LINE",
"62 270 LINE",
"39 225 LINE",
"17 180 LINE",
"-6 135 LINE",
"17 90 LINE",
"39 45 LINE",
"62 0 LINE",
"107 0 LINE",
"129 -45 LINE",
"309 -45 LINE",
"332 0 LINE",
"512 0 LINE",
"534 -45 LINE",
"714 -45 LINE",
"737 0 LINE",
"759 45 LINE",
"714 45 LINE",
"692 0 LINE"
);
},
{
closed = 1;
nodes = (
"872 450 LINE",
"849 495 LINE",
"759 495 LINE",
"782 450 LINE",
"827 450 LINE",
"849 405 LINE",
"872 360 LINE",
"894 315 LINE",
"939 315 LINE",
"917 360 LINE",
"894 405 LINE"
);
},
{
closed = 1;
nodes = (
"377 360 LINE",
"354 405 LINE",
"264 405 LINE",
"242 360 LINE",
"264 315 LINE",
"354 315 LINE"
);
},
{
closed = 1;
nodes = (
"692 360 LINE",
"669 405 LINE",
"579 405 LINE",
"557 360 LINE",
"579 315 LINE",
"669 315 LINE"
);
},
{
closed = 1;
nodes = (
"872 270 LINE",
"894 225 LINE",
"939 225 LINE",
"917 270 LINE",
"894 315 LINE"
);
},
{
closed = 1;
nodes = (
"377 180 LINE",
"354 225 LINE",
"264 225 LINE",
"242 180 LINE",
"264 135 LINE",
"354 135 LINE"
);
},
{
closed = 1;
nodes = (
"579 225 LINE",
"557 180 LINE",
"579 135 LINE",
"939 135 LINE",
"917 180 LINE",
"894 225 LINE"
);
},
{
closed = 1;
nodes = (
"827 0 LINE",
"849 45 LINE",
"894 45 LINE",
"917 90 LINE",
"894 135 LINE",
"872 90 LINE",
"827 90 LINE",
"804 45 LINE"
);
},
{
closed = 1;
nodes = (
"759 45 LINE",
"782 0 LINE",
"804 45 LINE"
);
}
);
width = 935;
}
);
leftKerningGroup = a;
rightKerningGroup = e;
unicode = 00E6;
userData = {
com.typemytype.robofont.guides = (
{
angle = 0;
isGlobal = 0;
magnetic = 5;
x = 0;
y = "-10";
},
{
angle = 0;
isGlobal = 0;
magnetic = 5;
x = 0;
y = 530;
},
{
angle = 90;
isGlobal = 0;
magnetic = 5;
x = 473;
y = 0;
},
{
angle = 90;
isGlobal = 0;
magnetic = 5;
x = "-379";
y = 0;
},
{
angle = 90;
isGlobal = 0;
magnetic = 5;
x = 453;
y = 0;
}
);
};
},
{
color = 1;
glyphname = b;
layers = (
{
hints = (
{
horizontal = 1;
place = "{-2147483648, 0}";
type = Tag;
name = hr01;
},
{
horizontal = 1;
place = "{-2147483648, 0}";
type = Tag;
name = hr02;
}
);
layerId = "EC64484B-0978-4CB1-9EE9-C40A2D8C4059";
paths = (
{
closed = 1;
nodes = (
"472 45 LINE",
"450 0 LINE",
"360 0 LINE",
"337 45 LINE",
"67 45 LINE",
"90 90 LINE",
"67 135 LINE",
"90 180 LINE",
"67 225 LINE",
"90 270 LINE",
"67 315 LINE",
"90 360 LINE",
"67 405 LINE",
"90 450 LINE",
"67 495 LINE",
"90 540 LINE",
"67 585 LINE",
"90 630 LINE",
"67 675 LINE",
"22 675 LINE",
"45 630 LINE",
"22 585 LINE",
"45 540 LINE",
"22 495 LINE",
"45 450 LINE",
"22 405 LINE",
"45 360 LINE",
"22 315 LINE",
"45 270 LINE",
"22 225 LINE",
"45 180 LINE",
"22 135 LINE",
"45 90 LINE",
"22 45 LINE",
"45 0 LINE",
"315 0 LINE",
"337 -45 LINE",
"472 -45 LINE",
"495 0 LINE",
"585 0 LINE",
"607 45 LINE",
"630 90 LINE",
"607 135 LINE",
"585 90 LINE",
"562 45 LINE"
);
},
{
closed = 1;
nodes = (
"562 495 LINE",
"540 540 LINE",
"315 540 LINE",
"292 585 LINE",
"315 630 LINE",
"292 675 LINE",
"247 675 LINE",
"270 630 LINE",
"247 585 LINE",
"270 540 LINE",
"247 495 LINE",
"270 450 LINE",
"315 450 LINE",
"337 495 LINE",
"517 495 LINE",
"540 450 LINE",
"562 405 LINE",
"652 405 LINE",
"630 450 LINE",
"585 450 LINE"
);
},
{
closed = 1;
nodes = (
"585 360 LINE",
"607 315 LINE",
"652 315 LINE",
"630 360 LINE",
"607 405 LINE"
);
},
{
closed = 1;
nodes = (
"292 315 LINE",
"337 315 LINE",
"360 270 LINE",
"382 225 LINE",
"360 180 LINE",
"315 180 LINE",
"292 225 LINE",
"270 180 LINE",
"292 135 LINE",
"382 135 LINE",
"405 180 LINE",
"427 225 LINE",
"405 270 LINE",
"382 315 LINE",
"360 360 LINE",
"270 360 LINE",
"247 315 LINE",
"270 270 LINE",
"247 225 LINE",
"292 225 LINE",
"315 270 LINE"
);
},
{
closed = 1;
nodes = (
"630 270 LINE",
"607 315 LINE",
"585 270 LINE",
"607 225 LINE",
"652 225 LINE"
);
},
{
closed = 1;
nodes = (
"630 180 LINE",
"607 225 LINE",
"585 180 LINE",
"607 135 LINE",
"652 135 LINE"
);
}
);
width = 661;
}
);
leftKerningGroup = h;
rightKerningGroup = b;
unicode = 0062;
userData = {
com.typemytype.robofont.guides = (
{
angle = 0;
isGlobal = 0;
magnetic = 5;
x = 0;
y = 530;
},
{
angle = 0;
isGlobal = 0;
magnetic = 5;
x = 0;
y = "-10";
},
{
angle = 0;
isGlobal = 0;
magnetic = 5;
x = 0;
y = 710;
},
{
angle = 0;
isGlobal = 0;
magnetic = 5;
x = 0;
y = 288;
},
{
angle = 0;
isGlobal = 0;
magnetic = 5;
x = 0;
y = 232;
},
{
angle = 0;
isGlobal = 0;
magnetic = 5;
x = 0;
y = 451;
},
{
angle = 0;
isGlobal = 0;
magnetic = 5;
x = 0;
y = 69;
},
{
angle = 90;
isGlobal = 0;
magnetic = 5;
x = 121;
y = 0;
},
{
angle = 90;
isGlobal = 0;
magnetic = 5;
x = 79;
y = 0;
}
);
};
},
{
color = 1;
glyphname = c;
layers = (
{
hints = (
{
horizontal = 1;
place = "{-2147483648, 0}";
type = Tag;
name = hr01;
},
{
horizontal = 1;
place = "{-2147483648, 0}";
type = Tag;
name = hr02;
}
);
layerId = "EC64484B-0978-4CB1-9EE9-C40A2D8C4059";
paths = (
{
closed = 1;
nodes = (
"366 225 LINE",
"344 180 LINE",
"299 180 LINE",
"276 225 LINE",
"299 270 LINE",
"321 315 LINE",
"366 315 LINE",
"389 270 LINE",
"569 270 LINE",
"591 315 LINE",
"614 360 LINE",
"591 405 LINE",
"569 450 LINE",
"546 495 LINE",
"501 495 LINE",
"479 450 LINE",
"524 450 LINE",
"546 405 LINE",
"569 360 LINE",
"546 315 LINE",
"411 315 LINE",
"389 360 LINE",
"299 360 LINE",
"276 315 LINE",
"254 270 LINE",
"231 225 LINE",
"254 180 LINE",
"276 135 LINE",
"366 135 LINE",
"389 180 LINE",
"569 180 LINE",
"546 135 LINE",
"524 90 LINE",
"501 45 LINE",
"411 45 LINE",
"389 0 LINE",
"254 0 LINE",
"231 45 LINE",
"141 45 LINE",
"119 90 LINE",
"96 135 LINE",
"51 135 LINE",
"74 180 LINE",
"51 225 LINE",
"74 270 LINE",
"51 315 LINE",
"74 360 LINE",
"96 405 LINE",
"119 450 LINE",
"164 450 LINE",
"186 495 LINE",
"96 495 LINE",
"74 450 LINE",
"51 405 LINE",
"29 360 LINE",
"6 315 LINE",
"29 270 LINE",
"6 225 LINE",
"29 180 LINE",
"6 135 LINE",
"29 90 LINE",
"74 90 LINE",
"96 45 LINE",
"119 0 LINE",
"209 0 LINE",
"231 -45 LINE",
"411 -45 LINE",
"434 0 LINE",
"524 0 LINE",
"546 45 LINE",
"569 90 LINE",
"591 135 LINE",
"614 180 LINE",
"591 225 LINE"
);
}
);
width = 622;
}
);
leftKerningGroup = o;
rightKerningGroup = c;
unicode = 0063;
userData = {
com.typemytype.robofont.guides = (
{
angle = 0;
isGlobal = 0;
magnetic = 5;
x = 0;
y = "-10";
},
{
angle = 0;
isGlobal = 0;
magnetic = 5;
x = 0;
y = 295;
},
{
angle = 0;
isGlobal = 0;
magnetic = 5;
x = 0;
y = 225;
},
{
angle = 90;
isGlobal = 0;
magnetic = 5;
x = 445;
y = 0;
},
{
angle = 90;
isGlobal = 0;
magnetic = 5;
x = 484;
y = 0;
},
{
angle = 90;
isGlobal = 0;
magnetic = 5;
x = 137;
y = 0;
},
{
angle = 90;
isGlobal = 0;
magnetic = 5;
x = 270;
y = 0;
}
);
};
},
{
color = 1;
glyphname = ccedilla;
layers = (
{
hints = (
{
horizontal = 1;
place = "{-2147483648, 0}";
type = Tag;
name = hr01;
},
{
horizontal = 1;
place = "{-2147483648, 0}";
type = Tag;
name = hr02;
}
);
layerId = "EC64484B-0978-4CB1-9EE9-C40A2D8C4059";
paths = (
{
closed = 1;
nodes = (
"51 315 LINE",
"74 360 LINE",
"96 405 LINE",
"119 450 LINE",
"164 450 LINE",
"186 495 LINE",
"231 495 LINE",
"254 540 LINE",
"164 540 LINE",
"141 495 LINE",
"96 495 LINE",
"74 450 LINE",
"51 405 LINE",
"29 360 LINE",
"6 315 LINE",
"29 270 LINE",
"6 225 LINE",
"29 180 LINE",
"6 135 LINE",
"51 135 LINE",
"74 180 LINE",
"51 225 LINE",
"74 270 LINE"
);
},
{
closed = 1;
nodes = (
"366 225 LINE",
"344 180 LINE",
"299 180 LINE",
"276 225 LINE",
"299 270 LINE",
"321 315 LINE",
"366 315 LINE",
"389 270 LINE",
"569 270 LINE",
"591 315 LINE",
"614 360 LINE",
"591 405 LINE",
"569 450 LINE",
"546 495 LINE",
"501 495 LINE",
"479 540 LINE",
"299 540 LINE",
"321 495 LINE",
"456 495 LINE",
"479 450 LINE",
"524 450 LINE",
"546 405 LINE",
"569 360 LINE",
"546 315 LINE",
"411 315 LINE",
"389 360 LINE",
"299 360 LINE",
"276 315 LINE",
"254 270 LINE",
"231 225 LINE",
"254 180 LINE",
"276 135 LINE",
"366 135 LINE",
"389 180 LINE",
"569 180 LINE",
"546 135 LINE",
"524 90 LINE",
"501 45 LINE",
"411 45 LINE",
"389 0 LINE",
"344 0 LINE",
"321 -45 LINE",
"344 -90 LINE",
"389 -90 LINE",
"366 -135 LINE",
"389 -180 LINE",
"344 -180 LINE",
"366 -135 LINE",
"344 -90 LINE",
"254 -90 LINE",
"276 -45 LINE",
"254 0 LINE",
"231 45 LINE",
"96 45 LINE",
"119 0 LINE",
"209 0 LINE",
"231 -45 LINE",
"209 -90 LINE",
"231 -135 LINE",
"209 -180 LINE",
"231 -225 LINE",
"411 -225 LINE",
"434 -180 LINE",
"411 -135 LINE",
"434 -90 LINE",
"411 -45 LINE",
"434 0 LINE",
"524 0 LINE",
"546 45 LINE",
"569 90 LINE",
"591 135 LINE",
"614 180 LINE",
"591 225 LINE"
);
},
{
closed = 1;
nodes = (
"276 495 LINE",
"299 540 LINE",
"254 540 LINE"
);
},
{
closed = 1;
nodes = (
"29 90 LINE",
"74 90 LINE",
"96 45 LINE",
"119 90 LINE",
"96 135 LINE",
"51 135 LINE"
);
},
{
closed = 1;
nodes = (
"299 -180 LINE",
"276 -135 LINE",
"321 -135 LINE"
);
}
);
width = 622;
}
);
leftKerningGroup = o;
rightKerningGroup = c;
unicode = 00E7;
},
{
color = 1;
glyphname = d;
layers = (
{
hints = (
{
horizontal = 1;
place = "{-2147483648, 0}";
type = Tag;
name = hr01;
},
{
horizontal = 1;
place = "{-2147483648, 0}";
type = Tag;
name = hr02;
}
);
layerId = "EC64484B-0978-4CB1-9EE9-C40A2D8C4059";
paths = (
{
closed = 1;
nodes = (
"323 45 LINE",
"301 0 LINE",
"211 0 LINE",
"188 45 LINE",
"98 45 LINE",
"76 90 LINE",
"53 135 LINE",
"76 180 LINE",
"53 225 LINE",
"76 270 LINE",
"53 315 LINE",
"76 360 LINE",
"53 405 LINE",
"98 405 LINE",
"121 450 LINE",
"143 495 LINE",
"323 495 LINE",
"346 450 LINE",
"391 450 LINE",
"413 495 LINE",
"391 540 LINE",
"413 585 LINE",
"391 630 LINE",
"413 675 LINE",
"368 675 LINE",
"346 630 LINE",
"368 585 LINE",
"346 540 LINE",
"121 540 LINE",
"98 495 LINE",
"76 450 LINE",
"31 450 LINE",
"8 405 LINE",
"31 360 LINE",
"8 315 LINE",
"31 270 LINE",
"8 225 LINE",
"31 180 LINE",
"8 135 LINE",
"31 90 LINE",
"53 45 LINE",
"76 0 LINE",
"166 0 LINE",
"188 -45 LINE",
"323 -45 LINE",
"346 0 LINE",
"616 0 LINE",
"593 45 LINE"
);
},
{
closed = 1;
nodes = (
"638 585 LINE",
"616 630 LINE",
"593 585 LINE"
);
},
{
closed = 1;
nodes = (
"616 540 LINE",
"593 495 LINE",
"638 495 LINE"
);
},
{
closed = 1;
nodes = (
"616 450 LINE",
"593 405 LINE",
"638 405 LINE"
);
},
{
closed = 1;
nodes = (
"301 360 LINE",
"278 315 LINE",
"256 270 LINE",
"233 225 LINE",
"256 180 LINE",
"278 135 LINE",
"368 135 LINE",
"391 180 LINE",
"413 225 LINE",
"391 270 LINE",
"413 315 LINE",
"391 360 LINE"
);
},
{
closed = 1;
nodes = (
"616 360 LINE",
"593 315 LINE",
"638 315 LINE"
);
},
{
closed = 1;
nodes = (
"346 180 LINE",
"301 180 LINE",
"278 225 LINE",
"301 270 LINE",
"323 315 LINE",
"368 315 LINE",
"346 270 LINE",
"368 225 LINE"
);
},
{
closed = 1;
nodes = (
"616 270 LINE",
"593 225 LINE",
"638 225 LINE"
);
},
{
closed = 1;
nodes = (
"616 180 LINE",
"593 135 LINE",
"638 135 LINE"
);
},
{
closed = 1;
nodes = (
"638 45 LINE",
"616 90 LINE",
"593 45 LINE"
);
}
);
width = 661;
}
);
leftKerningGroup = d;
rightKerningGroup = d;
unicode = 0064;
userData = {
com.typemytype.robofont.guides = (
{
angle = 0;
isGlobal = 0;
magnetic = 5;
x = 0;
y = 650;
},
{
angle = 0;
isGlobal = 0;
magnetic = 5;
x = 0;
y = 530;
},
{
angle = 90;
isGlobal = 0;
magnetic = 5;
x = 438;
y = 0;
},
{
angle = 90;
isGlobal = 0;
magnetic = 5;
x = 499;
y = 0;
}
);
};
},
{
color = 1;
glyphname = eth;
layers = (
{
hints = (
{
horizontal = 1;
place = "{-2147483648, 0}";
type = Tag;
name = hr01;
}
);
layerId = "EC64484B-0978-4CB1-9EE9-C40A2D8C4059";
paths = (
{
closed = 1;
nodes = (
"498 45 LINE",
"408 45 LINE",
"386 0 LINE",
"251 0 LINE",
"228 45 LINE",
"138 45 LINE",
"116 90 LINE",
"71 90 LINE",
"48 135 LINE",
"71 180 LINE",
"48 225 LINE",
"71 270 LINE",
"48 315 LINE",
"71 360 LINE",
"116 360 LINE",
"138 405 LINE",
"183 405 LINE",
"206 450 LINE",
"296 450 LINE",
"318 495 LINE",
"296 540 LINE",
"251 540 LINE",
"273 585 LINE",
"251 630 LINE",
"206 630 LINE",
"183 675 LINE",
"138 675 LINE",
"161 630 LINE",
"183 585 LINE",
"138 585 LINE",
"116 540 LINE",
"138 495 LINE",
"161 450 LINE",
"116 450 LINE",
"93 405 LINE",
"48 405 LINE",
"26 360 LINE",
"3 315 LINE",
"26 270 LINE",
"3 225 LINE",
"26 180 LINE",
"3 135 LINE",
"26 90 LINE",
"48 45 LINE",
"93 45 LINE",
"116 0 LINE",
"206 0 LINE",
"228 -45 LINE",
"408 -45 LINE",
"431 0 LINE",
"521 0 LINE",
"543 45 LINE",
"566 90 LINE",
"588 135 LINE",
"611 180 LINE",
"588 225 LINE",
"566 180 LINE",
"543 135 LINE",
"521 90 LINE"
);
},
{
closed = 1;
nodes = (
"408 675 LINE",
"431 630 LINE",
"476 630 LINE",
"498 675 LINE"
);
},
{
closed = 1;
nodes = (
"566 540 LINE",
"543 585 LINE",
"566 630 LINE",
"588 675 LINE",
"543 675 LINE",
"521 630 LINE",
"498 585 LINE",
"521 540 LINE",
"543 495 LINE",
"566 450 LINE",
"588 405 LINE",
"633 405 LINE",
"611 450 LINE",
"588 495 LINE"
);
},
{
closed = 1;
nodes = (
"183 495 LINE",
"161 540 LINE",
"206 540 LINE"
);
},
{
closed = 1;
nodes = (
"566 360 LINE",
"588 315 LINE",
"633 315 LINE",
"611 360 LINE",
"588 405 LINE"
);
},
{
closed = 1;
nodes = (
"228 225 LINE",
"251 180 LINE",
"273 135 LINE",
"363 135 LINE",
"386 180 LINE",
"363 225 LINE",
"386 270 LINE",
"363 315 LINE",
"273 315 LINE",
"251 270 LINE"
);
},
{
closed = 1;
nodes = (
"611 270 LINE",
"588 315 LINE",
"566 270 LINE",
"588 225 LINE",
"633 225 LINE"
);
},
{
closed = 1;
nodes = (
"341 180 LINE",
"296 180 LINE",
"273 225 LINE",
"296 270 LINE",
"341 270 LINE",
"318 225 LINE"
);
}
);
width = 638;
}
);
unicode = 00F0;
userData = {
com.typemytype.robofont.guides = (
{
angle = 0;
isGlobal = 0;
magnetic = 5;
x = 0;
y = 512;
},
{
angle = 90;
isGlobal = 0;
magnetic = 5;
x = 214;
y = 0;
},
{
angle = 90;
isGlobal = 0;
magnetic = 5;
x = 484;
y = 0;
}
);
};
},
{
color = 1;
glyphname = dcroat;
layers = (
{
hints = (
{
horizontal = 1;
place = "{-2147483648, 0}";
type = Tag;
name = hr01;
},
{
horizontal = 1;
place = "{-2147483648, 0}";
type = Tag;
name = hr02;
}
);
layerId = "EC64484B-0978-4CB1-9EE9-C40A2D8C4059";
paths = (
{
closed = 1;
nodes = (
"616 180 LINE",
"593 135 LINE",
"616 90 LINE",
"593 45 LINE",
"323 45 LINE",
"301 0 LINE",
"211 0 LINE",
"188 45 LINE",
"98 45 LINE",
"76 90 LINE",
"53 135 LINE",
"76 180 LINE",
"53 225 LINE",
"76 270 LINE",
"53 315 LINE",
"76 360 LINE",
"53 405 LINE",
"98 405 LINE",
"121 450 LINE",
"143 495 LINE",
"323 495 LINE",
"346 450 LINE",
"391 450 LINE",
"413 495 LINE",
"391 540 LINE",
"368 585 LINE",
"323 585 LINE",
"346 630 LINE",
"391 630 LINE",
"413 675 LINE",
"323 675 LINE",
"301 630 LINE",
"278 585 LINE",
"301 540 LINE",
"121 540 LINE",
"98 495 LINE",
"76 450 LINE",
"31 450 LINE",
"8 405 LINE",
"31 360 LINE",
"8 315 LINE",
"31 270 LINE",
"8 225 LINE",
"31 180 LINE",
"8 135 LINE",
"31 90 LINE",
"53 45 LINE",
"76 0 LINE",
"166 0 LINE",
"188 -45 LINE",
"323 -45 LINE",
"346 0 LINE",
"616 0 LINE",
"638 45 LINE",
"661 90 LINE",
"638 135 LINE",
"661 180 LINE",
"638 225 LINE",
"661 270 LINE",
"638 315 LINE",
"593 315 LINE",
"616 270 LINE",
"593 225 LINE"
);
},
{
closed = 1;
nodes = (
"593 675 LINE",
"616 630 LINE",
"661 630 LINE",
"638 585 LINE",
"616 540 LINE",
"593 495 LINE",
"616 450 LINE",
"593 405 LINE",
"616 360 LINE",
"638 315 LINE",
"661 360 LINE",
"638 405 LINE",
"661 450 LINE",
"638 495 LINE",
"661 540 LINE",
"683 585 LINE",
"706 630 LINE",
"683 675 LINE"
);
},
{
closed = 1;
nodes = (
"301 360 LINE",
"278 315 LINE",
"256 270 LINE",
"233 225 LINE",
"256 180 LINE",
"278 135 LINE",
"368 135 LINE",
"391 180 LINE",
"413 225 LINE",
"391 270 LINE",
"413 315 LINE",
"391 360 LINE"
);
},
{
closed = 1;
nodes = (
"346 180 LINE",
"301 180 LINE",
"278 225 LINE",
"301 270 LINE",
"323 315 LINE",
"368 315 LINE",
"346 270 LINE",
"368 225 LINE"
);
}
);
width = 662;
}
);
leftKerningGroup = d;
rightKerningGroup = d;
unicode = 0111;
userData = {
com.typemytype.robofont.guides = (
{
angle = 0;
isGlobal = 0;
magnetic = 5;
x = 0;
y = 600;
}
);
};
},
{
color = 1;
glyphname = e;
layers = (
{
hints = (
{
horizontal = 1;
place = "{-2147483648, 0}";
type = Tag;
name = hr01;
}
);
layerId = "EC64484B-0978-4CB1-9EE9-C40A2D8C4059";
paths = (
{
closed = 1;
nodes = (
"275 225 LINE",
"253 180 LINE",
"275 135 LINE",
"545 135 LINE",
"523 90 LINE",
"500 45 LINE",
"410 45 LINE",
"388 0 LINE",
"253 0 LINE",
"230 45 LINE",
"140 45 LINE",
"118 90 LINE",
"95 135 LINE",
"50 135 LINE",
"73 180 LINE",
"50 225 LINE",
"73 270 LINE",
"50 315 LINE",
"73 360 LINE",
"95 405 LINE",
"118 450 LINE",
"163 450 LINE",
"185 495 LINE",
"95 495 LINE",
"73 450 LINE",
"50 405 LINE",
"28 360 LINE",
"5 315 LINE",
"28 270 LINE",
"5 225 LINE",
"28 180 LINE",
"5 135 LINE",
"28 90 LINE",
"73 90 LINE",
"95 45 LINE",
"118 0 LINE",
"208 0 LINE",
"230 -45 LINE",
"410 -45 LINE",
"433 0 LINE",
"523 0 LINE",
"545 45 LINE",
"568 90 LINE",
"590 135 LINE",
"568 180 LINE",
"613 180 LINE",
"590 225 LINE"
);
},
{
closed = 1;
nodes = (
"568 450 LINE",
"545 495 LINE",
"455 495 LINE",
"478 450 LINE",
"523 450 LINE",
"545 405 LINE",
"568 360 LINE",
"590 315 LINE",
"635 315 LINE",
"613 360 LINE",
"590 405 LINE"
);
},
{
closed = 1;
nodes = (
"388 360 LINE",
"365 405 LINE",
"275 405 LINE",
"253 360 LINE",
"275 315 LINE",
"365 315 LINE"
);
},
{
closed = 1;
nodes = (
"568 270 LINE",
"590 225 LINE",
"635 225 LINE",
"613 270 LINE",
"590 315 LINE"
);
}
);
width = 623;
}
);
leftKerningGroup = o;
rightKerningGroup = e;
unicode = 0065;
userData = {
com.typemytype.robofont.guides = (
{
angle = 0;
isGlobal = 0;
magnetic = 5;
x = 0;
y = "-10";
},
{
angle = 90;
isGlobal = 0;
magnetic = 5;
x = 275;
y = 0;
},
{
angle = 90;
isGlobal = 0;
magnetic = 5;
x = 496;
y = 0;
},
{
angle = 90;
isGlobal = 0;
magnetic = 5;
x = 61;
y = 0;
},
{
angle = 90;
isGlobal = 0;
magnetic = 5;
x = 122;
y = 0;
},
{
angle = 90;
isGlobal = 0;
magnetic = 5;
x = 430;
y = 0;
}
);
};
},
{
color = 1;
glyphname = eogonek;
layers = (
{
hints = (
{
horizontal = 1;
place = "{-2147483648, 0}";
type = Tag;
name = hr01;
},
{
horizontal = 1;
place = "{-2147483648, 0}";
type = Tag;
name = hr02;
},
{
horizontal = 1;
place = "{-2147483648, 0}";
type = Tag;
name = hr03;
}
);
layerId = "EC64484B-0978-4CB1-9EE9-C40A2D8C4059";
paths = (
{
closed = 1;
nodes = (
"275 225 LINE",
"253 180 LINE",
"275 135 LINE",
"545 135 LINE",
"523 90 LINE",
"500 45 LINE",
"410 45 LINE",
"388 0 LINE",
"343 0 LINE",
"320 -45 LINE",
"343 -90 LINE",
"365 -135 LINE",
"388 -180 LINE",
"253 -180 LINE",
"230 -135 LINE",
"208 -90 LINE",
"230 -45 LINE",
"208 0 LINE",
"185 45 LINE",
"140 45 LINE",
"118 90 LINE",
"95 135 LINE",
"50 135 LINE",
"73 180 LINE",
"50 225 LINE",
"73 270 LINE",
"50 315 LINE",
"73 360 LINE",
"95 405 LINE",
"118 450 LINE",
"163 450 LINE",
"185 495 LINE",
"320 495 LINE",
"298 540 LINE",
"163 540 LINE",
"140 495 LINE",
"95 495 LINE",
"73 450 LINE",
"50 405 LINE",
"28 360 LINE",
"5 315 LINE",
"28 270 LINE",
"5 225 LINE",
"28 180 LINE",
"5 135 LINE",
"28 90 LINE",
"73 90 LINE",
"95 45 LINE",
"118 0 LINE",
"163 0 LINE",
"185 -45 LINE",
"163 -90 LINE",
"185 -135 LINE",
"208 -180 LINE",
"230 -225 LINE",
"410 -225 LINE",
"433 -180 LINE",
"410 -135 LINE",
"388 -90 LINE",
"365 -45 LINE",
"410 -45 LINE",
"433 0 LINE",
"523 0 LINE",
"545 45 LINE",
"568 90 LINE",
"590 135 LINE",
"568 180 LINE",
"613 180 LINE",
"590 225 LINE"
);
},
{
closed = 1;
nodes = (
"478 450 LINE",
"523 450 LINE",
"545 405 LINE",
"568 360 LINE",
"590 315 LINE",
"635 315 LINE",
"613 360 LINE",
"590 405 LINE",
"568 450 LINE",
"545 495 LINE",
"500 495 LINE",
"478 540 LINE",
"343 540 LINE",
"320 495 LINE",
"455 495 LINE"
);
},
{
closed = 1;
nodes = (
"253 360 LINE",
"275 315 LINE",
"365 315 LINE",
"388 360 LINE",
"365 405 LINE",
"275 405 LINE"
);
},
{
closed = 1;
nodes = (
"568 270 LINE",
"590 225 LINE",
"635 225 LINE",
"613 270 LINE",
"590 315 LINE"
);
}
);
width = 623;
}
);
leftKerningGroup = o;
rightKerningGroup = e;
unicode = 0119;
userData = {
com.typemytype.robofont.guides = (
{
angle = 0;
isGlobal = 0;
magnetic = 5;
x = 0;
y = 259;
},
{
angle = 0;
isGlobal = 0;
magnetic = 5;
x = 0;
y = "-220";
},
{
angle = 90;
isGlobal = 0;
magnetic = 5;
x = 339;
y = 0;
}
);
};
},
{
color = 1;
glyphname = f;
layers = (
{
hints = (
{
horizontal = 1;
place = "{-2147483648, 0}";
type = Tag;
name = hr00;
}
);
layerId = "EC64484B-0978-4CB1-9EE9-C40A2D8C4059";
paths = (
{
closed = 1;
nodes = (
"330 45 LINE",
"150 45 LINE",
"127 90 LINE",
"150 135 LINE",
"127 180 LINE",
"150 225 LINE",
"127 270 LINE",
"150 315 LINE",
"127 360 LINE",
"37 360 LINE",
"60 405 LINE",
"37 450 LINE",
"60 495 LINE",
"105 495 LINE",
"127 540 LINE",
"150 585 LINE",
"172 630 LINE",
"195 675 LINE",
"240 675 LINE",
"262 720 LINE",
"532 720 LINE",
"510 765 LINE",
"240 765 LINE",
"217 720 LINE",
"172 720 LINE",
"150 675 LINE",
"127 630 LINE",
"105 585 LINE",
"82 540 LINE",
"37 540 LINE",
"15 495 LINE",
"-8 450 LINE",
"15 405 LINE",
"-8 360 LINE",
"15 315 LINE",
"105 315 LINE",
"82 270 LINE",
"105 225 LINE",
"82 180 LINE",
"105 135 LINE",
"82 90 LINE",
"105 45 LINE",
"127 0 LINE",
"352 0 LINE",
"375 45 LINE",
"352 90 LINE",
"375 135 LINE",
"352 180 LINE",
"330 225 LINE",
"307 180 LINE",
"330 135 LINE",
"307 90 LINE"
);
},
{
closed = 1;
nodes = (
"465 675 LINE",
"487 630 LINE",
"532 630 LINE",
"510 675 LINE",
"487 720 LINE"
);
},
{
closed = 1;
nodes = (
"330 585 LINE",
"307 540 LINE",
"330 495 LINE",
"465 495 LINE",
"442 450 LINE",
"465 405 LINE",
"442 360 LINE",
"352 360 LINE",
"330 315 LINE",
"307 270 LINE",
"330 225 LINE",
"375 225 LINE",
"352 270 LINE",
"375 315 LINE",
"465 315 LINE",
"487 360 LINE",
"510 405 LINE",
"487 450 LINE",
"510 495 LINE",
"487 540 LINE",
"510 585 LINE",
"487 630 LINE",
"465 585 LINE"
);
}
);
width = 492;
}
);
leftKerningGroup = f;
rightKerningGroup = f;
unicode = 0066;
userData = {
com.typemytype.robofont.guides = (
{
angle = 0;
isGlobal = 0;
magnetic = 5;
x = 0;
y = 345;
},
{
angle = 0;
isGlobal = 0;
magnetic = 5;
x = 0;
y = 9;
},
{
angle = 0;
isGlobal = 0;
magnetic = 5;
x = 0;
y = 740;
},
{
angle = 90;
isGlobal = 0;
magnetic = 5;
x = 297;
y = 0;
},
{
angle = 90;
isGlobal = 0;
magnetic = 5;
x = 371;
y = 0;
}
);
};
},
{
color = 1;
glyphname = g;
layers = (
{
hints = (
{
horizontal = 1;
place = "{-2147483648, 0}";
type = Tag;
name = hr01;
},
{
horizontal = 1;
place = "{-2147483648, 0}";
type = Tag;
name = hr02;
},
{
horizontal = 1;
place = "{-2147483648, 0}";
type = Tag;
name = hr03;
}
);
layerId = "EC64484B-0978-4CB1-9EE9-C40A2D8C4059";
paths = (
{
closed = 1;
nodes = (
"637 495 LINE",
"615 540 LINE",
"390 540 LINE",
"367 495 LINE",
"345 540 LINE",
"120 540 LINE",
"97 495 LINE",
"52 495 LINE",
"30 450 LINE",
"7 405 LINE",
"30 360 LINE",
"7 315 LINE",
"52 315 LINE",
"75 360 LINE",
"52 405 LINE",
"75 450 LINE",
"120 450 LINE",
"142 495 LINE",
"322 495 LINE",
"345 450 LINE",
"390 450 LINE",
"412 495 LINE",
"592 495 LINE",
"615 450 LINE",
"592 405 LINE",
"615 360 LINE",
"592 315 LINE",
"615 270 LINE",
"592 225 LINE",
"615 180 LINE",
"592 135 LINE",
"615 90 LINE",
"592 45 LINE",
"615 0 LINE",
"592 -45 LINE",
"570 -90 LINE",
"547 -135 LINE",
"502 -135 LINE",
"480 -180 LINE",
"165 -180 LINE",
"142 -135 LINE",
"97 -135 LINE",
"75 -90 LINE",
"52 -45 LINE",
"277 -45 LINE",
"300 -90 LINE",
"345 -90 LINE",
"367 -45 LINE",
"390 0 LINE",
"412 45 LINE",
"390 90 LINE",
"345 90 LINE",
"322 45 LINE",
"142 45 LINE",
"120 90 LINE",
"97 135 LINE",
"75 180 LINE",
"52 225 LINE",
"7 225 LINE",
"30 180 LINE",
"52 135 LINE",
"75 90 LINE",
"97 45 LINE",
"120 0 LINE",
"30 0 LINE",
"7 -45 LINE",
"30 -90 LINE",
"52 -135 LINE",
"75 -180 LINE",
"120 -180 LINE",
"142 -225 LINE",
"502 -225 LINE",
"525 -180 LINE",
"570 -180 LINE",
"592 -135 LINE",
"615 -90 LINE",
"637 -45 LINE",
"660 0 LINE",
"637 45 LINE",
"660 90 LINE",
"637 135 LINE",
"660 180 LINE",
"637 225 LINE",
"660 270 LINE",
"637 315 LINE",
"660 360 LINE",
"637 405 LINE",
"660 450 LINE"
);
},
{
closed = 1;
nodes = (
"390 180 LINE",
"412 225 LINE",
"390 270 LINE",
"412 315 LINE",
"390 360 LINE",
"300 360 LINE",
"277 315 LINE",
"255 270 LINE",
"277 225 LINE",
"300 180 LINE"
);
},
{
closed = 1;
nodes = (
"52 225 LINE",
"75 270 LINE",
"52 315 LINE",
"30 270 LINE"
);
},
{
closed = 1;
nodes = (
"345 270 LINE",
"367 225 LINE",
"322 225 LINE",
"300 270 LINE",
"322 315 LINE",
"367 315 LINE"
);
},
{
closed = 1;
nodes = (
"300 0 LINE",
"345 0 LINE",
"322 -45 LINE"
);
}
);
width = 666;
}
);
leftKerningGroup = g;
rightKerningGroup = u;
unicode = 0067;
userData = {
com.typemytype.robofont.guides = (
{
angle = 0;
isGlobal = 0;
magnetic = 5;
x = 0;
y = 530;
},
{
angle = 0;
isGlobal = 0;
magnetic = 5;
x = 0;
y = "-220";
},
{
angle = 0;
isGlobal = 0;
magnetic = 5;
x = 0;
y = 288;
},
{
angle = 0;
isGlobal = 0;
magnetic = 5;
x = 0;
y = 232;
},
{
angle = 90;
isGlobal = 0;
magnetic = 5;
x = 56;
y = 0;
},
{
angle = 90;
isGlobal = 0;
magnetic = 5;
x = 270;
y = 0;
}
);
};
},
{
color = 1;
glyphname = h;
layers = (
{
layerId = "EC64484B-0978-4CB1-9EE9-C40A2D8C4059";
paths = (
{
closed = 1;
nodes = (
"292 180 LINE",
"270 135 LINE",
"292 90 LINE",
"270 45 LINE",
"90 45 LINE",
"67 90 LINE",
"90 135 LINE",
"67 180 LINE",
"90 225 LINE",
"67 270 LINE",
"90 315 LINE",
"67 360 LINE",
"90 405 LINE",
"67 450 LINE",
"90 495 LINE",
"67 540 LINE",
"90 585 LINE",
"67 630 LINE",
"90 675 LINE",
"270 675 LINE",
"292 630 LINE",
"315 675 LINE",
"292 720 LINE",
"67 720 LINE",
"45 675 LINE",
"22 630 LINE",
"45 585 LINE",
"22 540 LINE",
"45 495 LINE",
"22 450 LINE",
"45 405 LINE",
"22 360 LINE",
"45 315 LINE",
"22 270 LINE",
"45 225 LINE",
"22 180 LINE",
"45 135 LINE",
"22 90 LINE",
"45 45 LINE",
"67 0 LINE",
"292 0 LINE",
"315 45 LINE",
"337 90 LINE",
"315 135 LINE",
"337 180 LINE",
"315 225 LINE",
"337 270 LINE",
"315 315 LINE",
"270 315 LINE",
"292 270 LINE",
"270 225 LINE"
);
},
{
closed = 1;
nodes = (
"315 585 LINE",
"337 630 LINE",
"292 630 LINE"
);
},
{
closed = 1;
nodes = (
"652 360 LINE",
"630 405 LINE",
"607 450 LINE",
"585 495 LINE",
"562 540 LINE",
"337 540 LINE",
"315 585 LINE",
"270 585 LINE",
"292 540 LINE",
"270 495 LINE",
"292 450 LINE",
"337 450 LINE",
"360 495 LINE",
"540 495 LINE",
"562 450 LINE",
"585 405 LINE",
"607 360 LINE",
"630 315 LINE",
"607 270 LINE",
"630 225 LINE",
"607 180 LINE",
"630 135 LINE",
"607 90 LINE",
"630 45 LINE",
"405 45 LINE",
"427 90 LINE",
"405 135 LINE",
"427 180 LINE",
"405 225 LINE",
"427 270 LINE",
"405 315 LINE",
"382 360 LINE",
"292 360 LINE",
"315 315 LINE",
"360 315 LINE",
"382 270 LINE",
"360 225 LINE",
"382 180 LINE",
"360 135 LINE",
"382 90 LINE",
"360 45 LINE",
"382 0 LINE",
"652 0 LINE",
"675 45 LINE",
"652 90 LINE",
"675 135 LINE",
"652 180 LINE",
"675 225 LINE",
"652 270 LINE",
"675 315 LINE"
);
}
);
width = 685;
}
);
leftKerningGroup = h;
rightKerningGroup = n;
unicode = 0068;
userData = {
com.typemytype.robofont.guides = (
{
angle = 0;
isGlobal = 0;
magnetic = 5;
x = 0;
y = 9;
},
{
angle = 0;
isGlobal = 0;
magnetic = 5;
x = 0;
y = 301;
},
{
angle = 0;
isGlobal = 0;
magnetic = 5;
x = 0;
y = 414;
},
{
angle = 0;
isGlobal = 0;
magnetic = 5;
x = 0;
y = 710;
},
{
angle = 90;
isGlobal = 0;
magnetic = 5;
x = 79;
y = 0;
},
{
angle = 90;
isGlobal = 0;
magnetic = 5;
x = 291;
y = 0;
}
);
};
},
{
color = 1;
glyphname = hbar;
layers = (
{
hints = (
{
horizontal = 1;
place = "{-2147483648, 0}";
type = Tag;
name = hr01;
}
);
layerId = "EC64484B-0978-4CB1-9EE9-C40A2D8C4059";
paths = (
{
closed = 1;
nodes = (
"263 675 LINE",
"285 630 LINE",
"330 630 LINE",
"308 585 LINE",
"285 540 LINE",
"263 495 LINE",
"285 450 LINE",
"330 450 LINE",
"353 495 LINE",
"533 495 LINE",
"555 450 LINE",
"600 450 LINE",
"623 405 LINE",
"600 360 LINE",
"623 315 LINE",
"645 270 LINE",
"690 270 LINE",
"668 315 LINE",
"645 360 LINE",
"668 405 LINE",
"645 450 LINE",
"623 495 LINE",
"578 495 LINE",
"555 540 LINE",
"330 540 LINE",
"353 585 LINE",
"375 630 LINE",
"353 675 LINE",
"308 675 LINE",
"285 720 LINE",
"60 720 LINE",
"38 675 LINE",
"-7 675 LINE",
"-30 630 LINE",
"60 630 LINE",
"83 675 LINE"
);
},
{
closed = 1;
nodes = (
"398 45 LINE",
"420 90 LINE",
"398 135 LINE",
"420 180 LINE",
"398 225 LINE",
"420 270 LINE",
"398 315 LINE",
"375 360 LINE",
"285 360 LINE",
"263 315 LINE",
"285 270 LINE",
"263 225 LINE",
"285 180 LINE",
"263 135 LINE",
"285 90 LINE",
"263 45 LINE",
"83 45 LINE",
"60 90 LINE",
"83 135 LINE",
"60 180 LINE",
"83 225 LINE",
"60 270 LINE",
"83 315 LINE",
"60 360 LINE",
"83 405 LINE",
"60 450 LINE",
"83 495 LINE",
"60 540 LINE",
"38 585 LINE",
"15 630 LINE",
"-7 585 LINE",
"15 540 LINE",
"38 495 LINE",
"15 450 LINE",
"38 405 LINE",
"15 360 LINE",
"38 315 LINE",
"15 270 LINE",
"38 225 LINE",
"15 180 LINE",
"38 135 LINE",
"15 90 LINE",
"38 45 LINE",
"60 0 LINE",
"285 0 LINE",
"308 45 LINE",
"330 90 LINE",
"308 135 LINE",
"330 180 LINE",
"308 225 LINE",
"330 270 LINE",
"308 315 LINE",
"353 315 LINE",
"375 270 LINE",
"353 225 LINE",
"375 180 LINE",
"353 135 LINE",
"375 90 LINE",
"353 45 LINE",
"375 0 LINE",
"645 0 LINE",
"668 45 LINE",
"645 90 LINE",
"623 45 LINE"
);
},
{
closed = 1;
nodes = (
"623 225 LINE",
"645 180 LINE",
"690 180 LINE",
"668 225 LINE",
"645 270 LINE"
);
},
{
closed = 1;
nodes = (
"668 135 LINE",
"645 180 LINE",
"623 135 LINE",
"645 90 LINE",
"690 90 LINE"
);
}
);
width = 686;
}
);
leftKerningGroup = h;
rightKerningGroup = n;
unicode = 0127;
userData = {
com.typemytype.robofont.guides = (
{
angle = 90;
isGlobal = 0;
magnetic = 5;
x = 189;
y = 0;
},
{
angle = 90;
isGlobal = 0;
magnetic = 5;
x = 110;
y = 0;
}
);
};
},
{
color = 1;
glyphname = i;
layers = (
{
hints = (
{
horizontal = 1;
place = "{-2147483648, 0}";
type = Tag;
name = hr00;
}
);
layerId = "EC64484B-0978-4CB1-9EE9-C40A2D8C4059";
paths = (
{
closed = 1;
nodes = (
"270 585 LINE",
"292 630 LINE",
"315 675 LINE",
"292 720 LINE",
"270 765 LINE",
"45 765 LINE",
"22 720 LINE",
"45 675 LINE",
"22 630 LINE",
"45 585 LINE",
"67 540 LINE",
"45 495 LINE",
"22 450 LINE",
"45 405 LINE",
"22 360 LINE",
"45 315 LINE",
"22 270 LINE",
"45 225 LINE",
"22 180 LINE",
"45 135 LINE",
"22 90 LINE",
"45 45 LINE",
"67 0 LINE",
"292 0 LINE",
"315 45 LINE",
"292 90 LINE",
"315 135 LINE",
"292 180 LINE",
"315 225 LINE",
"292 270 LINE",
"315 315 LINE",
"292 360 LINE",
"315 405 LINE",
"292 450 LINE",
"315 495 LINE",
"292 540 LINE",
"247 540 LINE"
);
},
{
closed = 1;
nodes = (
"67 720 LINE",
"247 720 LINE",
"270 675 LINE",
"247 630 LINE",
"225 585 LINE",
"90 585 LINE",
"67 630 LINE",
"90 675 LINE"
);
},
{
closed = 1;
nodes = (
"247 360 LINE",
"270 315 LINE",
"247 270 LINE",
"270 225 LINE",
"247 180 LINE",
"270 135 LINE",
"247 90 LINE",
"270 45 LINE",
"90 45 LINE",
"67 90 LINE",
"90 135 LINE",
"67 180 LINE",
"90 225 LINE",
"67 270 LINE",
"90 315 LINE",
"67 360 LINE",
"90 405 LINE",
"67 450 LINE",
"90 495 LINE",
"270 495 LINE",
"247 450 LINE",
"270 405 LINE"
);
}
);
width = 323;
}
);
leftKerningGroup = i;
rightKerningGroup = i;
unicode = 0069;
userData = {
com.typemytype.robofont.guides = (
{
angle = 0;
isGlobal = 0;
magnetic = 5;
x = 0;
y = 510;
},
{
angle = 0;
isGlobal = 0;
magnetic = 5;
x = 0;
y = 22;
},
{
angle = 0;
isGlobal = 0;
magnetic = 5;
x = 0;
y = 627;
},
{
angle = 90;
isGlobal = 0;
magnetic = 5;
x = 79;
y = 0;
},
{
angle = 90;
isGlobal = 0;
magnetic = 5;
x = 121;
y = 0;
},
{
angle = 90;
isGlobal = 0;
magnetic = 5;
x = 70;
y = 0;
},
{
angle = 90;
isGlobal = 0;
magnetic = 5;
x = 131;
y = 0;
}
);
};
},
{
color = 1;
glyphname = idotless;
layers = (
{
hints = (
{
horizontal = 1;
place = "{-2147483648, 0}";
type = Tag;
name = hr00;
}
);
layerId = "EC64484B-0978-4CB1-9EE9-C40A2D8C4059";
paths = (
{
closed = 1;
nodes = (
"292 540 LINE",
"67 540 LINE",
"45 495 LINE",
"22 450 LINE",
"45 405 LINE",
"22 360 LINE",
"45 315 LINE",
"22 270 LINE",
"45 225 LINE",
"22 180 LINE",
"45 135 LINE",
"22 90 LINE",
"45 45 LINE",
"67 0 LINE",
"292 0 LINE",
"315 45 LINE",
"292 90 LINE",
"315 135 LINE",
"292 180 LINE",
"315 225 LINE",
"292 270 LINE",
"315 315 LINE",
"292 360 LINE",
"315 405 LINE",
"292 450 LINE",
"315 495 LINE"
);
},
{
closed = 1;
nodes = (
"247 270 LINE",
"270 225 LINE",
"247 180 LINE",
"270 135 LINE",
"247 90 LINE",
"270 45 LINE",
"90 45 LINE",
"67 90 LINE",
"90 135 LINE",
"67 180 LINE",
"90 225 LINE",
"67 270 LINE",
"90 315 LINE",
"67 360 LINE",
"90 405 LINE",
"67 450 LINE",
"90 495 LINE",
"270 495 LINE",
"247 450 LINE",
"270 405 LINE",
"247 360 LINE",
"270 315 LINE"
);
}
);
width = 323;
}
);
leftKerningGroup = i;
rightKerningGroup = i;
unicode = 0131;
},
{
color = 1;
glyphname = iogonek;
layers = (
{
hints = (
{
horizontal = 1;
place = "{-2147483648, 0}";
type = Tag;
name = hr01;
},
{
horizontal = 1;
place = "{-2147483648, 0}";
type = Tag;
name = hr02;
}
);
layerId = "EC64484B-0978-4CB1-9EE9-C40A2D8C4059";
paths = (
{
closed = 1;
nodes = (
"315 720 LINE",
"270 720 LINE",
"247 675 LINE",
"270 630 LINE",
"247 585 LINE",
"67 585 LINE",
"90 630 LINE",
"67 675 LINE",
"90 720 LINE",
"45 720 LINE",
"22 675 LINE",
"45 630 LINE",
"22 585 LINE",
"45 540 LINE",
"22 495 LINE",
"45 450 LINE",
"22 405 LINE",
"45 360 LINE",
"22 315 LINE",
"45 270 LINE",
"67 225 LINE",
"90 270 LINE",
"67 315 LINE",
"90 360 LINE",
"67 405 LINE",
"90 450 LINE",
"67 495 LINE",
"247 495 LINE",
"270 450 LINE",
"247 405 LINE",
"270 360 LINE",
"292 405 LINE",
"315 450 LINE",
"292 495 LINE",
"270 540 LINE",
"292 585 LINE",
"315 630 LINE",
"292 675 LINE"
);
},
{
closed = 1;
nodes = (
"270 180 LINE",
"247 135 LINE",
"270 90 LINE",
"247 45 LINE",
"225 0 LINE",
"180 0 LINE",
"157 -45 LINE",
"180 -90 LINE",
"270 -90 LINE",
"247 -135 LINE",
"270 -180 LINE",
"180 -180 LINE",
"157 -135 LINE",
"112 -135 LINE",
"90 -90 LINE",
"112 -45 LINE",
"90 0 LINE",
"67 45 LINE",
"90 90 LINE",
"67 135 LINE",
"90 180 LINE",
"45 180 LINE",
"22 135 LINE",
"45 90 LINE",
"22 45 LINE",
"45 0 LINE",
"67 -45 LINE",
"45 -90 LINE",
"67 -135 LINE",
"90 -180 LINE",
"135 -180 LINE",
"157 -225 LINE",
"292 -225 LINE",
"315 -180 LINE",
"292 -135 LINE",
"315 -90 LINE",
"292 -45 LINE",
"247 -45 LINE",
"270 0 LINE",
"292 45 LINE",
"315 90 LINE",
"292 135 LINE",
"315 180 LINE",
"292 225 LINE",
"315 270 LINE",
"292 315 LINE",
"315 360 LINE",
"270 360 LINE",
"247 315 LINE",
"270 270 LINE",
"247 225 LINE"
);
},
{
closed = 1;
nodes = (
"67 225 LINE",
"22 225 LINE",
"45 180 LINE"
);
}
);
width = 323;
}
);
leftKerningGroup = i;
rightKerningGroup = i;
unicode = 012F;
userData = {
com.typemytype.robofont.guides = (
{
angle = 0;
isGlobal = 0;
magnetic = 5;
x = 0;
y = 22;
},
{
angle = 90;
isGlobal = 0;
magnetic = 5;
x = 131;
y = 0;
}
);
};
},
{
color = 1;
glyphname = j;
layers = (
{
layerId = "EC64484B-0978-4CB1-9EE9-C40A2D8C4059";
paths = (
{
closed = 1;
nodes = (
"335 720 LINE",
"290 720 LINE",
"267 675 LINE",
"290 630 LINE",
"267 585 LINE",
"87 585 LINE",
"65 630 LINE",
"87 675 LINE",
"65 720 LINE",
"20 720 LINE",
"42 675 LINE",
"20 630 LINE",
"42 585 LINE",
"65 540 LINE",
"42 495 LINE",
"20 450 LINE",
"42 405 LINE",
"20 360 LINE",
"42 315 LINE",
"20 270 LINE",
"42 225 LINE",
"20 180 LINE",
"42 135 LINE",
"20 90 LINE",
"42 45 LINE",
"20 0 LINE",
"-70 0 LINE",
"-93 -45 LINE",
"-70 -90 LINE",
"-93 -135 LINE",
"-70 -180 LINE",
"-48 -225 LINE",
"132 -225 LINE",
"155 -180 LINE",
"245 -180 LINE",
"267 -135 LINE",
"290 -90 LINE",
"312 -45 LINE",
"335 0 LINE",
"312 45 LINE",
"335 90 LINE",
"312 135 LINE",
"335 180 LINE",
"312 225 LINE",
"335 270 LINE",
"312 315 LINE",
"335 360 LINE",
"312 405 LINE",
"335 450 LINE",
"312 495 LINE",
"290 540 LINE",
"312 585 LINE",
"335 630 LINE",
"312 675 LINE"
);
},
{
closed = 1;
nodes = (
"290 360 LINE",
"267 315 LINE",
"290 270 LINE",
"267 225 LINE",
"290 180 LINE",
"267 135 LINE",
"290 90 LINE",
"267 45 LINE",
"290 0 LINE",
"267 -45 LINE",
"245 -90 LINE",
"222 -135 LINE",
"132 -135 LINE",
"110 -180 LINE",
"-25 -180 LINE",
"-48 -135 LINE",
"-25 -90 LINE",
"-48 -45 LINE",
"42 -45 LINE",
"65 0 LINE",
"87 45 LINE",
"65 90 LINE",
"87 135 LINE",
"65 180 LINE",
"87 225 LINE",
"65 270 LINE",
"87 315 LINE",
"65 360 LINE",
"87 405 LINE",
"65 450 LINE",
"87 495 LINE",
"267 495 LINE",
"290 450 LINE",
"267 405 LINE"
);
}
);
width = 345;
}
);
rightKerningGroup = i;
unicode = 006A;
userData = {
com.typemytype.robofont.guides = (
{
angle = 0;
isGlobal = 0;
magnetic = 5;
x = 0;
y = 740;
},
{
angle = 0;
isGlobal = 0;
magnetic = 5;
x = 0;
y = "-190";
},
{
angle = 90;
isGlobal = 0;
magnetic = 5;
x = "-46";
y = 0;
}
);
};
},
{
color = 1;
glyphname = jdotless;
layers = (
{
hints = (
{
horizontal = 1;
place = "{-2147483648, 0}";
type = Tag;
name = hr00;
}
);
layerId = "EC64484B-0978-4CB1-9EE9-C40A2D8C4059";
paths = (
{
closed = 1;
nodes = (
"67 -90 LINE",
"44 -45 LINE",
"67 0 LINE",
"202 0 LINE",
"224 45 LINE",
"202 90 LINE",
"224 135 LINE",
"202 180 LINE",
"224 225 LINE",
"202 270 LINE",
"224 315 LINE",
"202 360 LINE",
"67 360 LINE",
"44 405 LINE",
"67 450 LINE",
"44 495 LINE",
"-1 495 LINE",
"22 450 LINE",
"-1 405 LINE",
"22 360 LINE",
"44 315 LINE",
"179 315 LINE",
"157 270 LINE",
"179 225 LINE",
"157 180 LINE",
"179 135 LINE",
"157 90 LINE",
"179 45 LINE",
"44 45 LINE",
"22 0 LINE",
"-1 -45 LINE",
"22 -90 LINE",
"-1 -135 LINE",
"22 -180 LINE",
"44 -225 LINE",
"134 -225 LINE",
"157 -180 LINE",
"67 -180 LINE",
"44 -135 LINE"
);
},
{
closed = 1;
nodes = (
"449 495 LINE",
"404 495 LINE",
"427 450 LINE",
"404 405 LINE",
"427 360 LINE",
"404 315 LINE",
"427 270 LINE",
"404 225 LINE",
"427 180 LINE",
"404 135 LINE",
"427 90 LINE",
"404 45 LINE",
"427 0 LINE",
"404 -45 LINE",
"382 -90 LINE",
"337 -90 LINE",
"359 -135 LINE",
"404 -135 LINE",
"427 -90 LINE",
"449 -45 LINE",
"472 0 LINE",
"449 45 LINE",
"472 90 LINE",
"449 135 LINE",
"472 180 LINE",
"449 225 LINE",
"472 270 LINE",
"449 315 LINE",
"472 360 LINE",
"449 405 LINE",
"472 450 LINE"
);
},
{
closed = 1;
nodes = (
"157 -180 LINE",
"179 -225 LINE",
"269 -225 LINE",
"292 -180 LINE",
"337 -180 LINE",
"359 -135 LINE",
"269 -135 LINE",
"247 -180 LINE"
);
}
);
width = 482;
}
);
leftKerningGroup = dotlessj;
rightKerningGroup = i;
unicode = 0237;
userData = {
com.typemytype.robofont.guides = (
{
angle = 0;
isGlobal = 0;
magnetic = 5;
x = 0;
y = "-190";
},
{
angle = 90;
isGlobal = 0;
magnetic = 5;
x = 45;
y = 0;
}
);
};
},
{
color = 1;
glyphname = k;
layers = (
{
hints = (
{
horizontal = 1;
place = "{-2147483648, 0}";
type = Tag;
name = hr00;
}
);
layerId = "EC64484B-0978-4CB1-9EE9-C40A2D8C4059";
paths = (
{
closed = 1;
nodes = (
"585 135 LINE",
"562 180 LINE",
"540 225 LINE",
"517 270 LINE",
"540 315 LINE",
"562 360 LINE",
"585 405 LINE",
"607 450 LINE",
"630 495 LINE",
"607 540 LINE",
"337 540 LINE",
"315 495 LINE",
"292 540 LINE",
"315 585 LINE",
"292 630 LINE",
"315 675 LINE",
"292 720 LINE",
"67 720 LINE",
"45 675 LINE",
"22 630 LINE",
"45 585 LINE",
"22 540 LINE",
"45 495 LINE",
"22 450 LINE",
"45 405 LINE",
"22 360 LINE",
"45 315 LINE",
"22 270 LINE",
"45 225 LINE",
"22 180 LINE",
"45 135 LINE",
"22 90 LINE",
"45 45 LINE",
"67 0 LINE",
"292 0 LINE",
"315 45 LINE",
"337 0 LINE",
"652 0 LINE",
"675 45 LINE",
"652 90 LINE",
"607 90 LINE"
);
},
{
closed = 1;
nodes = (
"360 45 LINE",
"337 90 LINE",
"315 135 LINE",
"270 135 LINE",
"247 90 LINE",
"270 45 LINE",
"90 45 LINE",
"67 90 LINE",
"90 135 LINE",
"67 180 LINE",
"90 225 LINE",
"67 270 LINE",
"90 315 LINE",
"67 360 LINE",
"90 405 LINE",
"67 450 LINE",
"90 495 LINE",
"67 540 LINE",
"90 585 LINE",
"67 630 LINE",
"90 675 LINE",
"270 675 LINE",
"247 630 LINE",
"270 585 LINE",
"247 540 LINE",
"270 495 LINE",
"247 450 LINE",
"270 405 LINE",
"315 405 LINE",
"337 450 LINE",
"360 495 LINE",
"585 495 LINE",
"562 450 LINE",
"540 405 LINE",
"517 360 LINE",
"495 315 LINE",
"472 270 LINE",
"495 225 LINE",
"517 180 LINE",
"540 135 LINE",
"562 90 LINE",
"585 45 LINE"
);
}
);
width = 643;
}
);
leftKerningGroup = h;
rightKerningGroup = k;
unicode = 006B;
userData = {
com.typemytype.robofont.guides = (
{
angle = 0;
isGlobal = 0;
magnetic = 5;
x = 0;
y = 520;
},
{
angle = 0;
isGlobal = 0;
magnetic = 5;
x = 0;
y = 710;
},
{
angle = 0;
isGlobal = 0;
magnetic = 5;
x = 0;
y = 260;
},
{
angle = 90;
isGlobal = 0;
magnetic = 5;
x = 460;
y = 0;
},
{
angle = 90;
isGlobal = 0;
magnetic = 5;
x = 430;
y = 0;
}
);
};
},
{
color = 1;
glyphname = kgreenlandic;
layers = (
{
hints = (
{
horizontal = 1;
place = "{-2147483648, 0}";
type = Tag;
name = hr00;
}
);
layerId = "EC64484B-0978-4CB1-9EE9-C40A2D8C4059";
paths = (
{
closed = 1;
nodes = (
"585 135 LINE",
"562 180 LINE",
"540 225 LINE",
"517 270 LINE",
"540 315 LINE",
"562 360 LINE",
"585 405 LINE",
"607 450 LINE",
"630 495 LINE",
"607 540 LINE",
"382 540 LINE",
"360 495 LINE",
"337 450 LINE",
"315 405 LINE",
"292 450 LINE",
"315 495 LINE",
"292 540 LINE",
"270 495 LINE",
"247 450 LINE",
"270 405 LINE",
"292 360 LINE",
"337 360 LINE",
"360 405 LINE",
"382 450 LINE",
"405 495 LINE",
"585 495 LINE",
"562 450 LINE",
"540 405 LINE",
"517 360 LINE",
"495 315 LINE",
"472 270 LINE",
"495 225 LINE",
"517 180 LINE",
"540 135 LINE",
"562 90 LINE",
"585 45 LINE",
"360 45 LINE",
"337 90 LINE",
"315 135 LINE",
"270 135 LINE",
"247 90 LINE",
"270 45 LINE",
"90 45 LINE",
"67 90 LINE",
"90 135 LINE",
"67 180 LINE",
"90 225 LINE",
"67 270 LINE",
"90 315 LINE",
"67 360 LINE",
"90 405 LINE",
"67 450 LINE",
"90 495 LINE",
"270 495 LINE",
"247 540 LINE",
"67 540 LINE",
"45 495 LINE",
"22 450 LINE",
"45 405 LINE",
"22 360 LINE",
"45 315 LINE",
"22 270 LINE",
"45 225 LINE",
"22 180 LINE",
"45 135 LINE",
"22 90 LINE",
"45 45 LINE",
"67 0 LINE",
"292 0 LINE",
"315 45 LINE",
"337 0 LINE",
"652 0 LINE",
"675 45 LINE",
"652 90 LINE",
"607 90 LINE"
);
}
);
width = 643;
}
);
leftKerningGroup = n;
rightKerningGroup = k;
unicode = 0138;
userData = {
com.typemytype.robofont.guides = (
{
angle = 0;
isGlobal = 0;
magnetic = 5;
x = 0;
y = 520;
},
{
angle = 0;
isGlobal = 0;
magnetic = 5;
x = 0;
y = 260;
}
);
};
},
{
color = 1;
glyphname = l;
layers = (
{
layerId = "EC64484B-0978-4CB1-9EE9-C40A2D8C4059";
paths = (
{
closed = 1;
nodes = (
"292 720 LINE",
"67 720 LINE",
"45 675 LINE",
"22 630 LINE",
"45 585 LINE",
"22 540 LINE",
"45 495 LINE",
"22 450 LINE",
"45 405 LINE",
"22 360 LINE",
"45 315 LINE",
"22 270 LINE",
"45 225 LINE",
"22 180 LINE",
"45 135 LINE",
"22 90 LINE",
"45 45 LINE",
"67 0 LINE",
"292 0 LINE",
"315 45 LINE",
"292 90 LINE",
"315 135 LINE",
"292 180 LINE",
"315 225 LINE",
"292 270 LINE",
"315 315 LINE",
"292 360 LINE",
"315 405 LINE",
"292 450 LINE",
"315 495 LINE",
"292 540 LINE",
"315 585 LINE",
"292 630 LINE",
"315 675 LINE"
);
},
{
closed = 1;
nodes = (
"247 450 LINE",
"270 405 LINE",
"247 360 LINE",
"270 315 LINE",
"247 270 LINE",
"270 225 LINE",
"247 180 LINE",
"270 135 LINE",
"247 90 LINE",
"270 45 LINE",
"90 45 LINE",
"67 90 LINE",
"90 135 LINE",
"67 180 LINE",
"90 225 LINE",
"67 270 LINE",
"90 315 LINE",
"67 360 LINE",
"90 405 LINE",
"67 450 LINE",
"90 495 LINE",
"67 540 LINE",
"90 585 LINE",
"67 630 LINE",
"90 675 LINE",
"270 675 LINE",
"247 630 LINE",
"270 585 LINE",
"247 540 LINE",
"270 495 LINE"
);
}
);
width = 323;
}
);
leftKerningGroup = l;
rightKerningGroup = l;
unicode = 006C;
userData = {
com.typemytype.robofont.guides = (
{
angle = 0;
isGlobal = 0;
magnetic = 5;
x = 0;
y = 9;
},
{
angle = 0;
isGlobal = 0;
magnetic = 5;
x = 0;
y = 710;
}
);
};
},
{
color = 1;
glyphname = lslash;
layers = (
{
hints = (
{
horizontal = 1;
place = "{-2147483648, 0}";
type = Tag;
name = hr00;
}
);
layerId = "EC64484B-0978-4CB1-9EE9-C40A2D8C4059";
paths = (
{
closed = 1;
nodes = (
"69 315 LINE",
"46 360 LINE",
"91 360 LINE",
"114 405 LINE",
"91 450 LINE",
"114 495 LINE",
"91 540 LINE",
"114 585 LINE",
"91 630 LINE",
"114 675 LINE",
"294 675 LINE",
"316 630 LINE",
"294 585 LINE",
"316 540 LINE",
"294 495 LINE",
"316 450 LINE",
"406 450 LINE",
"384 495 LINE",
"339 495 LINE",
"361 540 LINE",
"339 585 LINE",
"361 630 LINE",
"339 675 LINE",
"316 720 LINE",
"91 720 LINE",
"69 675 LINE",
"46 630 LINE",
"69 585 LINE",
"46 540 LINE",
"69 495 LINE",
"46 450 LINE",
"69 405 LINE",
"24 405 LINE",
"1 360 LINE",
"24 315 LINE",
"1 270 LINE",
"24 225 LINE",
"46 180 LINE",
"69 135 LINE",
"91 180 LINE",
"69 225 LINE",
"46 270 LINE"
);
},
{
closed = 1;
nodes = (
"339 405 LINE",
"361 360 LINE",
"406 360 LINE",
"384 405 LINE",
"361 450 LINE"
);
},
{
closed = 1;
nodes = (
"294 225 LINE",
"316 180 LINE",
"294 135 LINE",
"316 90 LINE",
"294 45 LINE",
"114 45 LINE",
"91 90 LINE",
"114 135 LINE",
"69 135 LINE",
"46 90 LINE",
"69 45 LINE",
"91 0 LINE",
"316 0 LINE",
"339 45 LINE",
"361 90 LINE",
"339 135 LINE",
"361 180 LINE",
"339 225 LINE",
"361 270 LINE",
"339 315 LINE",
"384 315 LINE",
"361 360 LINE",
"316 360 LINE",
"294 315 LINE",
"316 270 LINE"
);
}
);
width = 400;
}
);
leftKerningGroup = l;
rightKerningGroup = l;
unicode = 0142;
userData = {
com.typemytype.robofont.guides = (
{
angle = 0;
isGlobal = 0;
magnetic = 5;
x = 0;
y = 355;
},
{
angle = 90;
isGlobal = 0;
magnetic = 5;
x = 231;
y = 0;
},
{
angle = 90;
isGlobal = 0;
magnetic = 5;
x = 100;
y = 0;
},
{
angle = 90;
isGlobal = 0;
magnetic = 5;
x = 30;
y = 0;
}
);
};
},
{
color = 1;
glyphname = m;
layers = (
{
hints = (
{
horizontal = 1;
place = "{-2147483648, 0}";
type = Tag;
name = hr01;
},
{
horizontal = 1;
place = "{-2147483648, 0}";
type = Tag;
name = hr02;
}
);
layerId = "EC64484B-0978-4CB1-9EE9-C40A2D8C4059";
paths = (
{
closed = 1;
nodes = (
"225 495 LINE",
"247 450 LINE",
"292 450 LINE",
"315 495 LINE",
"495 495 LINE",
"517 450 LINE",
"540 405 LINE",
"585 405 LINE",
"607 450 LINE",
"630 495 LINE",
"810 495 LINE",
"832 450 LINE",
"855 405 LINE",
"877 360 LINE",
"922 360 LINE",
"900 405 LINE",
"877 450 LINE",
"855 495 LINE",
"832 540 LINE",
"607 540 LINE",
"585 495 LINE",
"562 450 LINE",
"540 495 LINE",
"517 540 LINE",
"292 540 LINE",
"270 495 LINE",
"247 540 LINE",
"67 540 LINE",
"45 495 LINE",
"22 450 LINE",
"45 405 LINE",
"67 360 LINE",
"90 405 LINE",
"67 450 LINE",
"90 495 LINE"
);
},
{
closed = 1;
nodes = (
"360 135 LINE",
"382 180 LINE",
"360 225 LINE",
"382 270 LINE",
"360 315 LINE",
"337 360 LINE",
"292 360 LINE",
"270 315 LINE",
"247 270 LINE",
"270 225 LINE",
"247 180 LINE",
"270 135 LINE",
"247 90 LINE",
"270 45 LINE",
"90 45 LINE",
"67 90 LINE",
"90 135 LINE",
"67 180 LINE",
"90 225 LINE",
"67 270 LINE",
"90 315 LINE",
"67 360 LINE",
"22 360 LINE",
"45 315 LINE",
"22 270 LINE",
"45 225 LINE",
"22 180 LINE",
"45 135 LINE",
"22 90 LINE",
"45 45 LINE",
"67 0 LINE",
"292 0 LINE",
"315 45 LINE",
"292 90 LINE",
"315 135 LINE",
"292 180 LINE",
"315 225 LINE",
"292 270 LINE",
"315 315 LINE",
"337 270 LINE",
"315 225 LINE",
"337 180 LINE",
"315 135 LINE",
"337 90 LINE",
"315 45 LINE",
"337 0 LINE",
"427 0 LINE",
"450 45 LINE",
"360 45 LINE",
"382 90 LINE"
);
},
{
closed = 1;
nodes = (
"675 45 LINE",
"697 90 LINE",
"675 135 LINE",
"697 180 LINE",
"675 225 LINE",
"697 270 LINE",
"675 315 LINE",
"652 360 LINE",
"607 360 LINE",
"585 315 LINE",
"562 270 LINE",
"585 225 LINE",
"562 180 LINE",
"585 135 LINE",
"562 90 LINE",
"585 45 LINE",
"450 45 LINE",
"472 0 LINE",
"607 0 LINE",
"630 45 LINE",
"607 90 LINE",
"630 135 LINE",
"607 180 LINE",
"630 225 LINE",
"607 270 LINE",
"630 315 LINE",
"652 270 LINE",
"630 225 LINE",
"652 180 LINE",
"630 135 LINE",
"652 90 LINE",
"630 45 LINE",
"652 0 LINE",
"877 0 LINE",
"900 45 LINE",
"877 90 LINE",
"855 45 LINE"
);
},
{
closed = 1;
nodes = (
"855 315 LINE",
"877 270 LINE",
"922 270 LINE",
"900 315 LINE",
"877 360 LINE"
);
},
{
closed = 1;
nodes = (
"900 225 LINE",
"877 270 LINE",
"855 225 LINE",
"877 180 LINE",
"922 180 LINE"
);
},
{
closed = 1;
nodes = (
"900 135 LINE",
"877 180 LINE",
"855 135 LINE",
"877 90 LINE",
"922 90 LINE"
);
}
);
width = 938;
}
);
leftKerningGroup = n;
rightKerningGroup = n;
unicode = 006D;
},
{
color = 1;
glyphname = n;
layers = (
{
hints = (
{
horizontal = 1;
place = "{-2147483648, 0}";
type = Tag;
name = hr01;
},
{
horizontal = 1;
place = "{-2147483648, 0}";
type = Tag;
name = hr02;
}
);
layerId = "EC64484B-0978-4CB1-9EE9-C40A2D8C4059";
paths = (
{
closed = 1;
nodes = (
"652 360 LINE",
"630 405 LINE",
"607 450 LINE",
"585 495 LINE",
"562 540 LINE",
"337 540 LINE",
"315 495 LINE",
"292 540 LINE",
"67 540 LINE",
"45 495 LINE",
"22 450 LINE",
"45 405 LINE",
"22 360 LINE",
"45 315 LINE",
"22 270 LINE",
"45 225 LINE",
"22 180 LINE",
"45 135 LINE",
"67 180 LINE",
"90 225 LINE",
"67 270 LINE",
"90 315 LINE",
"67 360 LINE",
"90 405 LINE",
"67 450 LINE",
"90 495 LINE",
"270 495 LINE",
"292 450 LINE",
"337 450 LINE",
"360 495 LINE",
"540 495 LINE",
"562 450 LINE",
"585 405 LINE",
"607 360 LINE",
"630 315 LINE",
"607 270 LINE",
"630 225 LINE",
"607 180 LINE",
"630 135 LINE",
"607 90 LINE",
"630 45 LINE",
"405 45 LINE",
"427 90 LINE",
"405 135 LINE",
"427 180 LINE",
"405 225 LINE",
"427 270 LINE",
"405 315 LINE",
"382 360 LINE",
"292 360 LINE",
"270 315 LINE",
"247 270 LINE",
"270 225 LINE",
"247 180 LINE",
"270 135 LINE",
"247 90 LINE",
"270 45 LINE",
"90 45 LINE",
"67 90 LINE",
"90 135 LINE",
"45 135 LINE",
"22 90 LINE",
"45 45 LINE",
"67 0 LINE",
"292 0 LINE",
"315 45 LINE",
"292 90 LINE",
"315 135 LINE",
"292 180 LINE",
"315 225 LINE",
"292 270 LINE",
"315 315 LINE",
"360 315 LINE",
"382 270 LINE",
"360 225 LINE",
"382 180 LINE",
"360 135 LINE",
"382 90 LINE",
"360 45 LINE",
"382 0 LINE",
"652 0 LINE",
"675 45 LINE",
"652 90 LINE",
"675 135 LINE",
"652 180 LINE",
"675 225 LINE",
"652 270 LINE",
"675 315 LINE"
);
}
);
width = 674;
}
);
leftKerningGroup = n;
rightKerningGroup = n;
unicode = 006E;
userData = {
com.typemytype.robofont.guides = (
{
angle = 0;
isGlobal = 0;
magnetic = 5;
x = 0;
y = 530;
},
{
angle = 0;
isGlobal = 0;
magnetic = 5;
x = 0;
y = 301;
},
{
angle = 0;
isGlobal = 0;
magnetic = 5;
x = 0;
y = 650;
},
{
angle = 0;
isGlobal = 0;
magnetic = 5;
x = 0;
y = 407;
},
{
angle = 0;
isGlobal = 0;
magnetic = 5;
x = 0;
y = 451;
},
{
angle = 90;
isGlobal = 0;
magnetic = 5;
x = 291;
y = 0;
},
{
angle = 90;
isGlobal = 0;
magnetic = 5;
x = 131;
y = 0;
}
);
};
},
{
color = 1;
glyphname = eng;
layers = (
{
hints = (
{
horizontal = 1;
place = "{-2147483648, 0}";
type = Tag;
name = hr01;
},
{
horizontal = 1;
place = "{-2147483648, 0}";
type = Tag;
name = hr02;
}
);
layerId = "EC64484B-0978-4CB1-9EE9-C40A2D8C4059";
paths = (
{
closed = 1;
nodes = (
"652 315 LINE",
"630 360 LINE",
"652 405 LINE",
"630 450 LINE",
"607 495 LINE",
"562 495 LINE",
"540 540 LINE",
"315 540 LINE",
"292 495 LINE",
"270 540 LINE",
"45 540 LINE",
"22 495 LINE",
"45 450 LINE",
"22 405 LINE",
"45 360 LINE",
"22 315 LINE",
"45 270 LINE",
"22 225 LINE",
"45 180 LINE",
"22 135 LINE",
"45 90 LINE",
"22 45 LINE",
"45 0 LINE",
"270 0 LINE",
"292 45 LINE",
"315 90 LINE",
"292 135 LINE",
"315 180 LINE",
"292 225 LINE",
"315 270 LINE",
"292 315 LINE",
"382 315 LINE",
"360 270 LINE",
"382 225 LINE",
"360 180 LINE",
"382 135 LINE",
"360 90 LINE",
"382 45 LINE",
"360 0 LINE",
"270 0 LINE",
"247 -45 LINE",
"225 -90 LINE",
"247 -135 LINE",
"225 -180 LINE",
"247 -225 LINE",
"517 -225 LINE",
"540 -180 LINE",
"585 -180 LINE",
"607 -135 LINE",
"630 -90 LINE",
"652 -45 LINE",
"675 0 LINE",
"652 45 LINE",
"675 90 LINE",
"652 135 LINE",
"675 180 LINE",
"652 225 LINE",
"675 270 LINE"
);
},
{
closed = 1;
nodes = (
"607 45 LINE",
"630 0 LINE",
"607 -45 LINE",
"585 -90 LINE",
"562 -135 LINE",
"517 -135 LINE",
"495 -180 LINE",
"270 -180 LINE",
"292 -135 LINE",
"270 -90 LINE",
"292 -45 LINE",
"382 -45 LINE",
"405 0 LINE",
"427 45 LINE",
"405 90 LINE",
"427 135 LINE",
"405 180 LINE",
"427 225 LINE",
"405 270 LINE",
"427 315 LINE",
"405 360 LINE",
"270 360 LINE",
"247 315 LINE",
"270 270 LINE",
"247 225 LINE",
"270 180 LINE",
"247 135 LINE",
"270 90 LINE",
"247 45 LINE",
"67 45 LINE",
"90 90 LINE",
"67 135 LINE",
"90 180 LINE",
"67 225 LINE",
"90 270 LINE",
"67 315 LINE",
"90 360 LINE",
"67 405 LINE",
"90 450 LINE",
"67 495 LINE",
"247 495 LINE",
"270 450 LINE",
"315 450 LINE",
"337 495 LINE",
"517 495 LINE",
"540 450 LINE",
"585 450 LINE",
"607 405 LINE",
"585 360 LINE",
"607 315 LINE",
"630 270 LINE",
"607 225 LINE",
"630 180 LINE",
"607 135 LINE",
"630 90 LINE"
);
}
);
width = 674;
}
);
leftKerningGroup = n;
rightKerningGroup = n;
unicode = 014B;
userData = {
com.typemytype.robofont.guides = (
{
angle = 0;
isGlobal = 0;
magnetic = 5;
x = 0;
y = "-300";
},
{
angle = 90;
isGlobal = 0;
magnetic = 5;
x = 225;
y = 0;
}
);
};
},
{
color = 1;
glyphname = o;
layers = (
{
hints = (
{
horizontal = 1;
place = "{-2147483648, 0}";
type = Tag;
name = hr00;
}
);
layerId = "EC64484B-0978-4CB1-9EE9-C40A2D8C4059";
paths = (
{
closed = 1;
nodes = (
"411 45 LINE",
"389 0 LINE",
"254 0 LINE",
"231 45 LINE",
"141 45 LINE",
"119 90 LINE",
"74 90 LINE",
"51 135 LINE",
"74 180 LINE",
"51 225 LINE",
"74 270 LINE",
"51 315 LINE",
"74 360 LINE",
"96 405 LINE",
"119 450 LINE",
"164 450 LINE",
"186 495 LINE",
"96 495 LINE",
"74 450 LINE",
"51 405 LINE",
"29 360 LINE",
"6 315 LINE",
"29 270 LINE",
"6 225 LINE",
"29 180 LINE",
"6 135 LINE",
"29 90 LINE",
"51 45 LINE",
"96 45 LINE",
"119 0 LINE",
"209 0 LINE",
"231 -45 LINE",
"411 -45 LINE",
"434 0 LINE",
"524 0 LINE",
"546 45 LINE",
"591 45 LINE",
"569 90 LINE",
"524 90 LINE",
"501 45 LINE"
);
},
{
closed = 1;
nodes = (
"569 450 LINE",
"546 495 LINE",
"456 495 LINE",
"479 450 LINE",
"524 450 LINE",
"546 405 LINE",
"569 360 LINE",
"591 315 LINE",
"636 315 LINE",
"614 360 LINE",
"591 405 LINE"
);
},
{
closed = 1;
nodes = (
"366 135 LINE",
"389 180 LINE",
"411 225 LINE",
"389 270 LINE",
"366 315 LINE",
"389 360 LINE",
"366 405 LINE",
"276 405 LINE",
"254 360 LINE",
"276 315 LINE",
"254 270 LINE",
"231 225 LINE",
"254 180 LINE",
"276 135 LINE"
);
},
{
closed = 1;
nodes = (
"299 360 LINE",
"344 360 LINE",
"321 315 LINE",
"344 270 LINE",
"366 225 LINE",
"344 180 LINE",
"299 180 LINE",
"276 225 LINE",
"299 270 LINE",
"321 315 LINE"
);
},
{
closed = 1;
nodes = (
"569 270 LINE",
"591 225 LINE",
"636 225 LINE",
"614 270 LINE",
"591 315 LINE"
);
},
{
closed = 1;
nodes = (
"614 180 LINE",
"591 225 LINE",
"569 180 LINE",
"591 135 LINE",
"636 135 LINE"
);
},
{
closed = 1;
nodes = (
"569 90 LINE",
"614 90 LINE",
"591 135 LINE"
);
}
);
width = 642;
}
);
leftKerningGroup = o;
rightKerningGroup = o;
unicode = 006F;
userData = {
com.typemytype.robofont.guides = (
{
angle = 0;
isGlobal = 0;
magnetic = 5;
x = 0;
y = 302;
},
{
angle = 0;
isGlobal = 0;
magnetic = 5;
x = 0;
y = 218;
},
{
angle = 0;
isGlobal = 0;
magnetic = 5;
x = 0;
y = 411;
},
{
angle = 0;
isGlobal = 0;
magnetic = 5;
x = 0;
y = 109;
},
{
angle = 90;
isGlobal = 0;
magnetic = 5;
x = 278;
y = 0;
},
{
angle = 90;
isGlobal = 0;
magnetic = 5;
x = 56;
y = 0;
},
{
angle = 90;
isGlobal = 0;
magnetic = 5;
x = 500;
y = 0;
}
);
};
},
{
color = 1;
glyphname = oslash;
layers = (
{
hints = (
{
horizontal = 1;
place = "{-2147483648, 0}";
type = Tag;
name = hr00;
}
);
layerId = "EC64484B-0978-4CB1-9EE9-C40A2D8C4059";
paths = (
{
closed = 1;
nodes = (
"120 405 LINE",
"143 450 LINE",
"165 495 LINE",
"120 495 LINE",
"98 450 LINE",
"53 450 LINE",
"30 405 LINE",
"53 360 LINE",
"30 315 LINE",
"75 315 LINE",
"98 360 LINE",
"75 405 LINE"
);
},
{
closed = 1;
nodes = (
"638 450 LINE",
"593 450 LINE",
"570 495 LINE",
"480 495 LINE",
"503 450 LINE",
"548 450 LINE",
"570 405 LINE",
"615 405 LINE",
"638 360 LINE",
"615 315 LINE",
"593 270 LINE",
"615 225 LINE",
"593 180 LINE",
"638 180 LINE",
"660 225 LINE",
"638 270 LINE",
"660 315 LINE",
"683 360 LINE",
"660 405 LINE"
);
},
{
closed = 1;
nodes = (
"368 360 LINE",
"345 405 LINE",
"300 405 LINE",
"278 360 LINE",
"255 315 LINE",
"278 270 LINE",
"323 270 LINE",
"345 315 LINE"
);
},
{
closed = 1;
nodes = (
"98 90 LINE",
"75 135 LINE",
"30 135 LINE",
"53 180 LINE",
"75 225 LINE",
"53 270 LINE",
"30 315 LINE",
"8 270 LINE",
"30 225 LINE",
"8 180 LINE",
"-15 135 LINE",
"8 90 LINE",
"53 90 LINE",
"75 45 LINE",
"120 45 LINE",
"143 0 LINE",
"188 0 LINE",
"210 45 LINE",
"165 45 LINE",
"143 90 LINE"
);
},
{
closed = 1;
nodes = (
"300 135 LINE",
"390 135 LINE",
"413 180 LINE",
"390 225 LINE",
"300 225 LINE",
"278 180 LINE"
);
},
{
closed = 1;
nodes = (
"435 45 LINE",
"413 0 LINE",
"188 0 LINE",
"210 -45 LINE",
"435 -45 LINE",
"458 0 LINE",
"548 0 LINE",
"570 45 LINE",
"593 90 LINE",
"615 135 LINE",
"593 180 LINE",
"570 135 LINE",
"548 90 LINE",
"525 45 LINE"
);
}
);
width = 667;
}
);
leftKerningGroup = o;
rightKerningGroup = o;
unicode = 00F8;
userData = {
com.typemytype.robofont.guides = (
{
angle = 0;
isGlobal = 0;
magnetic = 5;
x = 0;
y = 259;
},
{
angle = 90;
isGlobal = 0;
magnetic = 5;
x = 370;
y = 0;
},
{
angle = 90;
isGlobal = 0;
magnetic = 5;
x = 80;
y = 0;
},
{
angle = 90;
isGlobal = 0;
magnetic = 5;
x = 584;
y = 0;
},
{
angle = 90;
isGlobal = 0;
magnetic = 5;
x = 141;
y = 0;
},
{
angle = 90;
isGlobal = 0;
magnetic = 5;
x = 20;
y = 0;
}
);
};
},
{
color = 1;
glyphname = oe;
layers = (
{
hints = (
{
horizontal = 1;
place = "{-2147483648, 0}";
type = Tag;
name = hr01;
},
{
horizontal = 1;
place = "{-2147483648, 0}";
type = Tag;
name = hr02;
},
{
horizontal = 1;
place = "{-2147483648, 0}";
type = Tag;
name = hr03;
},
{
horizontal = 1;
place = "{-2147483648, 0}";
type = Tag;
name = hr04;
}
);
layerId = "EC64484B-0978-4CB1-9EE9-C40A2D8C4059";
paths = (
{
closed = 1;
nodes = (
"929 360 LINE",
"906 405 LINE",
"884 450 LINE",
"861 495 LINE",
"771 495 LINE",
"794 450 LINE",
"839 450 LINE",
"861 405 LINE",
"884 360 LINE",
"906 315 LINE",
"929 270 LINE",
"906 225 LINE",
"591 225 LINE",
"569 180 LINE",
"591 135 LINE",
"906 135 LINE",
"884 90 LINE",
"839 90 LINE",
"816 45 LINE",
"726 45 LINE",
"704 0 LINE",
"569 0 LINE",
"546 45 LINE",
"411 45 LINE",
"389 0 LINE",
"254 0 LINE",
"231 45 LINE",
"141 45 LINE",
"119 90 LINE",
"74 90 LINE",
"51 135 LINE",
"74 180 LINE",
"51 225 LINE",
"74 270 LINE",
"51 315 LINE",
"74 360 LINE",
"96 405 LINE",
"119 450 LINE",
"164 450 LINE",
"186 495 LINE",
"96 495 LINE",
"74 450 LINE",
"51 405 LINE",
"29 360 LINE",
"6 315 LINE",
"29 270 LINE",
"6 225 LINE",
"29 180 LINE",
"6 135 LINE",
"29 90 LINE",
"51 45 LINE",
"96 45 LINE",
"119 0 LINE",
"209 0 LINE",
"231 -45 LINE",
"411 -45 LINE",
"434 0 LINE",
"524 0 LINE",
"546 -45 LINE",
"726 -45 LINE",
"749 0 LINE",
"839 0 LINE",
"861 45 LINE",
"906 45 LINE",
"929 90 LINE",
"951 135 LINE",
"929 180 LINE",
"951 225 LINE",
"974 270 LINE",
"951 315 LINE"
);
},
{
closed = 1;
nodes = (
"366 135 LINE",
"389 180 LINE",
"411 225 LINE",
"389 270 LINE",
"366 315 LINE",
"389 360 LINE",
"366 405 LINE",
"276 405 LINE",
"254 360 LINE",
"276 315 LINE",
"254 270 LINE",
"231 225 LINE",
"254 180 LINE",
"276 135 LINE"
);
},
{
closed = 1;
nodes = (
"681 405 LINE",
"636 405 LINE",
"614 360 LINE",
"636 315 LINE",
"681 315 LINE",
"704 360 LINE"
);
},
{
closed = 1;
nodes = (
"299 360 LINE",
"344 360 LINE",
"321 315 LINE",
"344 270 LINE",
"366 225 LINE",
"344 180 LINE",
"299 180 LINE",
"276 225 LINE",
"299 270 LINE",
"321 315 LINE"
);
}
);
width = 963;
}
);
leftKerningGroup = o;
rightKerningGroup = e;
unicode = 0153;
userData = {
com.typemytype.robofont.guides = (
{
angle = 90;
isGlobal = 0;
magnetic = 5;
x = 51;
y = 0;
},
{
angle = 90;
isGlobal = 0;
magnetic = 5;
x = 495;
y = 0;
}
);
};
},
{
color = 1;
glyphname = p;
layers = (
{
hints = (
{
horizontal = 1;
place = "{-2147483648, 0}";
type = Tag;
name = hr01;
},
{
horizontal = 1;
place = "{-2147483648, 0}";
type = Tag;
name = hr02;
}
);
layerId = "EC64484B-0978-4CB1-9EE9-C40A2D8C4059";
paths = (
{
closed = 1;
nodes = (
"472 45 LINE",
"450 0 LINE",
"360 0 LINE",
"337 45 LINE",
"292 45 LINE",
"270 0 LINE",
"247 -45 LINE",
"270 -90 LINE",
"247 -135 LINE",
"270 -180 LINE",
"90 -180 LINE",
"67 -135 LINE",
"90 -90 LINE",
"67 -45 LINE",
"90 0 LINE",
"67 45 LINE",
"90 90 LINE",
"67 135 LINE",
"90 180 LINE",
"67 225 LINE",
"90 270 LINE",
"67 315 LINE",
"90 360 LINE",
"67 405 LINE",
"90 450 LINE",
"67 495 LINE",
"22 495 LINE",
"45 450 LINE",
"22 405 LINE",
"45 360 LINE",
"22 315 LINE",
"45 270 LINE",
"22 225 LINE",
"45 180 LINE",
"22 135 LINE",
"45 90 LINE",
"22 45 LINE",
"45 0 LINE",
"22 -45 LINE",
"45 -90 LINE",
"22 -135 LINE",
"45 -180 LINE",
"67 -225 LINE",
"292 -225 LINE",
"315 -180 LINE",
"292 -135 LINE",
"315 -90 LINE",
"292 -45 LINE",
"315 0 LINE",
"337 -45 LINE",
"472 -45 LINE",
"495 0 LINE",
"585 0 LINE",
"607 45 LINE",
"630 90 LINE",
"607 135 LINE",
"585 90 LINE",
"562 45 LINE"
);
},
{
closed = 1;
nodes = (
"247 495 LINE",
"270 450 LINE",
"315 450 LINE",
"337 495 LINE"
);
},
{
closed = 1;
nodes = (
"517 495 LINE",
"540 450 LINE",
"585 450 LINE",
"607 405 LINE",
"652 405 LINE",
"630 450 LINE",
"607 495 LINE"
);
},
{
closed = 1;
nodes = (
"585 360 LINE",
"607 315 LINE",
"652 315 LINE",
"630 360 LINE",
"607 405 LINE"
);
},
{
closed = 1;
nodes = (
"382 135 LINE",
"405 180 LINE",
"427 225 LINE",
"405 270 LINE",
"382 315 LINE",
"360 360 LINE",
"270 360 LINE",
"247 315 LINE",
"270 270 LINE",
"247 225 LINE",
"270 180 LINE",
"292 135 LINE"
);
},
{
closed = 1;
nodes = (
"337 315 LINE",
"360 270 LINE",
"382 225 LINE",
"360 180 LINE",
"315 180 LINE",
"292 225 LINE",
"315 270 LINE",
"292 315 LINE"
);
},
{
closed = 1;
nodes = (
"630 270 LINE",
"607 315 LINE",
"585 270 LINE",
"607 225 LINE",
"652 225 LINE"
);
},
{
closed = 1;
nodes = (
"630 180 LINE",
"607 225 LINE",
"585 180 LINE",
"607 135 LINE",
"652 135 LINE"
);
}
);
width = 661;
}
);
leftKerningGroup = n;
rightKerningGroup = b;
unicode = 0070;
userData = {
com.typemytype.robofont.guides = (
{
angle = 0;
isGlobal = 0;
magnetic = 5;
x = 0;
y = 530;
},
{
angle = 0;
isGlobal = 0;
magnetic = 5;
x = 0;
y = "-10";
},
{
angle = 0;
isGlobal = 0;
magnetic = 5;
x = 0;
y = 422;
},
{
angle = 0;
isGlobal = 0;
magnetic = 5;
x = 0;
y = "-190";
},
{
angle = 90;
isGlobal = 0;
magnetic = 5;
x = 419;
y = 0;
},
{
angle = 90;
isGlobal = 0;
magnetic = 5;
x = "-609";
y = 0;
},
{
angle = 90;
isGlobal = 0;
magnetic = 5;
x = 79;
y = 0;
},
{
angle = 90;
isGlobal = 0;
magnetic = 5;
x = 122;
y = 0;
},
{
angle = 90;
isGlobal = 0;
magnetic = 5;
x = 291;
y = 0;
}
);
};
},
{
color = 1;
glyphname = thorn;
layers = (
{
hints = (
{
horizontal = 1;
place = "{-2147483648, 0}";
type = Tag;
name = hr00;
}
);
layerId = "EC64484B-0978-4CB1-9EE9-C40A2D8C4059";
paths = (
{
closed = 1;
nodes = (
"338 45 LINE",
"293 45 LINE",
"271 0 LINE",
"248 -45 LINE",
"271 -90 LINE",
"248 -135 LINE",
"271 -180 LINE",
"91 -180 LINE",
"68 -135 LINE",
"91 -90 LINE",
"68 -45 LINE",
"91 0 LINE",
"68 45 LINE",
"91 90 LINE",
"68 135 LINE",
"91 180 LINE",
"68 225 LINE",
"91 270 LINE",
"68 315 LINE",
"91 360 LINE",
"68 405 LINE",
"91 450 LINE",
"68 495 LINE",
"91 540 LINE",
"68 585 LINE",
"91 630 LINE",
"68 675 LINE",
"23 675 LINE",
"46 630 LINE",
"23 585 LINE",
"46 540 LINE",
"23 495 LINE",
"46 450 LINE",
"23 405 LINE",
"46 360 LINE",
"23 315 LINE",
"46 270 LINE",
"23 225 LINE",
"46 180 LINE",
"23 135 LINE",
"46 90 LINE",
"23 45 LINE",
"46 0 LINE",
"23 -45 LINE",
"46 -90 LINE",
"23 -135 LINE",
"46 -180 LINE",
"68 -225 LINE",
"293 -225 LINE",
"316 -180 LINE",
"293 -135 LINE",
"316 -90 LINE",
"293 -45 LINE",
"316 0 LINE",
"338 -45 LINE",
"473 -45 LINE",
"496 0 LINE",
"361 0 LINE"
);
},
{
closed = 1;
nodes = (
"563 495 LINE",
"541 540 LINE",
"316 540 LINE",
"293 585 LINE",
"316 630 LINE",
"293 675 LINE",
"248 675 LINE",
"271 630 LINE",
"248 585 LINE",
"271 540 LINE",
"248 495 LINE",
"271 450 LINE",
"316 450 LINE",
"338 495 LINE",
"518 495 LINE",
"541 450 LINE",
"586 450 LINE",
"608 405 LINE",
"653 405 LINE",
"631 450 LINE",
"608 495 LINE"
);
},
{
closed = 1;
nodes = (
"586 360 LINE",
"608 315 LINE",
"653 315 LINE",
"631 360 LINE",
"608 405 LINE"
);
},
{
closed = 1;
nodes = (
"383 135 LINE",
"406 180 LINE",
"428 225 LINE",
"406 270 LINE",
"383 315 LINE",
"361 360 LINE",
"271 360 LINE",
"248 315 LINE",
"271 270 LINE",
"248 225 LINE",
"271 180 LINE",
"293 135 LINE"
);
},
{
closed = 1;
nodes = (
"338 315 LINE",
"361 270 LINE",
"383 225 LINE",
"361 180 LINE",
"316 180 LINE",
"293 225 LINE",
"316 270 LINE",
"293 315 LINE"
);
},
{
closed = 1;
nodes = (
"631 270 LINE",
"608 315 LINE",
"586 270 LINE",
"608 225 LINE",
"653 225 LINE"
);
},
{
closed = 1;
nodes = (
"631 180 LINE",
"608 225 LINE",
"586 180 LINE",
"608 135 LINE",
"653 135 LINE"
);
},
{
closed = 1;
nodes = (
"608 135 LINE",
"586 90 LINE",
"608 45 LINE",
"631 90 LINE"
);
},
{
closed = 1;
nodes = (
"496 0 LINE",
"586 0 LINE",
"608 45 LINE",
"473 45 LINE"
);
}
);
width = 662;
}
);
leftKerningGroup = h;
rightKerningGroup = b;
unicode = 00FE;
userData = {
com.typemytype.robofont.guides = (
{
angle = 0;
isGlobal = 0;
magnetic = 5;
x = 0;
y = 710;
}
);
};
},
{
color = 1;
glyphname = q;
layers = (
{
hints = (
{
horizontal = 1;
place = "{-2147483648, 0}";
type = Tag;
name = hr01;
},
{
horizontal = 1;
place = "{-2147483648, 0}";
type = Tag;
name = hr02;
}
);
layerId = "EC64484B-0978-4CB1-9EE9-C40A2D8C4059";
paths = (
{
closed = 1;
nodes = (
"391 -180 LINE",
"413 -135 LINE",
"391 -90 LINE",
"413 -45 LINE",
"391 0 LINE",
"368 45 LINE",
"323 45 LINE",
"301 0 LINE",
"211 0 LINE",
"188 45 LINE",
"143 45 LINE",
"121 90 LINE",
"76 90 LINE",
"53 135 LINE",
"76 180 LINE",
"53 225 LINE",
"76 270 LINE",
"53 315 LINE",
"76 360 LINE",
"53 405 LINE",
"76 450 LINE",
"121 450 LINE",
"143 495 LINE",
"53 495 LINE",
"31 450 LINE",
"8 405 LINE",
"31 360 LINE",
"8 315 LINE",
"31 270 LINE",
"8 225 LINE",
"31 180 LINE",
"8 135 LINE",
"31 90 LINE",
"53 45 LINE",
"98 45 LINE",
"121 0 LINE",
"166 0 LINE",
"188 -45 LINE",
"323 -45 LINE",
"346 0 LINE",
"368 -45 LINE",
"346 -90 LINE",
"368 -135 LINE",
"346 -180 LINE",
"368 -225 LINE",
"593 -225 LINE",
"616 -180 LINE",
"593 -135 LINE",
"571 -180 LINE"
);
},
{
closed = 1;
nodes = (
"323 495 LINE",
"346 450 LINE",
"391 450 LINE",
"413 495 LINE"
);
},
{
closed = 1;
nodes = (
"638 405 LINE",
"616 450 LINE",
"593 405 LINE"
);
},
{
closed = 1;
nodes = (
"368 135 LINE",
"391 180 LINE",
"413 225 LINE",
"391 270 LINE",
"413 315 LINE",
"391 360 LINE",
"301 360 LINE",
"278 315 LINE",
"256 270 LINE",
"233 225 LINE",
"256 180 LINE",
"278 135 LINE"
);
},
{
closed = 1;
nodes = (
"616 360 LINE",
"593 315 LINE",
"638 315 LINE"
);
},
{
closed = 1;
nodes = (
"368 315 LINE",
"346 270 LINE",
"368 225 LINE",
"346 180 LINE",
"301 180 LINE",
"278 225 LINE",
"301 270 LINE",
"323 315 LINE"
);
},
{
closed = 1;
nodes = (
"616 270 LINE",
"593 225 LINE",
"638 225 LINE"
);
},
{
closed = 1;
nodes = (
"616 180 LINE",
"593 135 LINE",
"638 135 LINE"
);
},
{
closed = 1;
nodes = (
"616 90 LINE",
"593 45 LINE",
"638 45 LINE"
);
},
{
closed = 1;
nodes = (
"616 0 LINE",
"593 -45 LINE",
"638 -45 LINE"
);
},
{
closed = 1;
nodes = (
"638 -135 LINE",
"616 -90 LINE",
"593 -135 LINE"
);
}
);
width = 661;
}
);
leftKerningGroup = d;
rightKerningGroup = u;
unicode = 0071;
userData = {
com.typemytype.robofont.guides = (
{
angle = 0;
isGlobal = 0;
magnetic = 5;
x = 0;
y = 530;
},
{
angle = 0;
isGlobal = 0;
magnetic = 5;
x = 0;
y = "-10";
},
{
angle = 0;
isGlobal = 0;
magnetic = 5;
x = 0;
y = "-190";
}
);
};
},
{
color = 1;
glyphname = r;
layers = (
{
hints = (
{
horizontal = 1;
place = "{-2147483648, 0}";
type = Tag;
name = hr00;
}
);
layerId = "EC64484B-0978-4CB1-9EE9-C40A2D8C4059";
paths = (
{
closed = 1;
nodes = (
"337 540 LINE",
"315 495 LINE",
"292 540 LINE",
"67 540 LINE",
"45 495 LINE",
"22 450 LINE",
"45 405 LINE",
"22 360 LINE",
"45 315 LINE",
"22 270 LINE",
"45 225 LINE",
"22 180 LINE",
"45 135 LINE",
"22 90 LINE",
"45 45 LINE",
"67 0 LINE",
"292 0 LINE",
"315 45 LINE",
"292 90 LINE",
"315 135 LINE",
"292 180 LINE",
"315 225 LINE",
"292 270 LINE",
"472 270 LINE",
"495 315 LINE",
"517 360 LINE",
"540 405 LINE",
"517 450 LINE",
"540 495 LINE",
"517 540 LINE"
);
},
{
closed = 1;
nodes = (
"472 360 LINE",
"450 315 LINE",
"270 315 LINE",
"247 270 LINE",
"270 225 LINE",
"247 180 LINE",
"270 135 LINE",
"247 90 LINE",
"270 45 LINE",
"90 45 LINE",
"67 90 LINE",
"90 135 LINE",
"67 180 LINE",
"90 225 LINE",
"67 270 LINE",
"90 315 LINE",
"67 360 LINE",
"90 405 LINE",
"67 450 LINE",
"90 495 LINE",
"270 495 LINE",
"292 450 LINE",
"337 450 LINE",
"360 495 LINE",
"495 495 LINE",
"472 450 LINE",
"495 405 LINE"
);
}
);
width = 518;
}
);
leftKerningGroup = n;
rightKerningGroup = r;
unicode = 0072;
userData = {
com.typemytype.robofont.guides = (
{
angle = 0;
isGlobal = 0;
magnetic = 5;
x = 0;
y = 462;
}
);
};
},
{
color = 1;
glyphname = s;
layers = (
{
hints = (
{
horizontal = 1;
place = "{-2147483648, 0}";
type = Tag;
name = hr01;
},
{
horizontal = 1;
place = "{-2147483648, 0}";
type = Tag;
name = hr02;
}
);
layerId = "EC64484B-0978-4CB1-9EE9-C40A2D8C4059";
paths = (
{
closed = 1;
nodes = (
"403 45 LINE",
"381 0 LINE",
"201 0 LINE",
"178 45 LINE",
"88 45 LINE",
"66 90 LINE",
"43 135 LINE",
"268 135 LINE",
"291 180 LINE",
"268 225 LINE",
"133 225 LINE",
"111 270 LINE",
"66 270 LINE",
"43 315 LINE",
"66 360 LINE",
"43 405 LINE",
"88 405 LINE",
"111 450 LINE",
"133 495 LINE",
"88 495 LINE",
"66 450 LINE",
"21 450 LINE",
"-2 405 LINE",
"21 360 LINE",
"-2 315 LINE",
"21 270 LINE",
"43 225 LINE",
"88 225 LINE",
"111 180 LINE",
"21 180 LINE",
"-2 135 LINE",
"21 90 LINE",
"43 45 LINE",
"66 0 LINE",
"156 0 LINE",
"178 -45 LINE",
"403 -45 LINE",
"426 0 LINE",
"516 0 LINE",
"538 45 LINE",
"561 90 LINE",
"516 90 LINE",
"493 45 LINE"
);
},
{
closed = 1;
nodes = (
"448 315 LINE",
"426 360 LINE",
"561 360 LINE",
"583 405 LINE",
"561 450 LINE",
"516 450 LINE",
"493 495 LINE",
"448 495 LINE",
"471 450 LINE",
"493 405 LINE",
"268 405 LINE",
"246 360 LINE",
"268 315 LINE",
"403 315 LINE",
"426 270 LINE",
"516 270 LINE",
"538 225 LINE",
"561 180 LINE",
"583 225 LINE",
"561 270 LINE",
"538 315 LINE"
);
},
{
closed = 1;
nodes = (
"561 90 LINE",
"583 135 LINE",
"606 180 LINE",
"561 180 LINE",
"538 135 LINE"
);
}
);
width = 590;
}
);
leftKerningGroup = s;
rightKerningGroup = s;
unicode = 0073;
userData = {
com.typemytype.robofont.guides = (
{
angle = 0;
isGlobal = 0;
magnetic = 5;
x = 0;
y = 265;
},
{
angle = 0;
isGlobal = 0;
magnetic = 5;
x = 0;
y = 139;
},
{
angle = 90;
isGlobal = 0;
magnetic = 5;
x = 250;
y = 0;
}
);
};
},
{
color = 1;
glyphname = scedilla;
layers = (
{
hints = (
{
horizontal = 1;
place = "{-2147483648, 0}";
type = Tag;
name = hr01;
}
);
layerId = "EC64484B-0978-4CB1-9EE9-C40A2D8C4059";
paths = (
{
closed = 1;
nodes = (
"538 315 LINE",
"448 315 LINE",
"426 360 LINE",
"561 360 LINE",
"583 405 LINE",
"561 450 LINE",
"516 450 LINE",
"493 495 LINE",
"471 540 LINE",
"111 540 LINE",
"88 495 LINE",
"66 450 LINE",
"21 450 LINE",
"-2 405 LINE",
"21 360 LINE",
"-2 315 LINE",
"21 270 LINE",
"43 225 LINE",
"88 225 LINE",
"111 180 LINE",
"21 180 LINE",
"-2 135 LINE",
"21 90 LINE",
"43 45 LINE",
"66 0 LINE",
"156 0 LINE",
"178 -45 LINE",
"201 -90 LINE",
"223 -135 LINE",
"201 -180 LINE",
"223 -225 LINE",
"358 -225 LINE",
"381 -180 LINE",
"403 -135 LINE",
"381 -90 LINE",
"358 -45 LINE",
"403 -45 LINE",
"426 0 LINE",
"516 0 LINE",
"538 45 LINE",
"561 90 LINE",
"583 135 LINE",
"606 180 LINE",
"583 225 LINE",
"561 270 LINE"
);
},
{
closed = 1;
nodes = (
"493 45 LINE",
"403 45 LINE",
"381 0 LINE",
"336 0 LINE",
"313 -45 LINE",
"336 -90 LINE",
"246 -90 LINE",
"223 -45 LINE",
"201 0 LINE",
"178 45 LINE",
"88 45 LINE",
"66 90 LINE",
"43 135 LINE",
"268 135 LINE",
"291 180 LINE",
"268 225 LINE",
"133 225 LINE",
"111 270 LINE",
"66 270 LINE",
"43 315 LINE",
"66 360 LINE",
"43 405 LINE",
"88 405 LINE",
"111 450 LINE",
"133 495 LINE",
"448 495 LINE",
"471 450 LINE",
"493 405 LINE",
"268 405 LINE",
"246 360 LINE",
"268 315 LINE",
"403 315 LINE",
"426 270 LINE",
"516 270 LINE",
"538 225 LINE",
"561 180 LINE",
"538 135 LINE",
"516 90 LINE"
);
}
);
width = 590;
}
);
leftKerningGroup = s;
rightKerningGroup = s;
unicode = 015F;
},
{
color = 1;
glyphname = germandbls;
layers = (
{
hints = (
{
horizontal = 1;
place = "{-2147483648, 0}";
type = Tag;
name = hr00;
}
);
layerId = "EC64484B-0978-4CB1-9EE9-C40A2D8C4059";
paths = (
{
closed = 1;
nodes = (
"652 360 LINE",
"607 360 LINE",
"630 405 LINE",
"652 450 LINE",
"630 495 LINE",
"652 540 LINE",
"630 585 LINE",
"607 630 LINE",
"585 675 LINE",
"540 675 LINE",
"517 720 LINE",
"157 720 LINE",
"135 675 LINE",
"90 675 LINE",
"67 630 LINE",
"45 585 LINE",
"22 540 LINE",
"45 495 LINE",
"22 450 LINE",
"45 405 LINE",
"22 360 LINE",
"45 315 LINE",
"22 270 LINE",
"45 225 LINE",
"22 180 LINE",
"45 135 LINE",
"22 90 LINE",
"45 45 LINE",
"67 0 LINE",
"517 0 LINE",
"540 45 LINE",
"315 45 LINE",
"337 90 LINE",
"315 135 LINE",
"405 135 LINE",
"427 180 LINE",
"450 225 LINE",
"427 270 LINE",
"405 315 LINE",
"315 315 LINE",
"337 360 LINE",
"315 405 LINE",
"360 405 LINE",
"382 450 LINE",
"405 495 LINE",
"382 540 LINE",
"360 585 LINE",
"315 585 LINE",
"292 540 LINE",
"270 495 LINE",
"247 450 LINE",
"270 405 LINE",
"247 360 LINE",
"270 315 LINE",
"247 270 LINE",
"270 225 LINE",
"247 180 LINE",
"270 135 LINE",
"247 90 LINE",
"270 45 LINE",
"90 45 LINE",
"67 90 LINE",
"90 135 LINE",
"67 180 LINE",
"90 225 LINE",
"67 270 LINE",
"90 315 LINE",
"67 360 LINE",
"90 405 LINE",
"67 450 LINE",
"90 495 LINE",
"67 540 LINE",
"90 585 LINE",
"112 630 LINE",
"157 630 LINE",
"180 675 LINE",
"495 675 LINE",
"517 630 LINE",
"562 630 LINE",
"585 585 LINE",
"607 540 LINE",
"585 495 LINE",
"607 450 LINE",
"585 405 LINE",
"562 360 LINE",
"585 315 LINE",
"630 315 LINE",
"607 270 LINE",
"630 225 LINE",
"607 180 LINE",
"630 135 LINE",
"607 90 LINE",
"562 90 LINE",
"540 45 LINE",
"630 45 LINE",
"652 90 LINE",
"675 135 LINE",
"652 180 LINE",
"675 225 LINE",
"652 270 LINE",
"675 315 LINE"
);
},
{
closed = 1;
nodes = (
"360 495 LINE",
"337 450 LINE",
"292 450 LINE",
"315 495 LINE",
"337 540 LINE"
);
},
{
closed = 1;
nodes = (
"382 270 LINE",
"405 225 LINE",
"382 180 LINE",
"292 180 LINE",
"315 225 LINE",
"292 270 LINE"
);
}
);
width = 682;
}
);
leftKerningGroup = h;
unicode = 00DF;
userData = {
com.typemytype.robofont.guides = (
{
angle = 0;
isGlobal = 0;
magnetic = 5;
x = 0;
y = 527;
},
{
angle = 0;
isGlobal = 0;
magnetic = 5;
x = 0;
y = 601;
},
{
angle = 90;
isGlobal = 0;
magnetic = 5;
x = 267;
y = 0;
},
{
angle = 90;
isGlobal = 0;
magnetic = 5;
x = 499;
y = 0;
}
);
};
},
{
color = 1;
glyphname = longs;
layers = (
{
hints = (
{
horizontal = 1;
place = "{-2147483648, 0}";
type = Tag;
name = hr00;
}
);
layerId = "EC64484B-0978-4CB1-9EE9-C40A2D8C4059";
paths = (
{
closed = 1;
nodes = (
"151 225 LINE",
"128 270 LINE",
"151 315 LINE",
"128 360 LINE",
"38 360 LINE",
"61 405 LINE",
"38 450 LINE",
"61 495 LINE",
"106 495 LINE",
"128 540 LINE",
"151 585 LINE",
"173 630 LINE",
"196 675 LINE",
"241 675 LINE",
"263 720 LINE",
"533 720 LINE",
"511 765 LINE",
"241 765 LINE",
"218 720 LINE",
"173 720 LINE",
"151 675 LINE",
"128 630 LINE",
"106 585 LINE",
"83 540 LINE",
"38 540 LINE",
"16 495 LINE",
"-7 450 LINE",
"16 405 LINE",
"-7 360 LINE",
"16 315 LINE",
"106 315 LINE",
"83 270 LINE",
"106 225 LINE",
"83 180 LINE",
"106 135 LINE",
"83 90 LINE",
"106 45 LINE",
"151 45 LINE",
"128 90 LINE",
"151 135 LINE",
"128 180 LINE"
);
},
{
closed = 1;
nodes = (
"466 675 LINE",
"488 630 LINE",
"533 630 LINE",
"511 675 LINE",
"488 720 LINE"
);
},
{
closed = 1;
nodes = (
"331 585 LINE",
"308 540 LINE",
"331 495 LINE",
"308 450 LINE",
"331 405 LINE",
"308 360 LINE",
"331 315 LINE",
"308 270 LINE",
"331 225 LINE",
"308 180 LINE",
"331 135 LINE",
"308 90 LINE",
"331 45 LINE",
"196 45 LINE",
"173 0 LINE",
"353 0 LINE",
"376 45 LINE",
"353 90 LINE",
"376 135 LINE",
"353 180 LINE",
"376 225 LINE",
"353 270 LINE",
"376 315 LINE",
"353 360 LINE",
"376 405 LINE",
"353 450 LINE",
"376 495 LINE",
"353 540 LINE",
"488 540 LINE",
"511 585 LINE",
"488 630 LINE",
"466 585 LINE"
);
},
{
closed = 1;
nodes = (
"151 45 LINE",
"128 0 LINE",
"173 0 LINE"
);
}
);
width = 387;
}
);
unicode = 017F;
},
{
color = 1;
glyphname = t;
layers = (
{
hints = (
{
horizontal = 1;
place = "{-2147483648, 0}";
type = Tag;
name = hr00;
}
);
layerId = "EC64484B-0978-4CB1-9EE9-C40A2D8C4059";
paths = (
{
closed = 1;
nodes = (
"506 225 LINE",
"371 225 LINE",
"348 270 LINE",
"371 315 LINE",
"506 315 LINE",
"528 360 LINE",
"506 405 LINE",
"528 450 LINE",
"506 495 LINE",
"483 540 LINE",
"348 540 LINE",
"371 585 LINE",
"348 630 LINE",
"371 675 LINE",
"348 720 LINE",
"123 720 LINE",
"101 675 LINE",
"78 630 LINE",
"101 585 LINE",
"78 540 LINE",
"33 540 LINE",
"11 495 LINE",
"-12 450 LINE",
"11 405 LINE",
"-12 360 LINE",
"11 315 LINE",
"101 315 LINE",
"78 270 LINE",
"101 225 LINE",
"78 180 LINE",
"101 135 LINE",
"123 90 LINE",
"146 45 LINE",
"168 0 LINE",
"528 0 LINE",
"551 45 LINE",
"528 90 LINE",
"551 135 LINE",
"528 180 LINE"
);
},
{
closed = 1;
nodes = (
"191 45 LINE",
"168 90 LINE",
"146 135 LINE",
"123 180 LINE",
"146 225 LINE",
"123 270 LINE",
"146 315 LINE",
"123 360 LINE",
"33 360 LINE",
"56 405 LINE",
"33 450 LINE",
"56 495 LINE",
"101 495 LINE",
"123 540 LINE",
"146 585 LINE",
"123 630 LINE",
"146 675 LINE",
"326 675 LINE",
"303 630 LINE",
"326 585 LINE",
"303 540 LINE",
"326 495 LINE",
"461 495 LINE",
"483 450 LINE",
"461 405 LINE",
"483 360 LINE",
"348 360 LINE",
"326 315 LINE",
"303 270 LINE",
"326 225 LINE",
"348 180 LINE",
"483 180 LINE",
"506 135 LINE",
"483 90 LINE",
"506 45 LINE"
);
}
);
width = 532;
}
);
leftKerningGroup = t;
rightKerningGroup = t;
unicode = 0074;
userData = {
com.typemytype.robofont.guides = (
{
angle = 0;
isGlobal = 0;
magnetic = 5;
x = 0;
y = 175;
},
{
angle = 90;
isGlobal = 0;
magnetic = 5;
x = 342;
y = 0;
},
{
angle = 90;
isGlobal = 0;
magnetic = 5;
x = 35;
y = 0;
}
);
};
},
{
color = 1;
glyphname = tbar;
layers = (
{
hints = (
{
horizontal = 1;
place = "{-2147483648, 0}";
type = Tag;
name = hr00;
}
);
layerId = "EC64484B-0978-4CB1-9EE9-C40A2D8C4059";
paths = (
{
closed = 1;
nodes = (
"169 90 LINE",
"147 135 LINE",
"124 180 LINE",
"147 225 LINE",
"124 270 LINE",
"34 270 LINE",
"57 315 LINE",
"34 360 LINE",
"124 360 LINE",
"147 405 LINE",
"124 450 LINE",
"34 450 LINE",
"57 495 LINE",
"102 495 LINE",
"124 540 LINE",
"147 585 LINE",
"124 630 LINE",
"147 675 LINE",
"327 675 LINE",
"304 630 LINE",
"327 585 LINE",
"304 540 LINE",
"327 495 LINE",
"507 495 LINE",
"484 540 LINE",
"349 540 LINE",
"372 585 LINE",
"349 630 LINE",
"372 675 LINE",
"349 720 LINE",
"124 720 LINE",
"102 675 LINE",
"79 630 LINE",
"102 585 LINE",
"79 540 LINE",
"34 540 LINE",
"12 495 LINE",
"-11 450 LINE",
"12 405 LINE",
"-11 360 LINE",
"12 315 LINE",
"-11 270 LINE",
"12 225 LINE",
"102 225 LINE",
"79 180 LINE",
"102 135 LINE",
"124 90 LINE",
"147 45 LINE",
"169 0 LINE",
"304 0 LINE",
"327 45 LINE",
"192 45 LINE"
);
},
{
closed = 1;
nodes = (
"507 225 LINE",
"529 270 LINE",
"507 315 LINE",
"529 360 LINE",
"507 405 LINE",
"529 450 LINE",
"507 495 LINE",
"484 450 LINE",
"349 450 LINE",
"327 405 LINE",
"349 360 LINE",
"484 360 LINE",
"462 315 LINE",
"484 270 LINE",
"349 270 LINE",
"327 225 LINE",
"349 180 LINE",
"484 180 LINE",
"507 135 LINE",
"484 90 LINE",
"507 45 LINE",
"327 45 LINE",
"349 0 LINE",
"529 0 LINE",
"552 45 LINE",
"529 90 LINE",
"552 135 LINE",
"529 180 LINE"
);
}
);
width = 533;
}
);
leftKerningGroup = t;
rightKerningGroup = t;
unicode = 0167;
userData = {
com.typemytype.robofont.guides = (
{
angle = 90;
isGlobal = 0;
magnetic = 5;
x = 342;
y = 0;
}
);
};
},
{
color = 1;
glyphname = u;
layers = (
{
layerId = "EC64484B-0978-4CB1-9EE9-C40A2D8C4059";
paths = (
{
closed = 1;
nodes = (
"175 0 LINE",
"152 45 LINE",
"107 45 LINE",
"85 90 LINE",
"62 135 LINE",
"85 180 LINE",
"62 225 LINE",
"85 270 LINE",
"62 315 LINE",
"85 360 LINE",
"62 405 LINE",
"85 450 LINE",
"62 495 LINE",
"17 495 LINE",
"40 450 LINE",
"17 405 LINE",
"40 360 LINE",
"17 315 LINE",
"40 270 LINE",
"17 225 LINE",
"40 180 LINE",
"17 135 LINE",
"40 90 LINE",
"62 45 LINE",
"85 0 LINE",
"130 0 LINE",
"152 -45 LINE",
"332 -45 LINE",
"355 0 LINE",
"377 45 LINE",
"332 45 LINE",
"310 0 LINE"
);
},
{
closed = 1;
nodes = (
"377 135 LINE",
"400 180 LINE",
"422 225 LINE",
"400 270 LINE",
"422 315 LINE",
"400 360 LINE",
"422 405 LINE",
"400 450 LINE",
"422 495 LINE",
"377 495 LINE",
"355 450 LINE",
"377 405 LINE",
"355 360 LINE",
"377 315 LINE",
"355 270 LINE",
"377 225 LINE",
"355 180 LINE",
"310 180 LINE",
"287 225 LINE",
"310 270 LINE",
"287 315 LINE",
"310 360 LINE",
"287 405 LINE",
"310 450 LINE",
"287 495 LINE",
"242 495 LINE",
"265 450 LINE",
"242 405 LINE",
"265 360 LINE",
"242 315 LINE",
"265 270 LINE",
"242 225 LINE",
"265 180 LINE",
"287 135 LINE"
);
},
{
closed = 1;
nodes = (
"647 495 LINE",
"602 495 LINE",
"625 450 LINE",
"602 405 LINE",
"625 360 LINE",
"602 315 LINE",
"625 270 LINE",
"602 225 LINE",
"625 180 LINE",
"602 135 LINE",
"625 90 LINE",
"602 45 LINE",
"377 45 LINE",
"400 0 LINE",
"625 0 LINE",
"647 45 LINE",
"670 90 LINE",
"647 135 LINE",
"670 180 LINE",
"647 225 LINE",
"670 270 LINE",
"647 315 LINE",
"670 360 LINE",
"647 405 LINE",
"670 450 LINE"
);
}
);
width = 674;
}
);
leftKerningGroup = u;
rightKerningGroup = u;
unicode = 0075;
userData = {
com.typemytype.robofont.guides = (
{
angle = 0;
isGlobal = 0;
magnetic = 5;
x = 0;
y = "-10";
},
{
angle = 90;
isGlobal = 0;
magnetic = 5;
x = 432;
y = 0;
},
{
angle = 90;
isGlobal = 0;
magnetic = 5;
x = 126;
y = 0;
},
{
angle = 90;
isGlobal = 0;
magnetic = 5;
x = 65;
y = 0;
}
);
};
},
{
color = 1;
glyphname = uogonek;
layers = (
{
layerId = "EC64484B-0978-4CB1-9EE9-C40A2D8C4059";
paths = (
{
closed = 1;
nodes = (
"647 495 LINE",
"625 540 LINE",
"400 540 LINE",
"377 495 LINE",
"355 450 LINE",
"377 405 LINE",
"355 360 LINE",
"377 315 LINE",
"355 270 LINE",
"377 225 LINE",
"355 180 LINE",
"310 180 LINE",
"287 225 LINE",
"310 270 LINE",
"287 315 LINE",
"310 360 LINE",
"287 405 LINE",
"310 450 LINE",
"287 495 LINE",
"265 540 LINE",
"40 540 LINE",
"17 495 LINE",
"40 450 LINE",
"17 405 LINE",
"40 360 LINE",
"17 315 LINE",
"40 270 LINE",
"17 225 LINE",
"40 180 LINE",
"17 135 LINE",
"40 90 LINE",
"62 45 LINE",
"85 0 LINE",
"130 0 LINE",
"152 -45 LINE",
"332 -45 LINE",
"355 0 LINE",
"400 0 LINE",
"377 -45 LINE",
"400 -90 LINE",
"422 -135 LINE",
"445 -180 LINE",
"467 -225 LINE",
"647 -225 LINE",
"670 -180 LINE",
"647 -135 LINE",
"625 -90 LINE",
"580 -90 LINE",
"557 -45 LINE",
"602 -45 LINE",
"625 0 LINE",
"647 45 LINE",
"670 90 LINE",
"647 135 LINE",
"670 180 LINE",
"647 225 LINE",
"670 270 LINE",
"647 315 LINE",
"670 360 LINE",
"647 405 LINE",
"670 450 LINE"
);
},
{
closed = 1;
nodes = (
"602 225 LINE",
"625 180 LINE",
"602 135 LINE",
"625 90 LINE",
"602 45 LINE",
"580 0 LINE",
"535 0 LINE",
"512 -45 LINE",
"535 -90 LINE",
"557 -135 LINE",
"602 -135 LINE",
"625 -180 LINE",
"490 -180 LINE",
"467 -135 LINE",
"445 -90 LINE",
"422 -45 LINE",
"445 0 LINE",
"422 45 LINE",
"332 45 LINE",
"310 0 LINE",
"175 0 LINE",
"152 45 LINE",
"107 45 LINE",
"85 90 LINE",
"62 135 LINE",
"85 180 LINE",
"62 225 LINE",
"85 270 LINE",
"62 315 LINE",
"85 360 LINE",
"62 405 LINE",
"85 450 LINE",
"62 495 LINE",
"242 495 LINE",
"265 450 LINE",
"242 405 LINE",
"265 360 LINE",
"242 315 LINE",
"265 270 LINE",
"242 225 LINE",
"265 180 LINE",
"287 135 LINE",
"377 135 LINE",
"400 180 LINE",
"422 225 LINE",
"400 270 LINE",
"422 315 LINE",
"400 360 LINE",
"422 405 LINE",
"400 450 LINE",
"422 495 LINE",
"602 495 LINE",
"625 450 LINE",
"602 405 LINE",
"625 360 LINE",
"602 315 LINE",
"625 270 LINE"
);
}
);
width = 674;
}
);
leftKerningGroup = u;
rightKerningGroup = u;
unicode = 0173;
userData = {
com.typemytype.robofont.guides = (
{
angle = 0;
isGlobal = 0;
magnetic = 5;
x = 0;
y = 213;
},
{
angle = 90;
isGlobal = 0;
magnetic = 5;
x = 493;
y = 0;
}
);
};
},
{
color = 1;
glyphname = v;
layers = (
{
layerId = "EC64484B-0978-4CB1-9EE9-C40A2D8C4059";
paths = (
{
closed = 1;
nodes = (
"549 405 LINE",
"526 360 LINE",
"504 315 LINE",
"526 270 LINE",
"504 225 LINE",
"481 180 LINE",
"459 135 LINE",
"436 90 LINE",
"414 45 LINE",
"234 45 LINE",
"211 90 LINE",
"189 135 LINE",
"166 180 LINE",
"144 225 LINE",
"121 270 LINE",
"99 315 LINE",
"76 360 LINE",
"54 405 LINE",
"31 450 LINE",
"54 495 LINE",
"234 495 LINE",
"211 450 LINE",
"234 405 LINE",
"256 360 LINE",
"279 315 LINE",
"301 270 LINE",
"346 270 LINE",
"369 315 LINE",
"391 360 LINE",
"369 405 LINE",
"391 450 LINE",
"414 495 LINE",
"594 495 LINE",
"616 540 LINE",
"391 540 LINE",
"369 495 LINE",
"346 450 LINE",
"324 405 LINE",
"346 360 LINE",
"324 315 LINE",
"301 360 LINE",
"279 405 LINE",
"256 450 LINE",
"279 495 LINE",
"256 540 LINE",
"31 540 LINE",
"9 495 LINE",
"-14 450 LINE",
"9 405 LINE",
"31 360 LINE",
"54 315 LINE",
"76 270 LINE",
"99 225 LINE",
"121 180 LINE",
"144 135 LINE",
"166 90 LINE",
"189 45 LINE",
"211 0 LINE",
"436 0 LINE",
"459 45 LINE",
"481 90 LINE",
"504 135 LINE",
"526 180 LINE",
"549 225 LINE",
"571 270 LINE",
"549 315 LINE",
"571 360 LINE",
"594 405 LINE",
"616 450 LINE",
"639 495 LINE",
"594 495 LINE",
"571 450 LINE"
);
}
);
width = 630;
}
);
unicode = 0076;
userData = {
com.typemytype.robofont.guides = (
{
angle = 90;
isGlobal = 0;
magnetic = 5;
x = 267;
y = 0;
}
);
};
},
{
color = 1;
glyphname = w;
layers = (
{
layerId = "EC64484B-0978-4CB1-9EE9-C40A2D8C4059";
paths = (
{
closed = 1;
nodes = (
"623 540 LINE",
"601 495 LINE",
"623 450 LINE",
"601 405 LINE",
"578 360 LINE",
"556 405 LINE",
"533 450 LINE",
"556 495 LINE",
"533 540 LINE",
"353 540 LINE",
"331 495 LINE",
"308 450 LINE",
"286 405 LINE",
"263 450 LINE",
"241 495 LINE",
"218 540 LINE",
"38 540 LINE",
"16 495 LINE",
"-7 450 LINE",
"16 405 LINE",
"38 360 LINE",
"61 315 LINE",
"83 270 LINE",
"61 225 LINE",
"83 180 LINE",
"106 135 LINE",
"128 90 LINE",
"151 45 LINE",
"173 0 LINE",
"353 0 LINE",
"376 45 LINE",
"398 90 LINE",
"421 135 LINE",
"443 180 LINE",
"466 135 LINE",
"443 90 LINE",
"466 45 LINE",
"488 0 LINE",
"713 0 LINE",
"736 45 LINE",
"758 90 LINE",
"781 135 LINE",
"758 180 LINE",
"781 225 LINE",
"803 270 LINE",
"781 315 LINE",
"758 270 LINE",
"736 225 LINE",
"713 180 LINE",
"736 135 LINE",
"713 90 LINE",
"691 45 LINE",
"511 45 LINE",
"488 90 LINE",
"511 135 LINE",
"488 180 LINE",
"466 225 LINE",
"421 225 LINE",
"398 180 LINE",
"376 135 LINE",
"353 90 LINE",
"331 45 LINE",
"196 45 LINE",
"173 90 LINE",
"151 135 LINE",
"128 180 LINE",
"106 225 LINE",
"128 270 LINE",
"106 315 LINE",
"83 360 LINE",
"61 405 LINE",
"38 450 LINE",
"61 495 LINE",
"196 495 LINE",
"218 450 LINE",
"241 405 LINE",
"263 360 LINE",
"241 315 LINE",
"263 270 LINE",
"308 270 LINE",
"331 315 LINE",
"353 360 LINE",
"331 405 LINE",
"353 450 LINE",
"376 495 LINE",
"511 495 LINE",
"488 450 LINE",
"511 405 LINE",
"533 360 LINE",
"556 315 LINE",
"601 315 LINE",
"623 360 LINE",
"646 405 LINE",
"668 450 LINE",
"646 495 LINE",
"826 495 LINE",
"803 450 LINE",
"781 405 LINE",
"803 360 LINE",
"781 315 LINE",
"826 315 LINE",
"848 360 LINE",
"826 405 LINE",
"848 450 LINE",
"871 495 LINE",
"848 540 LINE"
);
}
);
width = 869;
}
);
leftKerningGroup = w;
rightKerningGroup = w;
unicode = 0077;
userData = {
com.typemytype.robofont.guides = (
{
angle = 90;
isGlobal = 0;
magnetic = 5;
x = 45;
y = 0;
},
{
angle = 90;
isGlobal = 0;
magnetic = 5;
x = 737;
y = 0;
}
);
};
},
{
color = 1;
glyphname = x;
layers = (
{
layerId = "EC64484B-0978-4CB1-9EE9-C40A2D8C4059";
paths = (
{
closed = 1;
nodes = (
"521 180 LINE",
"499 225 LINE",
"476 270 LINE",
"499 315 LINE",
"521 360 LINE",
"566 360 LINE",
"589 405 LINE",
"611 450 LINE",
"634 495 LINE",
"611 540 LINE",
"386 540 LINE",
"364 495 LINE",
"341 450 LINE",
"296 450 LINE",
"274 495 LINE",
"251 450 LINE",
"274 405 LINE",
"364 405 LINE",
"386 450 LINE",
"409 495 LINE",
"589 495 LINE",
"566 450 LINE",
"544 405 LINE",
"499 405 LINE",
"476 360 LINE",
"454 315 LINE",
"431 270 LINE",
"454 225 LINE",
"476 180 LINE",
"499 135 LINE",
"544 135 LINE",
"566 90 LINE",
"589 45 LINE",
"364 45 LINE",
"341 90 LINE",
"251 90 LINE",
"229 45 LINE",
"49 45 LINE",
"71 90 LINE",
"94 135 LINE",
"116 180 LINE",
"161 180 LINE",
"184 225 LINE",
"206 270 LINE",
"184 315 LINE",
"139 315 LINE",
"116 360 LINE",
"94 405 LINE",
"71 450 LINE",
"49 495 LINE",
"4 495 LINE",
"26 450 LINE",
"49 405 LINE",
"71 360 LINE",
"94 315 LINE",
"116 270 LINE",
"161 270 LINE",
"139 225 LINE",
"94 225 LINE",
"71 180 LINE",
"49 135 LINE",
"26 90 LINE",
"4 45 LINE",
"26 0 LINE",
"251 0 LINE",
"274 45 LINE",
"319 45 LINE",
"341 0 LINE",
"611 0 LINE",
"634 45 LINE",
"611 90 LINE",
"589 135 LINE",
"566 180 LINE"
);
},
{
closed = 1;
nodes = (
"274 495 LINE",
"251 540 LINE",
"26 540 LINE",
"49 495 LINE"
);
}
);
width = 630;
}
);
unicode = 0078;
userData = {
com.typemytype.robofont.guides = (
{
angle = 90;
isGlobal = 0;
magnetic = 5;
x = 255;
y = 0;
}
);
};
},
{
color = 1;
glyphname = y;
layers = (
{
layerId = "EC64484B-0978-4CB1-9EE9-C40A2D8C4059";
paths = (
{
closed = 1;
nodes = (
"575 405 LINE",
"553 360 LINE",
"530 315 LINE",
"508 270 LINE",
"485 225 LINE",
"463 180 LINE",
"440 135 LINE",
"418 90 LINE",
"395 45 LINE",
"418 0 LINE",
"395 -45 LINE",
"373 -90 LINE",
"350 -135 LINE",
"328 -180 LINE",
"148 -180 LINE",
"170 -135 LINE",
"193 -90 LINE",
"215 -45 LINE",
"238 0 LINE",
"215 45 LINE",
"193 90 LINE",
"170 135 LINE",
"148 180 LINE",
"170 225 LINE",
"148 270 LINE",
"125 315 LINE",
"103 360 LINE",
"80 405 LINE",
"58 450 LINE",
"35 495 LINE",
"-10 495 LINE",
"13 450 LINE",
"35 405 LINE",
"58 360 LINE",
"80 315 LINE",
"103 270 LINE",
"125 225 LINE",
"103 180 LINE",
"125 135 LINE",
"148 90 LINE",
"170 45 LINE",
"193 0 LINE",
"170 -45 LINE",
"148 -90 LINE",
"125 -135 LINE",
"103 -180 LINE",
"125 -225 LINE",
"350 -225 LINE",
"373 -180 LINE",
"395 -135 LINE",
"418 -90 LINE",
"440 -45 LINE",
"463 0 LINE",
"440 45 LINE",
"463 90 LINE",
"485 135 LINE",
"508 180 LINE",
"530 225 LINE",
"553 270 LINE",
"575 315 LINE",
"598 360 LINE",
"620 405 LINE",
"643 450 LINE",
"620 495 LINE",
"598 450 LINE"
);
},
{
closed = 1;
nodes = (
"260 315 LINE",
"283 270 LINE",
"328 270 LINE",
"350 315 LINE",
"373 360 LINE",
"395 405 LINE",
"418 450 LINE",
"440 495 LINE",
"395 495 LINE",
"373 450 LINE",
"350 405 LINE",
"328 360 LINE",
"305 405 LINE",
"283 450 LINE",
"260 495 LINE",
"215 495 LINE",
"238 450 LINE",
"260 405 LINE",
"283 360 LINE"
);
}
);
width = 636;
}
);
leftKerningGroup = y;
rightKerningGroup = y;
unicode = 0079;
},
{
color = 1;
glyphname = z;
layers = (
{
layerId = "EC64484B-0978-4CB1-9EE9-C40A2D8C4059";
paths = (
{
closed = 1;
nodes = (
"531 495 LINE",
"508 450 LINE",
"531 405 LINE",
"508 360 LINE",
"553 360 LINE",
"576 405 LINE",
"553 450 LINE",
"576 495 LINE",
"553 540 LINE",
"58 540 LINE",
"36 495 LINE",
"58 450 LINE",
"81 495 LINE"
);
},
{
closed = 1;
nodes = (
"81 45 LINE",
"58 90 LINE",
"81 135 LINE",
"58 180 LINE",
"103 180 LINE",
"126 225 LINE",
"171 225 LINE",
"193 270 LINE",
"216 315 LINE",
"193 360 LINE",
"58 360 LINE",
"81 405 LINE",
"58 450 LINE",
"13 450 LINE",
"36 405 LINE",
"13 360 LINE",
"36 315 LINE",
"171 315 LINE",
"148 270 LINE",
"103 270 LINE",
"81 225 LINE",
"36 225 LINE",
"13 180 LINE",
"36 135 LINE",
"13 90 LINE",
"36 45 LINE",
"58 0 LINE",
"553 0 LINE",
"576 45 LINE",
"553 90 LINE",
"531 45 LINE"
);
},
{
closed = 1;
nodes = (
"508 360 LINE",
"486 315 LINE",
"508 270 LINE",
"531 315 LINE"
);
},
{
closed = 1;
nodes = (
"351 225 LINE",
"328 180 LINE",
"351 135 LINE",
"531 135 LINE",
"553 90 LINE",
"598 90 LINE",
"576 135 LINE",
"553 180 LINE",
"373 180 LINE",
"396 225 LINE",
"441 225 LINE",
"463 270 LINE",
"486 315 LINE",
"441 315 LINE",
"418 270 LINE",
"373 270 LINE"
);
}
);
width = 590;
}
);
leftKerningGroup = z;
rightKerningGroup = z;
unicode = 007A;
userData = {
com.typemytype.robofont.guides = (
{
angle = 0;
isGlobal = 0;
magnetic = 5;
x = 0;
y = 36;
},
{
angle = 90;
isGlobal = 0;
magnetic = 5;
x = 480;
y = 0;
},
{
angle = 90;
isGlobal = 0;
magnetic = 5;
x = 70;
y = 0;
}
);
};
},
{
color = 1;
glyphname = f_f;
layers = (
{
layerId = "EC64484B-0978-4CB1-9EE9-C40A2D8C4059";
paths = (
{
closed = 1;
nodes = (
"757 360 LINE",
"735 315 LINE",
"712 270 LINE",
"735 225 LINE",
"712 180 LINE",
"735 135 LINE",
"712 90 LINE",
"735 45 LINE",
"555 45 LINE",
"532 90 LINE",
"555 135 LINE",
"532 180 LINE",
"555 225 LINE",
"532 270 LINE",
"555 315 LINE",
"532 360 LINE",
"352 360 LINE",
"330 315 LINE",
"307 270 LINE",
"330 225 LINE",
"307 180 LINE",
"330 135 LINE",
"307 90 LINE",
"330 45 LINE",
"150 45 LINE",
"127 90 LINE",
"150 135 LINE",
"127 180 LINE",
"150 225 LINE",
"127 270 LINE",
"150 315 LINE",
"127 360 LINE",
"37 360 LINE",
"60 405 LINE",
"37 450 LINE",
"60 495 LINE",
"105 495 LINE",
"127 540 LINE",
"150 585 LINE",
"172 630 LINE",
"195 675 LINE",
"240 675 LINE",
"262 720 LINE",
"487 720 LINE",
"465 675 LINE",
"487 630 LINE",
"465 585 LINE",
"330 585 LINE",
"307 540 LINE",
"330 495 LINE",
"510 495 LINE",
"532 540 LINE",
"555 585 LINE",
"577 630 LINE",
"600 675 LINE",
"645 675 LINE",
"667 720 LINE",
"937 720 LINE",
"915 765 LINE",
"645 765 LINE",
"622 720 LINE",
"577 720 LINE",
"555 675 LINE",
"532 630 LINE",
"510 675 LINE",
"532 720 LINE",
"510 765 LINE",
"240 765 LINE",
"217 720 LINE",
"172 720 LINE",
"150 675 LINE",
"127 630 LINE",
"105 585 LINE",
"82 540 LINE",
"37 540 LINE",
"15 495 LINE",
"-8 450 LINE",
"15 405 LINE",
"-8 360 LINE",
"15 315 LINE",
"105 315 LINE",
"82 270 LINE",
"105 225 LINE",
"82 180 LINE",
"105 135 LINE",
"82 90 LINE",
"105 45 LINE",
"127 0 LINE",
"352 0 LINE",
"375 45 LINE",
"352 90 LINE",
"375 135 LINE",
"352 180 LINE",
"375 225 LINE",
"352 270 LINE",
"375 315 LINE",
"510 315 LINE",
"487 270 LINE",
"510 225 LINE",
"487 180 LINE",
"510 135 LINE",
"487 90 LINE",
"510 45 LINE",
"532 0 LINE",
"757 0 LINE",
"780 45 LINE",
"757 90 LINE",
"780 135 LINE",
"757 180 LINE",
"780 225 LINE",
"757 270 LINE",
"780 315 LINE",
"870 315 LINE",
"892 360 LINE",
"915 405 LINE",
"892 450 LINE",
"870 405 LINE",
"847 360 LINE"
);
},
{
closed = 1;
nodes = (
"870 675 LINE",
"892 630 LINE",
"937 630 LINE",
"915 675 LINE",
"892 720 LINE"
);
},
{
closed = 1;
nodes = (
"735 585 LINE",
"712 540 LINE",
"735 495 LINE",
"870 495 LINE",
"892 450 LINE",
"937 450 LINE",
"915 495 LINE",
"892 540 LINE",
"915 585 LINE",
"892 630 LINE",
"870 585 LINE"
);
}
);
width = 904;
}
);
leftKerningGroup = f;
rightKerningGroup = f;
userData = {
com.typemytype.robofont.guides = (
{
angle = 0;
isGlobal = 0;
magnetic = 5;
x = 0;
y = 345;
},
{
angle = 0;
isGlobal = 0;
magnetic = 5;
x = 0;
y = 9;
},
{
angle = 0;
isGlobal = 0;
magnetic = 5;
x = 0;
y = 740;
},
{
angle = 90;
isGlobal = 0;
magnetic = 5;
x = 297;
y = 0;
},
{
angle = 90;
isGlobal = 0;
magnetic = 5;
x = 371;
y = 0;
}
);
};
},
